<svg xmlns="http://www.w3.org/2000/svg" version="1.1" xmlns:xlink="http://www.w3.org/1999/xlink" width="64" height="64" x="0" y="0" viewBox="0 0 512 512" style="enable-background:new 0 0 512 512" xml:space="preserve" class=""><g><g fill="#b5adb6"><path d="M384.127 226.334h-21.834V80.694h21.834c5.69 0 10.302 4.612 10.302 10.302v125.036c0 5.69-4.612 10.302-10.302 10.302zM70.178 141.952h21.834V80.694H70.178c-5.69 0-10.302 4.612-10.302 10.302v40.654c0 5.689 4.613 10.302 10.302 10.302zM70.178 226.334h21.834v-61.257H70.178c-5.69 0-10.302 4.612-10.302 10.302v40.654c0 5.689 4.613 10.301 10.302 10.301z" fill="#b5adb6" opacity="1" data-original="#b5adb6"></path></g><path fill="#7a6e79" d="M339.67 512H114.642c-17.069 0-30.905-13.837-30.905-30.905V30.905C83.736 13.837 97.573 0 114.642 0H339.67c17.069 0 30.905 13.837 30.905 30.905v450.189c0 17.069-13.836 30.906-30.905 30.906z" opacity="1" data-original="#7a6e79"></path><path fill="#685e67" d="M370.574 30.905v450.189c0 17.07-13.835 30.905-30.905 30.905h-35.098c17.07 0 30.905-13.835 30.905-30.905V30.905C335.476 13.835 321.641 0 304.571 0h35.098c17.07 0 30.905 13.835 30.905 30.905z" opacity="1" data-original="#685e67"></path><path fill="#107295" d="M344.82 30.905v450.189a5.153 5.153 0 0 1-5.151 5.151H114.647a5.153 5.153 0 0 1-5.151-5.151V30.905a5.153 5.153 0 0 1 5.151-5.151h56.742a5.144 5.144 0 0 1 4.79 3.255l5.893 14.938a10.309 10.309 0 0 0 9.581 6.521h71c4.224 0 8.025-2.586 9.581-6.521l5.893-14.938a5.144 5.144 0 0 1 4.79-3.255h56.753a5.154 5.154 0 0 1 5.15 5.151z" opacity="1" data-original="#107295" class=""></path><path fill="#0d5f7f" d="M344.82 138.003v135.479h-93.88c-5.687 0-10.302-4.615-10.302-10.302V148.305c0-5.687 4.615-10.302 10.302-10.302z" opacity="1" data-original="#0d5f7f"></path><path fill="#0d5f7f" d="M344.82 30.905v450.189a5.153 5.153 0 0 1-5.151 5.151h-29.432a5.153 5.153 0 0 0 5.151-5.151V30.905a5.153 5.153 0 0 0-5.151-5.151h29.432a5.154 5.154 0 0 1 5.151 5.151z" opacity="1" data-original="#0d5f7f"></path><g fill="#433f43"><path d="M224.912 33.481h-20.659a7.726 7.726 0 1 1 0-15.452h20.659c4.268 0 7.726 3.459 7.726 7.726s-3.458 7.726-7.726 7.726zM250.051 33.534a7.725 7.725 0 0 1-7.726-7.726v-.107a7.726 7.726 0 1 1 15.452 0v.107a7.725 7.725 0 0 1-7.726 7.726z" fill="#433f43" opacity="1" data-original="#433f43"></path></g><path fill="#64e0c4" d="M266.88 460.504h-79.455a7.726 7.726 0 1 1 0-15.452h79.455a7.725 7.725 0 0 1 7.726 7.726 7.725 7.725 0 0 1-7.726 7.726zM441.82 248.86H250.94c-5.69 0-10.302-4.612-10.302-10.302V123.685c0-5.69 4.612-10.302 10.302-10.302h190.88c5.69 0 10.302 4.612 10.302 10.302v114.873c-.001 5.689-4.613 10.302-10.302 10.302z" opacity="1" data-original="#64e0c4"></path><path fill="#27d1b3" d="M452.124 123.684v114.875c0 5.687-4.615 10.302-10.302 10.302H414.44c5.687 0 10.302-4.615 10.302-10.302V123.684c0-5.687-4.615-10.302-10.302-10.302h27.382c5.686 0 10.302 4.615 10.302 10.302z" opacity="1" data-original="#27d1b3"></path><g fill="#0d5f7f"><path d="M308.468 214.462a7.7 7.7 0 0 1-5.325-2.129l-26.918-25.615a7.723 7.723 0 0 1 0-11.194l26.918-25.614a7.727 7.727 0 0 1 10.652 11.194l-21.035 20.017 21.035 20.018a7.728 7.728 0 0 1 .272 10.924 7.711 7.711 0 0 1-5.599 2.399zM384.292 214.462a7.726 7.726 0 0 1-5.327-13.324l21.034-20.018-21.034-20.017a7.727 7.727 0 0 1 10.652-11.195l26.917 25.614a7.723 7.723 0 0 1 0 11.194l-26.917 25.615a7.693 7.693 0 0 1-5.325 2.131zM336.143 214.464a7.727 7.727 0 0 1-7.173-10.595l20.469-51.229a7.728 7.728 0 0 1 14.35 5.734l-20.469 51.229a7.73 7.73 0 0 1-7.177 4.861z" fill="#0d5f7f" opacity="1" data-original="#0d5f7f"></path></g><g fill="#64b9fc"><path d="M148.53 293.05a7.725 7.725 0 0 1-7.726-7.726v-.107a7.726 7.726 0 1 1 15.452 0v.107a7.725 7.725 0 0 1-7.726 7.726zM213.175 293.05h-36.076a7.726 7.726 0 1 1 0-15.452h36.076c4.268 0 7.726 3.459 7.726 7.726s-3.458 7.726-7.726 7.726z" fill="#64b9fc" opacity="1" data-original="#64b9fc"></path></g><g fill="#27d1b3"><path d="M148.53 325.905a7.725 7.725 0 0 1-7.726-7.726v-.107a7.726 7.726 0 1 1 15.452 0v.107a7.725 7.725 0 0 1-7.726 7.726zM282.626 325.905H177.099a7.726 7.726 0 1 1 0-15.452h105.527a7.726 7.726 0 1 1 0 15.452z" fill="#27d1b3" opacity="1" data-original="#27d1b3"></path></g><g fill="#a3e440"><path d="M148.53 358.761a7.725 7.725 0 0 1-7.726-7.726v-.107a7.726 7.726 0 1 1 15.452 0v.107a7.725 7.725 0 0 1-7.726 7.726zM305.776 358.761H177.099a7.726 7.726 0 1 1 0-15.452h128.677a7.727 7.727 0 0 1 0 15.452zM148.53 391.616a7.725 7.725 0 0 1-7.726-7.726v-.107a7.726 7.726 0 1 1 15.452 0v.107a7.725 7.725 0 0 1-7.726 7.726zM305.776 391.616H177.099a7.726 7.726 0 1 1 0-15.452h128.677a7.727 7.727 0 0 1 0 15.452z" fill="#a3e440" opacity="1" data-original="#a3e440"></path></g><path fill="#fcc16d" d="M209.587 239.592H148.91a7.726 7.726 0 1 1 0-15.452h60.676c4.268 0 7.726 3.459 7.726 7.726s-3.458 7.726-7.725 7.726zM209.587 206.736H148.91a7.726 7.726 0 1 1 0-15.452h60.676c4.268 0 7.726 3.459 7.726 7.726s-3.458 7.726-7.725 7.726z" opacity="1" data-original="#fcc16d"></path><g fill="#fc5a95"><path d="M209.587 173.881H148.91a7.726 7.726 0 1 1 0-15.452h60.676a7.725 7.725 0 0 1 7.726 7.726 7.724 7.724 0 0 1-7.725 7.726zM209.587 141.026H148.91a7.726 7.726 0 1 1 0-15.452h60.676a7.725 7.725 0 0 1 7.726 7.726 7.724 7.724 0 0 1-7.725 7.726z" fill="#fc5a95" opacity="1" data-original="#fc5a95"></path></g></g></svg>