<svg xmlns="http://www.w3.org/2000/svg" version="1.1" xmlns:xlink="http://www.w3.org/1999/xlink" width="64" height="64" x="0" y="0" viewBox="0 0 53 53" style="enable-background:new 0 0 512 512" xml:space="preserve"><g><path fill="#474646" d="M31.574 40.276H21.408c1.606-1.641 2.489-4.448 2.77-6.618h4.643c.353 2.082 1.306 4.853 2.753 6.618z" opacity="1" data-original="#474646"></path><path fill="#e5a320" d="M30.198 32.528a1.836 1.836 0 0 1-1.836 1.836h-3.724a1.836 1.836 0 0 1-1.836-1.836z" opacity="1" data-original="#e5a320"></path><path fill="#f9b938" d="M32.898 41.035v2.03h-12.62v-2.03c0-.9.742-1.641 1.642-1.641h9.336c.9 0 1.642.74 1.642 1.641z" opacity="1" data-original="#f9b938"></path><path fill="#ecb021" d="M32.899 41.032v2.034H20.283v-1.21h9.625a2.022 2.022 0 0 0 2.022-2.023c0-.109-.012-.206-.036-.303a1.617 1.617 0 0 1 1.005 1.502z" opacity="1" data-original="#ecb021"></path><path fill="#474646" d="M37.863 45.112v4.129c0 .339-.145.654-.375.884-.049.06-.121.109-.182.157a1.299 1.299 0 0 1-.702.218H16.54c-.702 0-1.259-.557-1.259-1.247v-4.14a2.44 2.44 0 0 1 2.434-2.422h17.726c.278 0 .544.048.787.133.242.084.46.193.653.35.097.073.194.158.279.243.097.085.17.182.242.278.06.085.121.17.17.267.072.133.133.278.181.436.036.097.06.218.073.327.024.12.036.254.036.387z" opacity="1" data-original="#474646"></path><path fill="#2d2c2c" d="M37.863 45.112v4.129c0 .339-.145.654-.375.884-.049.06-.121.109-.182.157a1.299 1.299 0 0 1-.702.218H16.54c-.702 0-1.259-.557-1.259-1.247v-.242h15.68c2.978 0 5.4-2.422 5.4-5.4 0-.279-.049-.545-.133-.787.242.084.46.193.653.35.11.073.194.146.279.243.097.085.17.182.242.278.06.085.121.17.17.267.072.133.133.278.181.436.036.097.06.218.073.327.024.12.036.254.036.387z" opacity="1" data-original="#2d2c2c"></path><path fill="#f9b938" d="M44.662 5.007h-7.559V22.35h1.61c.684 0 1.4-.08 2.125-.239.328-.08.655-.169.963-.288a9.343 9.343 0 0 0 6.307-8.87v-4.51c0-1.886-1.55-3.436-3.446-3.436zm.218 7.946a6.154 6.154 0 0 1-2.85 5.205 5.88 5.88 0 0 1-.994.516c-.228.1-.457.17-.705.239V8.225h4.33c.12 0 .22.1.22.219zM8.338 5.007c-1.897 0-3.446 1.55-3.446 3.437v4.51a9.356 9.356 0 0 0 6.307 8.87c.308.118.635.208.963.287a9.96 9.96 0 0 0 2.126.239h1.609V5.007zm4.33 13.906c-.237-.07-.476-.14-.704-.239a5.88 5.88 0 0 1-.994-.516 6.154 6.154 0 0 1-2.85-5.205v-4.51c0-.118.099-.218.218-.218h4.33z" opacity="1" data-original="#f9b938"></path><path fill="#e5a320" d="M40.331 8.225v10.688c.248-.07.477-.14.705-.239a5.88 5.88 0 0 0 .994-.516v1.023c0 .904-.08 1.778-.229 2.642-.308.12-.635.209-.963.288a9.96 9.96 0 0 1-2.126.239h-1.609V5.007h4.927v3.218zM15.897 5.007V22.35h-1.61c-.684 0-1.4-.08-2.125-.239a7.716 7.716 0 0 1-.963-.288 15.462 15.462 0 0 1-.229-2.642v-1.023c.308.199.646.377.994.516.228.1.467.17.705.239V8.225H10.97V5.007z" opacity="1" data-original="#e5a320"></path><path fill="#f9b938" d="M40.541 4.53v14.649c0 7.748-6.283 14.031-14.031 14.031-7.766 0-14.05-6.283-14.05-14.031V4.529c0-1.129.919-2.029 2.048-2.029h24.003c1.112 0 2.03.9 2.03 2.03z" opacity="1" data-original="#f9b938"></path><path fill="#fff" d="M14.448 12.623a.894.894 0 0 1-.894-.894V6.114a2.485 2.485 0 0 1 2.477-2.481l6.583-.04h.005a.894.894 0 0 1 .006 1.788l-6.588.04a.695.695 0 0 0-.696.693v5.615c0 .494-.4.894-.893.894z" opacity=".3"></path><path fill="#ecb021" d="M40.54 4.53v14.651c0 7.747-6.278 14.025-14.035 14.025-4.47 0-8.453-2.086-11.015-5.334a13.924 13.924 0 0 0 8.71 3.03c7.748 0 14.035-6.288 14.035-14.035V2.504h.278c1.113 0 2.027.894 2.027 2.026z"></path><circle cx="26.501" cy="17.855" r="9.244" fill="#ecb021"></circle><circle cx="26.501" cy="17.855" r="8.244" fill="#f7f363" transform="rotate(-22.48 26.49 17.831)"></circle><path fill="#fff" d="M28.38 24.962a.596.596 0 0 1-.186-1.162 6.67 6.67 0 0 0 4.451-5.005.595.595 0 1 1 1.168.236 7.864 7.864 0 0 1-5.247 5.9.596.596 0 0 1-.186.03z" opacity=".3"></path><path fill="#f7e839" d="M32.911 12.655a8.272 8.272 0 0 0-5.234-1.867c-4.55 0-8.244 3.695-8.244 8.244 0 1.967.685 3.774 1.828 5.185a8.247 8.247 0 0 1-3-6.367c0-4.55 3.695-8.244 8.244-8.244a8.262 8.262 0 0 1 6.406 3.05z"></path><path fill="#fc6559" d="M29.549 18.876a.73.73 0 0 0-.214.659l.333 1.942a.745.745 0 0 1-1.078.787l-1.744-.916a.713.713 0 0 0-.693 0l-1.745.916a.754.754 0 0 1-1.06-.454c0-.025-.01-.042-.01-.068a.591.591 0 0 1-.008-.214c0-.017.009-.034.009-.051l.094-.565v-.008l.12-.727.11-.642a.6.6 0 0 0 .01-.214.645.645 0 0 0-.078-.248.616.616 0 0 0-.145-.197l-1.412-1.368a.75.75 0 0 1 .42-1.275l1.941-.282a.714.714 0 0 0 .556-.41l.873-1.763a.75.75 0 0 1 1.343 0l.872 1.762c.077.163.214.291.376.36h.009a.399.399 0 0 0 .171.051l.094.017 1 .137.232.034.624.094c.24.035.437.171.54.36v.008a.746.746 0 0 1-.13.907z"></path><path fill="#f05543" d="M29.549 18.876a.73.73 0 0 0-.214.659l.333 1.942a.745.745 0 0 1-1.078.787l-1.744-.916a.713.713 0 0 0-.693 0l-1.745.916a.754.754 0 0 1-1.06-.454c0-.025-.01-.042-.01-.068l.086-.53a.708.708 0 0 0 .009-.3v-.008l.12-.727a8.806 8.806 0 0 1 6.14-4.072l.232.034.624.094c.24.035.437.171.54.36v.008a.746.746 0 0 1-.13.907z"></path><path fill="#fff" d="M26.522 44.96h-.69a.452.452 0 0 1 0-.905h.69a.452.452 0 0 1 0 .905zM24.623 44.96H18.3a.452.452 0 0 1 0-.905h6.324a.452.452 0 0 1 0 .905z" opacity=".25"></path></g></svg>
