<svg xmlns="http://www.w3.org/2000/svg" version="1.1" xmlns:xlink="http://www.w3.org/1999/xlink" width="128" height="128" x="0" y="0" viewBox="0 0 64 64" style="enable-background:new 0 0 512 512" xml:space="preserve" class=""><g><path fill="#953528" d="M17 37v21a4 4 0 0 0 4 4h36a4 4 0 0 0 4-4V9a4 4 0 0 0-4-4H21a4 4 0 0 0-4 4v4z" opacity="1" data-original="#953528" class=""></path><path fill="#c64635" d="M57 5H21c-.167 0-.327.029-.489.049-.001.151-.011.3-.011.451 0 23.751 17.621 43.375 40.5 46.542V9a4 4 0 0 0-4-4z" opacity="1" data-original="#c64635" class=""></path><path fill="#d9d5ca" d="M21 44.333V56a2 2 0 0 0 2 2h32a2 2 0 0 0 2-2V11a2 2 0 0 0-2-2H23a2 2 0 0 0-2 2v2.683z" opacity="1" data-original="#d9d5ca" class=""></path><path fill="#5490f5" d="m9 34-6 9.979L9 43l2 5 6-11z" opacity="1" data-original="#5490f5"></path><path fill="#81b4fc" d="m25 34 6 9.979L25 43l-2 5-6-11z" opacity="1" data-original="#81b4fc" class=""></path><path fill="#e8e4d8" d="M21 12.34c2.807 19.242 17.273 34.691 36 38.965V11a2 2 0 0 0-2-2H23a2 2 0 0 0-2 2z" opacity="1" data-original="#e8e4d8" class=""></path><path fill="#d5d6d8" d="M48 12H30a2 2 0 0 1-2-2V4a2 2 0 0 1 2-2h18a2 2 0 0 1 2 2v6a2 2 0 0 1-2 2z" opacity="1" data-original="#d5d6d8"></path><path fill="#ffc239" d="M29 25c.025 6.684-5.344 12.045-12 12-6.694-.046-12.057-5.355-12-12 .057-6.627 5.373-12 12-12s11.975 5.373 12 12z" opacity="1" data-original="#ffc239" class=""></path><circle cx="17" cy="25" r="9" fill="#ffd55d" opacity="1" data-original="#ffd55d" class=""></circle><path fill="#f4ac1c" d="M15 29a1 1 0 0 1-.894-.553l-2-4 1.789-.895 1.379 2.759 6.019-6.019 1.414 1.414-7 7A.997.997 0 0 1 15 29z" opacity="1" data-original="#f4ac1c"></path><path fill="#f1f1f3" d="M48 2H31v5a2 2 0 0 0 2 2h17V4a2 2 0 0 0-2-2z" opacity="1" data-original="#f1f1f3"></path><path fill="#c64635" d="M34.667 24a1 1 0 0 1-.768-.36l-1.667-2 1.536-1.28.898 1.078 2.565-3.078 1.536 1.28-3.333 4a.997.997 0 0 1-.767.36zM34.667 34c-.297 0-.578-.132-.768-.359l-1.667-2 1.536-1.28.898 1.078 2.565-3.078 1.536 1.28-3.333 4a1 1 0 0 1-.767.359z" opacity="1" data-original="#c64635" class=""></path><path fill="#88857c" d="M41 19h13v2H41zM41 22h13v2H41zM41 29h13v2H41zM41 32h13v2H41z" opacity="1" data-original="#88857c"></path><path fill="#c64635" d="M34.667 44c-.297 0-.578-.132-.768-.359l-1.667-2 1.536-1.281.898 1.078 2.565-3.078 1.536 1.281-3.333 4a1 1 0 0 1-.767.359zM34.667 54c-.297 0-.578-.132-.768-.359l-1.667-2 1.536-1.281.898 1.078 2.565-3.078 1.536 1.281-3.333 4a1 1 0 0 1-.767.359z" opacity="1" data-original="#c64635" class=""></path><path fill="#88857c" d="M41 39h13v2H41zM41 42h13v2H41zM41 49h13v2H41zM41 52h13v2H41z" opacity="1" data-original="#88857c"></path><path d="M17 35c5.514 0 10-4.486 10-10s-4.486-10-10-10S7 19.486 7 25s4.486 10 10 10zm0-18c4.411 0 8 3.589 8 8s-3.589 8-8 8-8-3.589-8-8 3.589-8 8-8z" fill="#000000" opacity="1" data-original="#000000" class=""></path><path d="M14.84 28.987a1 1 0 0 0 .867-.28l7-7-1.414-1.414-6.019 6.019-1.379-2.759-1.789.895 2 4a.998.998 0 0 0 .734.539z" fill="#000000" opacity="1" data-original="#000000" class=""></path><path d="M2.172 44.539a1 1 0 0 0 .989.427l5.208-.85 1.702 4.255a1 1 0 0 0 1.807.108L16 40.921V58c0 2.757 2.243 5 5 5h36c2.757 0 5-2.243 5-5V9c0-2.757-2.243-5-5-5h-6c0-1.654-1.346-3-3-3H30c-1.654 0-3 1.346-3 3h-6c-2.757 0-5 2.243-5 5v3.051c-6.645.517-11.942 6.117-12 12.941a12.734 12.734 0 0 0 3.678 9.106c.02.02.042.037.062.057l-5.597 9.308a1 1 0 0 0 .029 1.076zM30 13h18c1.654 0 3-1.346 3-3h4c.551 0 1 .449 1 1v45c0 .552-.449 1-1 1H23c-.551 0-1-.448-1-1v-7.745l.122.224a1 1 0 0 0 1.807-.108l1.702-4.255 5.208.85a1 1 0 0 0 1.018-1.503l-5.589-9.295c2.418-2.448 3.745-5.699 3.732-9.172-.02-5.39-3.325-10.022-8-11.988V11c0-.551.449-1 1-1h4c0 1.654 1.346 3 3 3zm-5.272 22.488 4.303 7.156-3.87-.632a.997.997 0 0 0-1.09.616l-1.211 3.027-4.231-7.757a12.739 12.739 0 0 0 6.099-2.41zM57 6c1.654 0 3 1.346 3 3v49c0 1.654-1.346 3-3 3H21c-1.654 0-3-1.346-3-3V40.921l2 3.667V56c0 1.654 1.346 3 3 3h32c1.654 0 3-1.346 3-3V11c0-1.654-1.346-3-3-3h-4V6zM29 4c0-.551.449-1 1-1h18c.551 0 1 .449 1 1v6c0 .551-.449 1-1 1H30c-.551 0-1-.449-1-1zm-8 2h6v2h-4c-1.654 0-3 1.346-3 3v1.366a12.923 12.923 0 0 0-2-.315V9c0-1.654 1.346-3 3-3zM6 25.009C6.052 18.938 10.986 14 17 14c6.043 0 10.978 4.936 11 11.004.011 2.968-1.129 5.747-3.211 7.822-2.073 2.066-4.86 3.16-7.782 3.174-3.018-.021-5.825-1.194-7.903-3.305A10.744 10.744 0 0 1 6 25.009zm3.285 10.458a13.047 13.047 0 0 0 6.095 2.416l-4.24 7.774-1.211-3.027a1.001 1.001 0 0 0-1.09-.616l-3.87.632z" fill="#000000" opacity="1" data-original="#000000" class=""></path><path d="M34.667 24a1 1 0 0 0 .768-.36l3.333-4-1.536-1.28-2.565 3.078-.898-1.078-1.536 1.28 1.667 2c.188.228.47.36.767.36zM34.667 34c.297 0 .578-.132.768-.359l3.333-4-1.536-1.28-2.565 3.078-.898-1.078-1.536 1.28 1.667 2c.188.227.47.359.767.359zM41 19h13v2H41zM41 22h13v2H41zM41 29h13v2H41zM41 32h13v2H41zM34.667 44c.297 0 .578-.132.768-.359l3.333-4-1.536-1.281-2.565 3.078-.898-1.078-1.536 1.281 1.667 2c.188.227.47.359.767.359zM34.667 54c.297 0 .578-.132.768-.359l3.333-4-1.536-1.281-2.565 3.078-.898-1.078-1.536 1.281 1.667 2c.188.227.47.359.767.359zM41 39h13v2H41zM41 42h13v2H41zM41 49h13v2H41zM41 52h13v2H41z" fill="#000000" opacity="1" data-original="#000000" class=""></path></g></svg>