<svg xmlns="http://www.w3.org/2000/svg" version="1.1" xmlns:xlink="http://www.w3.org/1999/xlink" width="64" height="64" x="0" y="0" viewBox="0 0 64 64" style="enable-background:new 0 0 512 512" xml:space="preserve" class=""><g><path fill="#fcd770" d="M30 38.5v7.89c0 3.84-2.72 7.13-6.49 7.86l-1.51.29V62H10v-7.46l-1.51-.29A8.003 8.003 0 0 1 2 46.39V38.5c0-.69.28-1.32.73-1.77S3.81 36 4.5 36A2.5 2.5 0 0 1 7 38.5v7.03c0 1.99 1.46 3.68 3.43 3.96L14 50h4l3.57-.51A3.996 3.996 0 0 0 25 45.53V38.5c0-.69.28-1.32.73-1.77S26.81 36 27.5 36a2.5 2.5 0 0 1 2.5 2.5zM62 38.5v7.89c0 3.84-2.72 7.13-6.49 7.86l-1.51.29V62H42v-7.46l-1.51-.29A8.003 8.003 0 0 1 34 46.39V38.5c0-.69.28-1.32.73-1.77S35.81 36 36.5 36a2.5 2.5 0 0 1 2.5 2.5v7.03c0 1.99 1.46 3.68 3.43 3.96L46 50h4l3.57-.51A3.996 3.996 0 0 0 57 45.53V38.5c0-.69.28-1.32.73-1.77S58.81 36 59.5 36a2.5 2.5 0 0 1 2.5 2.5z" opacity="1" data-original="#fcd770"></path><path fill="#838f9b" d="M15 24h10l2.83 2.83c.75.75 1.17 1.77 1.17 2.83v.98l-4.89 3.52L24 34v-4l-3-3h-1v10l.06.08L16 40c-.34 0-.68.03-1 .1z" opacity="1" data-original="#838f9b"></path><path fill="#b4dd7f" d="M36 4.48v.01c0 .36-.08.71-.22 1.03l-2.26 4.95c-1.57 3.46-4.77 5.9-8.52 6.53v7H15v-7h-1L8.63 28.63C8.25 29.47 7.41 30 6.5 30h-.05C5.1 30 4 28.9 4 27.55v-.01c0-.36.08-.71.23-1.03l4.62-9.89A7.987 7.987 0 0 1 16.09 12H22.06c3.03 0 5.8-1.71 7.15-4.42l2.13-4.26c.4-.81 1.23-1.32 2.13-1.32h.05A2.48 2.48 0 0 1 36 4.48z" opacity="1" data-original="#b4dd7f" class=""></path><circle cx="48" cy="45" r="5" fill="#fcd770" opacity="1" data-original="#fcd770"></circle><path fill="#fcd770" d="M15 40.1a5.002 5.002 0 0 1 6 4.9c0 2.76-2.24 5-5 5a5.002 5.002 0 0 1-1-9.9z" opacity="1" data-original="#fcd770"></path><circle cx="20" cy="7" r="5" fill="#f0d0b4" opacity="1" data-original="#f0d0b4" class=""></circle><path fill="#ff826e" d="M54 2v8L42 6l11-4z" opacity="1" data-original="#ff826e"></path><path d="M59.5 35c-1.93 0-3.5 1.57-3.5 3.5v7.031a3.015 3.015 0 0 1-2.576 2.97l-.628.09A5.967 5.967 0 0 0 54 45c0-3.309-2.691-6-6-6s-6 2.691-6 6c0 1.347.452 2.588 1.204 3.591l-.628-.09A3.015 3.015 0 0 1 40 45.531V38.5c0-1.93-1.57-3.5-3.5-3.5S33 36.57 33 38.5v7.894a9.014 9.014 0 0 0 7.298 8.838l.702.135V63h14v-7.633l.702-.135A9.014 9.014 0 0 0 63 46.394V38.5c0-1.93-1.57-3.5-3.5-3.5zM48 41c2.206 0 4 1.794 4 4s-1.794 4-4 4-4-1.794-4-4 1.794-4 4-4zm13 5.394a7.012 7.012 0 0 1-5.677 6.874L53 53.715V61H43v-7.285l-2.323-.448A7.01 7.01 0 0 1 35 46.394V38.5c0-.827.673-1.5 1.5-1.5s1.5.673 1.5 1.5v7.031c0 2.472 1.846 4.6 4.293 4.95l3.565.509 2.039.005c.035 0 .068.005.103.005h1v-.003L50 51l3.707-.52A5.026 5.026 0 0 0 58 45.53V38.5c0-.827.673-1.5 1.5-1.5s1.5.673 1.5 1.5z" fill="#000000" opacity="1" data-original="#000000" class=""></path><path d="M55 21V1h-2.176L38.961 6.041 53 10.721V21H40.678l-10.766 7.752a4.962 4.962 0 0 0-1.376-2.63L26 23.586v-5.768a12.417 12.417 0 0 0 8.434-6.938l2.254-4.945c.207-.456.312-.94.312-1.455C37 2.562 35.438 1 33.47 1c-1.29 0-2.449.717-3.025 1.87l-2.129 4.26a6.97 6.97 0 0 1-3.355 3.24A5.964 5.964 0 0 0 26 7c0-3.309-2.691-6-6-6s-6 2.691-6 6c0 1.556.6 2.971 1.575 4.038-3.276.193-6.237 2.16-7.635 5.156l-4.617 9.894A3.454 3.454 0 0 0 3 27.552C3 29.453 4.547 31 6.498 31a3.358 3.358 0 0 0 3.042-1.947L14 19.387V39.35c-2.327.826-4 3.043-4 5.65 0 1.347.452 2.588 1.204 3.591l-.628-.09A3.015 3.015 0 0 1 8 45.531V38.5C8 36.57 6.43 35 4.5 35S1 36.57 1 38.5v7.894a9.014 9.014 0 0 0 7.298 8.838l.702.135V63h14v-7.633l.702-.135A9.014 9.014 0 0 0 31 46.394V38.5c0-1.93-1.57-3.5-3.5-3.5S24 36.57 24 38.5v7.031a3.015 3.015 0 0 1-2.576 2.97l-.628.09A5.967 5.967 0 0 0 22 45a6.008 6.008 0 0 0-3.6-5.496L41.322 23H63v-2zM45.039 5.959 53 3.064v5.549zM27.121 27.536c.559.558.879 1.331.879 2.121v.471l-3 2.16v-2.702L21.414 26H19v10.608l-3 2.16V25h8.585zM23 33.728l-2 1.44v-6.754l2 2zM20 3c2.206 0 4 1.794 4 4s-1.794 4-4 4-4-1.794-4-4 1.794-4 4-4zm-6.64 13L7.724 28.216c-.22.476-.702.784-1.276.784a1.451 1.451 0 0 1-1.313-2.067l4.617-9.893A7.026 7.026 0 0 1 16.095 13h5.961a8.95 8.95 0 0 0 8.049-4.976l2.129-4.26c.235-.471.708-.764 1.286-.764.816 0 1.48.664 1.48 1.495 0 .212-.045.417-.133.611l-2.254 4.945a10.418 10.418 0 0 1-7.777 5.963l-.836.139L23.999 23H16v-7zm8.347 34.48A5.026 5.026 0 0 0 26 45.53V38.5c0-.827.673-1.5 1.5-1.5s1.5.673 1.5 1.5v7.894a7.012 7.012 0 0 1-5.677 6.874L21 53.715V61H11v-7.285l-2.323-.448A7.01 7.01 0 0 1 3 46.394V38.5c0-.827.673-1.5 1.5-1.5s1.5.673 1.5 1.5v7.031c0 2.472 1.846 4.6 4.293 4.95l3.565.509 2.039.005c.035 0 .068.005.103.005h1v-.003L18 51zM20 45c0 2.206-1.794 4-4 4s-4-1.794-4-4 1.794-4 4-4 4 1.794 4 4z" fill="#000000" opacity="1" data-original="#000000" class=""></path><path d="M43 25h2v2h-2zM47 25h2v2h-2zM51 25h2v2h-2z" fill="#000000" opacity="1" data-original="#000000" class=""></path></g></svg>