<svg xmlns="http://www.w3.org/2000/svg" version="1.1" xmlns:xlink="http://www.w3.org/1999/xlink" width="512" height="512" x="0" y="0" viewBox="0 0 64 64" style="enable-background:new 0 0 512 512" xml:space="preserve" class=""><g><g data-name="Fill Outline"><rect width="26" height="4" x="9" y="43" rx="2" style="" fill="#e9f1f2" data-original="#e9f1f2" class=""></rect><rect width="26" height="4" x="9" y="47" rx="2" style="" fill="#e9f1f2" data-original="#e9f1f2" class=""></rect><path d="M12 51h20a10 10 0 0 1-10 10 10 10 0 0 1-10-10Z" style="" fill="#d0d8da" data-original="#d0d8da" class=""></path><path d="M32 25.221a3 3 0 1 0-4 0V26h-6v6h.779a3 3 0 1 1 0 4H22v7h10v-3.274A16.958 16.958 0 0 0 39 26h-7Z" style="" fill="#48cae4" data-original="#48cae4" class=""></path><path d="M12 26.779a3 3 0 1 0 4 0V26h6v-6h-.779a3 3 0 1 1 0-4H22V9A17 17 0 0 0 5 26h7Z" style="" fill="#ffd000" data-original="#ffd000"></path><path d="M22.779 36a3 3 0 1 0 0-4H22v-6h-6v.779a3 3 0 1 1-4 0V26H5a16.958 16.958 0 0 0 7 13.726V43h10v-7ZM34.4 3l-1.816 6.761-.752-.2a3 3 0 1 0-1.032 3.863l.752.2L30 19.421l5.795 1.553.2-.752a3 3 0 1 1 3.864 1.035l-.2.752 6.762 1.812A17 17 0 0 0 34.4 3Z" style="" fill="#ff7373" data-original="#ff7373"></path><path d="M35 45a2.015 2.015 0 0 1-2 2H11a2.006 2.006 0 0 1-2-2 2.015 2.015 0 0 1 2-2 2.006 2.006 0 0 0 2 2ZM35 49a2.015 2.015 0 0 1-2 2H11a2.006 2.006 0 0 1-2-2 2.015 2.015 0 0 1 2-2 2.006 2.006 0 0 0 2 2Z" style="" fill="#d0d8da" data-original="#d0d8da" class=""></path><path d="M32 51a10.048 10.048 0 0 1-.2 2H25a9.008 9.008 0 0 0-8.58 6.3A10 10 0 0 1 12 51Z" style="" fill="#93999a" data-original="#93999a"></path><path d="M36.45 34.93a17.115 17.115 0 0 1-4.45 4.8V43H22v-7h.78a2.978 2.978 0 0 0 4.6-.18A18.9 18.9 0 0 0 30 36a19.657 19.657 0 0 0 6.45-1.07Z" style="" fill="#00b4d8" data-original="#00b4d8"></path><path d="M16.46 30.72A3 3 0 0 1 11 29a2.97 2.97 0 0 1 1-2.22V26H5a16.969 16.969 0 0 1 5.11-12.15c-.07.7-.11 1.42-.11 2.15a19.933 19.933 0 0 0 6.46 14.72Z" style="" fill="#ffb700" data-original="#ffb700"></path><path d="M27.38 35.82a2.978 2.978 0 0 1-4.6.18H22v7H12v-3.27A16.962 16.962 0 0 1 5 26h7v.78A2.989 2.989 0 0 0 14 32a3 3 0 0 0 2.46-1.28 19.9 19.9 0 0 0 10.92 5.1ZM46.99 18.82a16.827 16.827 0 0 1-.57 5l-6.76-1.81.2-.75a3.022 3.022 0 0 0 1.54-1.89 3 3 0 1 0-5.41.85l-.2.75L30 19.42l1.55-5.79-.75-.21a3 3 0 1 1 1.03-3.86l.75.2L34.4 3c.23.06.46.13.68.21a18.5 18.5 0 0 0 11.91 15.61Z" style="" fill="#ef5350" data-original="#ef5350" class=""></path><path d="M54 52.75v-5.5h-2.254a9.207 9.207 0 0 0-.621-1.486l1.6-1.6-3.889-3.889-1.6 1.6a9.207 9.207 0 0 0-1.486-.621V39h-5.5v2.254a9.207 9.207 0 0 0-1.486.621l-1.6-1.6-3.889 3.889 1.6 1.6a9.207 9.207 0 0 0-.621 1.486H32v5.5h2.254a9.207 9.207 0 0 0 .621 1.486l-1.6 1.6 3.889 3.889 1.6-1.6a9.207 9.207 0 0 0 1.486.621V61h5.5v-2.254a9.207 9.207 0 0 0 1.486-.621l1.6 1.6 3.889-3.889-1.6-1.6a9.207 9.207 0 0 0 .621-1.486ZM43 55a5 5 0 1 1 5-5 5 5 0 0 1-5 5Z" style="" fill="#ffea00" data-original="#ffea00"></path><path d="M52.1 55.21a10.85 10.85 0 0 1-5.38.71 10.819 10.819 0 0 1-3.36-.94A2.174 2.174 0 0 1 43 55a5 5 0 0 1-5-5 2.174 2.174 0 0 1 .02-.36A11.375 11.375 0 0 1 37 45a10.964 10.964 0 0 1 .79-4.1l-.62-.62-3.89 3.89 1.6 1.59a9.789 9.789 0 0 0-.63 1.49H32v5.5h2.25a9.789 9.789 0 0 0 .63 1.49l-1.6 1.59 3.89 3.89 1.59-1.6a9.789 9.789 0 0 0 1.49.63V61h5.5v-2.25a9.789 9.789 0 0 0 1.49-.63l1.59 1.6 3.89-3.89Z" style="" fill="#ffd000" data-original="#ffd000"></path><path d="M43 43a7 7 0 1 0 7 7 6.995 6.995 0 0 0-7-7Zm0 12a5 5 0 1 1 5-5 5 5 0 0 1-5 5Z" style="" fill="#ffb700" data-original="#ffb700"></path><path d="M46.72 55.92A6.865 6.865 0 0 1 43 57a7 7 0 0 1-7-7 6.865 6.865 0 0 1 1.08-3.72 10.819 10.819 0 0 0 .94 3.36A2.174 2.174 0 0 0 38 50a5 5 0 0 0 5 5 2.174 2.174 0 0 0 .36-.02 10.819 10.819 0 0 0 3.36.94Z" style="" fill="#ffa200" data-original="#ffa200"></path><path d="M56.928 33a6.065 6.065 0 0 0-.1-1.094l2.032-1.174-2-3.464-2.032 1.174a5.981 5.981 0 0 0-1.9-1.093V25h-4v2.349a5.987 5.987 0 0 0-1.895 1.093L45 27.268l-2 3.464 2.033 1.174a5.752 5.752 0 0 0 0 2.188L43 35.268l2 3.464 2.033-1.174a5.987 5.987 0 0 0 1.895 1.093V41h4v-2.349a5.981 5.981 0 0 0 1.9-1.093l2.032 1.174 2-3.464-2.032-1.174a6.065 6.065 0 0 0 .1-1.094Zm-6 2a2 2 0 1 1 2-2 2 2 0 0 1-2 2Z" style="" fill="#ffea00" data-original="#ffea00"></path><path d="M58.26 34.92A8.893 8.893 0 0 1 54 36a8.99 8.99 0 0 1-8.99-8.73H45l-2 3.46 2.03 1.18a5.991 5.991 0 0 0 0 2.18L43 35.27l2 3.46 2.03-1.17a6.188 6.188 0 0 0 1.9 1.09V41h4v-2.35a6.026 6.026 0 0 0 1.89-1.09l2.04 1.17 2-3.46Z" style="" fill="#ffd000" data-original="#ffd000"></path><path d="M51 29a4 4 0 1 0 4 4 4 4 0 0 0-4-4Zm-.07 6a2 2 0 1 1 2-2 2 2 0 0 1-2 2Z" style="" fill="#ffb700" data-original="#ffb700"></path><path d="M47.032 32.684c-.009.106-.032.208-.032.316a3.983 3.983 0 0 0 6.642 2.982 8.961 8.961 0 0 1-6.61-3.298Z" style="" fill="#ffa200" data-original="#ffa200"></path><g data-name="Outline copy"><path d="M51.072 36a3 3 0 1 0-3-3 3 3 0 0 0 3 3Zm0-4a1 1 0 1 1-1 1 1 1 0 0 1 1-1Z" style="" fill="#323232" data-original="#323232" class=""></path><path d="m59.5 34.4-1.452-.838a6.66 6.66 0 0 0 0-1.126L59.5 31.6a1 1 0 0 0 .366-1.367l-2-3.464A1 1 0 0 0 56.5 26.4l-1.455.84a6.952 6.952 0 0 0-.973-.56V25a1 1 0 0 0-1-1h-4a1 1 0 0 0-1 1v1.681a6.8 6.8 0 0 0-.973.56l-1.455-.84a1 1 0 0 0-1.367.367l-2 3.464a1 1 0 0 0 .367 1.367l1.453.838a6.319 6.319 0 0 0 0 1.126l-1.453.838a1 1 0 1 0 1 1.733l2.032-1.173a1 1 0 0 0 .483-1.047 4.845 4.845 0 0 1 0-1.828 1 1 0 0 0-.483-1.047l-1.166-.673 1-1.732 1.167.674a1 1 0 0 0 1.15-.107 5 5 0 0 1 1.579-.91 1 1 0 0 0 .666-.942V26h2v1.349a1 1 0 0 0 .666.942 4.968 4.968 0 0 1 1.578.91 1 1 0 0 0 1.151.107l1.167-.674 1 1.732-1.166.673a1 1 0 0 0-.484 1.047 4.791 4.791 0 0 1 0 1.828 1 1 0 0 0 .484 1.047l1.166.673-1 1.732-1.167-.674a1 1 0 0 0-1.151.107 4.968 4.968 0 0 1-1.578.91 1 1 0 0 0-.666.942V40h-2v-1.349a1 1 0 0 0-2 0v.974l-1.044 1.043a7.443 7.443 0 0 0-.278-.117V39a1 1 0 0 0-1-1h-5.5a1 1 0 0 0-1 1v1.551a7.443 7.443 0 0 0-.278.117l-1.1-1.1a1 1 0 0 0-1.414 0l-2.567 2.567A3.01 3.01 0 0 0 33 42v-1.774A18.063 18.063 0 0 0 40 26a1 1 0 0 0-1-1h-5.546a3.961 3.961 0 0 0 .231-3.555l1.847.494a1 1 0 0 0 1.225-.706l.2-.752a1 1 0 0 0-.127-.8 1.981 1.981 0 0 1 .668-2.816 2 2 0 0 1 2.932 2.249 1.973 1.973 0 0 1-1.03 1.256 1 1 0 0 0-.511.632l-.2.752a1 1 0 0 0 .707 1.225l6.761 1.811a.973.973 0 0 0 .26.034 1 1 0 0 0 .965-.741 17.965 17.965 0 0 0-1.3-12.692 1 1 0 1 0-1.789.894 15.989 15.989 0 0 1 1.384 10.307l-4.36-1.169a3.955 3.955 0 0 0 1.044-1.79 4.006 4.006 0 0 0-2.828-4.9 3.987 3.987 0 0 0-4.889 4.9l-3.425-.917 1.294-4.83a1 1 0 0 0-.707-1.225l-.752-.2a.992.992 0 0 0-.8.127 1.995 1.995 0 1 1-2.085-3.4 2.009 2.009 0 0 1 1.519-.2 1.971 1.971 0 0 1 1.254 1.03 1 1 0 0 0 .631.51l.752.2a1 1 0 0 0 1.226-.707L35.1 4.255a15.891 15.891 0 0 1 7.135 4.87 1 1 0 0 0 1.532-1.287 17.878 17.878 0 0 0-9.108-5.8 1 1 0 0 0-1.224.707L31.994 8.1a4 4 0 1 0-1.788 6.673l-1.167 4.357A3.971 3.971 0 0 0 26.546 25H23v-5a1 1 0 0 0-1-1h-.778a1 1 0 0 0-.743.33A1.974 1.974 0 0 1 19 20a2 2 0 0 1 0-4 1.974 1.974 0 0 1 1.479.67 1 1 0 0 0 .743.33H22a1 1 0 0 0 1-1V9a1 1 0 0 0-1-1 17.99 17.99 0 0 0-11.714 4.35 1 1 0 0 0 1.3 1.517A16.005 16.005 0 0 1 21 10.031v4.515A3.958 3.958 0 0 0 19 14a4 4 0 0 0 0 8 3.958 3.958 0 0 0 2-.546V25h-5a1 1 0 0 0-1 1v.778a1 1 0 0 0 .33.743A1.974 1.974 0 0 1 16 29a2 2 0 0 1-4 0 1.974 1.974 0 0 1 .67-1.479 1 1 0 0 0 .33-.743V26a1 1 0 0 0-1-1H6.031a15.874 15.874 0 0 1 3.009-8.355 1 1 0 1 0-1.621-1.172A17.865 17.865 0 0 0 4 26a18.063 18.063 0 0 0 7 14.226V42a2.987 2.987 0 0 0-2.22 5A2.987 2.987 0 0 0 11 52h17a1 1 0 0 0 0-2H11a1 1 0 0 1 0-2h17a1 1 0 0 0 0-2H11a1 1 0 0 1 0-2h21.31a.98.98 0 0 0 .26.873l1.1 1.1c-.041.092-.08.185-.117.278H32a1 1 0 0 0-1 1V51a9 9 0 0 1-17.246 3.6 1 1 0 1 0-1.832.8 10.987 10.987 0 0 0 20.714-1.65h.915c.037.093.076.186.117.278l-1.1 1.1a1 1 0 0 0 0 1.414l3.889 3.889a1 1 0 0 0 1.414 0l1.1-1.1c.092.041.185.08.278.117V61a1 1 0 0 0 1 1H42a1 1 0 0 0 0-2h-.75v-1.254a1 1 0 0 0-.7-.954 8.117 8.117 0 0 1-1.323-.553.994.994 0 0 0-1.17.179l-.892.891-2.475-2.475.891-.892a1 1 0 0 0 .179-1.17 8.117 8.117 0 0 1-.553-1.323 1 1 0 0 0-.954-.7H33v-3.5h1.254a1 1 0 0 0 .954-.7 8.117 8.117 0 0 1 .553-1.323 1 1 0 0 0-.179-1.17l-.891-.892 2.475-2.475.892.891a1 1 0 0 0 1.17.179 8.117 8.117 0 0 1 1.323-.553 1 1 0 0 0 .7-.954V40h3.5v1.254a1 1 0 0 0 .7.954 8.117 8.117 0 0 1 1.323.553 1 1 0 0 0 1.17-.179l.892-.891 2.475 2.475-.891.892a1 1 0 0 0-.179 1.17 8.117 8.117 0 0 1 .553 1.323 1 1 0 0 0 .954.7H53v3.5h-1.254a1 1 0 0 0-.954.7 8.117 8.117 0 0 1-.553 1.323 1 1 0 0 0 .179 1.17l.891.892-2.475 2.475-.892-.891a1 1 0 0 0-1.17-.179 8.117 8.117 0 0 1-1.323.553 1 1 0 0 0-.7.954V61a1 1 0 0 0 2 0v-1.551c.093-.037.186-.076.278-.117l1.1 1.1a1 1 0 0 0 1.414 0l3.889-3.889a1 1 0 0 0 0-1.414l-1.1-1.1c.041-.092.08-.185.117-.278H54a1 1 0 0 0 1-1v-5.5a1 1 0 0 0-1-1h-1.551a7.443 7.443 0 0 0-.117-.278l1.1-1.1a1 1 0 0 0 0-1.414L51.971 42h1.1a1 1 0 0 0 1-1v-1.681a6.952 6.952 0 0 0 .973-.56l1.455.84a1.011 1.011 0 0 0 .759.1 1 1 0 0 0 .607-.466l2-3.464A1 1 0 0 0 59.5 34.4ZM23 42v-4.546A3.958 3.958 0 0 0 25 38a4 4 0 0 0 0-8 3.958 3.958 0 0 0-2 .546V30a1 1 0 0 0-2 0v2a1 1 0 0 0 1 1h.778a1 1 0 0 0 .743-.33A1.974 1.974 0 0 1 25 32a2 2 0 0 1 0 4 1.974 1.974 0 0 1-1.479-.67 1 1 0 0 0-.743-.33H22a1 1 0 0 0-1 1v6h-8v-2.273a1 1 0 0 0-.41-.808A16.072 16.072 0 0 1 6.033 27h4.513A3.958 3.958 0 0 0 10 29a4 4 0 0 0 8 0 3.958 3.958 0 0 0-.546-2H28a1 1 0 0 0 1-1v-.778a1 1 0 0 0-.33-.743A1.974 1.974 0 0 1 28 23a2 2 0 0 1 4 0 1.974 1.974 0 0 1-.67 1.479 1 1 0 0 0-.33.743V26a1 1 0 0 0 1 1h5.968a16.073 16.073 0 0 1-6.558 11.919 1 1 0 0 0-.41.808V42Z" style="" fill="#323232" data-original="#323232" class=""></path><path d="M43 46a3.981 3.981 0 0 1 1.453.284 1 1 0 1 0 .731-1.861 6.036 6.036 0 1 0 3.393 3.393 1 1 0 1 0-1.861.731A3.994 3.994 0 1 1 43 46Z" style="" fill="#323232" data-original="#323232" class=""></path></g></g></g></svg>