<svg xmlns="http://www.w3.org/2000/svg" version="1.1" xmlns:xlink="http://www.w3.org/1999/xlink" width="64" height="64" x="0" y="0" viewBox="0 0 64 64" style="enable-background:new 0 0 512 512" xml:space="preserve" class=""><g><g data-name="07-Solution"><path fill="#7cd1ff" d="M2 43h7v.83A3.114 3.114 0 0 0 11.839 47 3 3 0 0 0 15 44v-1h7v-7h-.83A3.114 3.114 0 0 1 18 33.161 3 3 0 0 1 21 30h1v-7H4a2 2 0 0 0-2 2z" opacity="1" data-original="#7cd1ff"></path><path fill="#7099cf" d="M12 44a2.991 2.991 0 0 1-1.474 2.575 2.8 2.8 0 0 0 1.313.425A3 3 0 0 0 15 44v-1h-3zM21 30h1v-7h-3v7h-1a3 3 0 0 0-3 3.161A3.114 3.114 0 0 0 18.17 36H19v7h3v-7h-.83A3.114 3.114 0 0 1 18 33.161 3 3 0 0 1 21 30z" opacity="1" data-original="#7099cf"></path><path fill="#b2876d" d="M22 63v-7h.83A3.114 3.114 0 0 0 26 53.161 3 3 0 0 0 23 50h-1v-7h-7v.83A3.114 3.114 0 0 1 12.161 47 3 3 0 0 1 9 44v-1H2v18a2 2 0 0 0 2 2z" opacity="1" data-original="#b2876d" class=""></path><path fill="#966857" d="M23 50h-1v-7h-2v7h1a3 3 0 0 1 3 3.161A3.114 3.114 0 0 1 20.83 56H20v7h2v-7h.83A3.114 3.114 0 0 0 26 53.161 3 3 0 0 0 23 50zM10.161 47a2.773 2.773 0 0 0 .812-.18A3 3 0 0 1 9 44v-1H7v1a3 3 0 0 0 3.161 3z" opacity="1" data-original="#966857" class=""></path><path fill="#95e8c8" d="M42 43h-7v-.83A3.114 3.114 0 0 0 32.161 39 3 3 0 0 0 29 42v1h-7v7h.83A3.114 3.114 0 0 1 26 52.839 3 3 0 0 1 23 56h-1v7h18a2 2 0 0 0 2-2z" opacity="1" data-original="#95e8c8"></path><path fill="#06ccab" d="M32 42.17V43h3v-.83A3.114 3.114 0 0 0 32.161 39a2.989 2.989 0 0 0-1.687.42A3.232 3.232 0 0 1 32 42.17zM39 43v18a2 2 0 0 1-2 2h3a2 2 0 0 0 2-2V43z" opacity="1" data-original="#06ccab"></path><path fill="#a0cbe0" d="M62 42v6H46v-6h14z" opacity="1" data-original="#a0cbe0" class=""></path><path fill="#314a66" d="M47 48h14v15H47z" opacity="1" data-original="#314a66" class=""></path><path fill="#2c4354" d="M61 52v-4H47v15h4v-1a10 10 0 0 1 10-10z" opacity="1" data-original="#2c4354" class=""></path><path fill="#ffbeaa" d="M48 37.3C43 34.77 43 26 43 26l-.55-.55L39 22l3-3 .67.67L48 25l3 3V16.64l2-2.06-6.3-6.49L54 9l8 7-2 22v4h-5c-4 0-4-4-4-4a6.3 6.3 0 0 1-3-.7z" opacity="1" data-original="#ffbeaa" class=""></path><path fill="#faa68e" d="M55 42h-7v-4.7a6.3 6.3 0 0 0 3 .7s0 4 4 4z" opacity="1" data-original="#faa68e"></path><path fill="#fbb040" d="m51 16.64-2.9 2.99-.1-.1-.6-.63a2.916 2.916 0 0 0-4.31.12 2.406 2.406 0 0 0-.42.65L42 19l-3 3 3.45 3.45L39 29l-4.9-5.05-.7.72a2.9 2.9 0 0 1-4.31-.12 3.24 3.24 0 0 1 .23-4.33l.58-.59-4.9-5.05L37.6 1.6a1.933 1.933 0 0 1 2.8 0l6.3 6.49 6.3 6.49z" opacity="1" data-original="#fbb040"></path><path fill="#f7941d" d="m50 17.53-.6-.63a2.916 2.916 0 0 0-4.31.12 2.406 2.406 0 0 0-.42.65L44 17l-2 2 .67.67a2.406 2.406 0 0 1 .42-.65 2.916 2.916 0 0 1 4.31-.12l.6.63.1.1 1.969-2.03zM36.1 21.95l-.7.72a2.9 2.9 0 0 1-4.31-.12 3.24 3.24 0 0 1 .23-4.33l.58-.59-4.9-5.05L37.917 1.333a1.986 1.986 0 0 0-.317.267L25 14.58l4.9 5.05-.58.59a3.24 3.24 0 0 0-.23 4.33 2.9 2.9 0 0 0 4.31.12l.7-.72L39 29l1.972-2.029z" opacity="1" data-original="#f7941d"></path><path fill="#faa68e" d="M51 16.64V28l-3-3v-5.47l.1.1z" opacity="1" data-original="#faa68e"></path><path fill="#7ea8c2" d="M48 42h-2v6h16v-2c-14 0-14-4-14-4z" opacity="1" data-original="#7ea8c2" class=""></path><path d="M39 30a1 1 0 0 1-.718-.3L34.1 25.385a3.974 3.974 0 0 1-2.9 1.185 3.9 3.9 0 0 1-2.863-1.363 4.218 4.218 0 0 1 .169-5.579l-4.223-4.352a1 1 0 0 1 0-1.392L36.883.9a3 3 0 0 1 4.238 0l12.6 12.977a1 1 0 0 1 0 1.392l-4.9 5.05a1 1 0 0 1-.718.3 1 1 0 0 1-.719-.308l-.7-.73a1.9 1.9 0 0 0-1.428-.585 1.929 1.929 0 0 0-1.409.673 1.436 1.436 0 0 0-.254.389l-1.834-.8a3.408 3.408 0 0 1 .593-.919 3.915 3.915 0 0 1 5.748-.149l3.5-3.61L39.682 2.3a.953.953 0 0 0-1.361 0L26.394 14.58l4.224 4.354a1 1 0 0 1 0 1.4l-.58.59a2.245 2.245 0 0 0-.192 2.969 1.922 1.922 0 0 0 1.41.68 1.887 1.887 0 0 0 1.43-.595l.7-.722a1 1 0 0 1 .717-.3 1 1 0 0 1 .717.3L39 27.564l2.733-2.811 1.434 1.394-3.45 3.55A1 1 0 0 1 39 30zM12 48c-.072 0-.145 0-.217-.006A4.08 4.08 0 0 1 8 44H2a1 1 0 0 1-1-1V25a3 3 0 0 1 3-3h18a1 1 0 0 1 1 1v7a1 1 0 0 1-1 1h-1a2 2 0 0 0-2 2.109A2.119 2.119 0 0 0 21.17 35H22a1 1 0 0 1 1 1v7a1 1 0 0 1-1 1h-6a4.02 4.02 0 0 1-1.247 2.9A3.96 3.96 0 0 1 12 48zm-9-6h6a1 1 0 0 1 1 1v.83A2.119 2.119 0 0 0 11.891 46 2 2 0 0 0 14 44v-1a1 1 0 0 1 1-1h6v-5a4.08 4.08 0 0 1-3.994-3.784 3.966 3.966 0 0 1 1.094-2.969A4.02 4.02 0 0 1 21 29v-5H4a1 1 0 0 0-1 1z" fill="#000000" opacity="1" data-original="#000000" class=""></path><path d="M22 64H4a3 3 0 0 1-3-3V43a1 1 0 0 1 1-1h7a1 1 0 0 1 1 1v1a2 2 0 0 0 2.109 2A2.119 2.119 0 0 0 14 43.83V43a1 1 0 0 1 1-1h7a1 1 0 0 1 1 1v6a4.02 4.02 0 0 1 2.9 1.247 3.966 3.966 0 0 1 1.092 2.966A4.08 4.08 0 0 1 23 57v6a1 1 0 0 1-1 1zM3 44v17a1 1 0 0 0 1 1h17v-6a1 1 0 0 1 1-1h.83A2.119 2.119 0 0 0 25 53.109 2 2 0 0 0 23 51h-1a1 1 0 0 1-1-1v-6h-5a4.08 4.08 0 0 1-3.784 3.994A3.963 3.963 0 0 1 9.247 46.9 4.02 4.02 0 0 1 8 44z" fill="#000000" opacity="1" data-original="#000000" class=""></path><path d="M40 64H22a1 1 0 0 1-1-1v-7a1 1 0 0 1 1-1h1a2 2 0 0 0 2-2.109A2.119 2.119 0 0 0 22.83 51H22a1 1 0 0 1-1-1v-7a1 1 0 0 1 1-1h6a4.02 4.02 0 0 1 1.247-2.9 3.962 3.962 0 0 1 2.966-1.092A4.08 4.08 0 0 1 36 42h6a1 1 0 0 1 1 1v18a3 3 0 0 1-3 3zm-17-2h17a1 1 0 0 0 1-1V44h-6a1 1 0 0 1-1-1v-.83A2.119 2.119 0 0 0 32.109 40 2 2 0 0 0 30 42v1a1 1 0 0 1-1 1h-6v5a4.08 4.08 0 0 1 3.994 3.784 3.966 3.966 0 0 1-1.094 2.969A4.02 4.02 0 0 1 23 57zM51 39c-6.9 0-8.881-8-8.995-12.581l-3.712-3.712a1 1 0 0 1 0-1.414l3-3a1 1 0 0 1 1.414 0l9 9-1.414 1.414L42 20.414 40.414 22l3.293 3.293A1 1 0 0 1 44 26c0 .11.1 11 7 11zM61 42h-2v-4l1.958-21.583-7.386-6.462-7-.873.252-1.982 7.3.91a1 1 0 0 1 .535.24l8 7a1 1 0 0 1 .341.84l-2 22z" fill="#000000" opacity="1" data-original="#000000" class=""></path><path d="M47 37h2v5h-2z" fill="#000000" opacity="1" data-original="#000000" class=""></path><path d="M62 49H46a1 1 0 0 1-1-1v-6a1 1 0 0 1 1-1h16a1 1 0 0 1 1 1v6a1 1 0 0 1-1 1zm-15-2h14v-4H47z" fill="#000000" opacity="1" data-original="#000000" class=""></path><path d="M46 48h2v15h-2zM60 48h2v15h-2zM47 19h2v6h-2zM12 11h8v2h-8zM14.289 19.293l5-5 1.413 1.415-4.999 4.999zM14.29 4.708l1.414-1.414 5 5-1.415 1.413zM5 58h2v2H5zM9 58h10v2H9z" fill="#000000" opacity="1" data-original="#000000" class=""></path></g></g></svg>