<svg xmlns="http://www.w3.org/2000/svg" version="1.1" xmlns:xlink="http://www.w3.org/1999/xlink" width="64" height="64" x="0" y="0" viewBox="0 0 682.667 682.667" style="enable-background:new 0 0 512 512" xml:space="preserve" class=""><g><defs><clipPath id="a" clipPathUnits="userSpaceOnUse"><path d="M0 512h512V0H0Z" fill="#000000" opacity="1" data-original="#000000"></path></clipPath></defs><g clip-path="url(#a)" transform="matrix(1.33333 0 0 -1.33333 0 682.667)"><path d="M0 0h-419.316c-21.414 0-38.774-17.359-38.774-38.773v-119.511c0-21.413 17.36-38.773 38.774-38.773h29.708l36.989-49.375 36.99 49.375H0c21.414 0 38.773 17.36 38.773 38.774v119.51C38.773-17.359 21.414 0 0 0" style="fill-opacity:1;fill-rule:nonzero;stroke:none" transform="translate(465.658 504.432)" fill="#ffd36c" data-original="#ffd36c" class=""></path><path d="M0 0h-40.489C-19.075 0-1.715-17.359-1.715-38.773v-119.51c0-21.414-17.36-38.774-38.774-38.774H0c21.414 0 38.773 17.36 38.773 38.774v119.51C38.773-17.359 21.414 0 0 0" style="fill-opacity:1;fill-rule:nonzero;stroke:none" transform="translate(465.658 504.432)" fill="#fcc645" data-original="#fcc645" class=""></path><path d="m0 0 13.943-28.252A2.73 2.73 0 0 1 16-29.747l31.179-4.53c2.24-.326 3.134-3.079 1.513-4.66l-22.56-21.991a2.73 2.73 0 0 1-.786-2.418l5.326-31.052c.383-2.232-1.96-3.934-3.964-2.88L-1.179-82.617a2.733 2.733 0 0 1-2.542 0l-27.886-14.661c-2.004-1.054-4.347.648-3.964 2.88l5.326 31.052a2.738 2.738 0 0 1-.786 2.418l-22.561 21.991c-1.621 1.581-.726 4.334 1.514 4.66l31.179 4.53a2.728 2.728 0 0 1 2.056 1.495L-4.899 0C-3.897 2.03-1.002 2.03 0 0" style="fill-opacity:1;fill-rule:nonzero;stroke:none" transform="translate(115.01 453.94)" fill="#eaaf20" data-original="#eaaf20" class=""></path><path d="m0 0 13.943-28.252a2.733 2.733 0 0 1 2.058-1.495l31.178-4.53c2.241-.326 3.135-3.079 1.513-4.66l-22.56-21.991a2.729 2.729 0 0 1-.785-2.418l5.325-31.052c.383-2.232-1.959-3.934-3.963-2.88L-1.178-82.617a2.735 2.735 0 0 1-2.543 0l-27.886-14.661c-2.004-1.054-4.346.648-3.963 2.88l5.325 31.052a2.734 2.734 0 0 1-.785 2.418l-22.561 21.991c-1.622 1.581-.727 4.334 1.514 4.66l31.178 4.53a2.732 2.732 0 0 1 2.057 1.495L-4.898 0C-3.896 2.03-1.002 2.03 0 0" style="fill-opacity:1;fill-rule:nonzero;stroke:none" transform="translate(258.45 453.94)" fill="#eaaf20" data-original="#eaaf20" class=""></path><path d="m0 0 13.943-28.252A2.732 2.732 0 0 1 16-29.747l31.179-4.53c2.24-.326 3.134-3.079 1.513-4.66l-22.56-21.991a2.732 2.732 0 0 1-.786-2.418l5.326-31.052c.383-2.232-1.96-3.934-3.964-2.88L-1.179-82.617a2.733 2.733 0 0 1-2.542 0l-27.886-14.661c-2.004-1.054-4.347.648-3.964 2.88l5.326 31.052a2.732 2.732 0 0 1-.786 2.418l-22.561 21.991c-1.621 1.581-.726 4.334 1.514 4.66l31.179 4.53a2.728 2.728 0 0 1 2.056 1.495L-4.899 0C-3.897 2.03-1.002 2.03 0 0" style="fill-opacity:1;fill-rule:nonzero;stroke:none" transform="translate(401.89 453.94)" fill="#eaaf20" data-original="#eaaf20" class=""></path><path d="M0 0c0-57.974-46.997-104.971-104.972-104.971-57.973 0-104.97 46.997-104.97 104.971 0 57.974 46.997 104.971 104.97 104.971C-46.997 104.971 0 57.974 0 0" style="fill-opacity:1;fill-rule:nonzero;stroke:none" transform="translate(217.51 112.54)" fill="#fceedb" data-original="#fceedb"></path><path d="M0 0c0 20.981-17.008 37.989-37.989 37.989-20.981 0-37.99-17.008-37.99-37.989 0-20.981 17.009-37.99 37.99-37.99S0-20.981 0 0" style="fill-opacity:1;fill-rule:nonzero;stroke:none" transform="translate(150.428 135.533)" fill="#e3d3c6" data-original="#e3d3c6"></path><path d="M0 0c-35.392 0-64.559-26.654-68.522-60.983v-3.456C-50.121-80.35-26.135-89.975.101-89.975c26.223 0 50.201 9.617 68.598 25.515l.026 1.477C65.685-27.694 36.076 0 0 0" style="fill-opacity:1;fill-rule:nonzero;stroke:none" transform="translate(112.439 97.543)" fill="#e3d3c6" data-original="#e3d3c6"></path><path d="M0 0h-205.943c-23.877 0-23.908 36.99 0 36.99H0C23.878 36.99 23.908 0 0 0" style="fill-opacity:1;fill-rule:nonzero;stroke:none" transform="translate(485.937 170.023)" fill="#e3d3c6" data-original="#e3d3c6"></path><path d="M0 0h-205.943c-23.877 0-23.908 36.99 0 36.99H0C23.878 36.99 23.908 0 0 0" style="fill-opacity:1;fill-rule:nonzero;stroke:none" transform="translate(486.437 94.044)" fill="#e3d3c6" data-original="#e3d3c6"></path><path d="M0 0h-205.943c-23.878 0-23.908 36.99 0 36.99H0C23.878 36.99 23.907 0 0 0" style="fill-opacity:1;fill-rule:nonzero;stroke:none" transform="translate(486.937 18.065)" fill="#e3d3c6" data-original="#e3d3c6"></path><path d="m0 0 13.947-28.26a2.738 2.738 0 0 1 2.058-1.495l31.186-4.532c2.242-.325 3.137-3.08 1.515-4.66L26.139-60.945a2.728 2.728 0 0 1-.785-2.418l5.327-31.061c.382-2.232-1.96-3.934-3.965-2.881L-1.179-82.64a2.73 2.73 0 0 1-2.543 0l-27.894-14.665c-2.005-1.053-4.348.649-3.965 2.881l5.328 31.061a2.737 2.737 0 0 1-.786 2.418l-22.567 21.998c-1.622 1.58-.727 4.335 1.514 4.66l31.187 4.532c.89.13 1.659.689 2.057 1.495L-4.9 0C-3.898 2.031-1.002 2.031 0 0z" style="stroke-width:15;stroke-linecap:round;stroke-linejoin:round;stroke-miterlimit:10;stroke-dasharray:none;stroke-opacity:1" transform="translate(114.97 453.995)" fill="none" stroke="#000000" stroke-width="15" stroke-linecap="round" stroke-linejoin="round" stroke-miterlimit="10" stroke-dasharray="none" stroke-opacity="" data-original="#000000" class=""></path><path d="m0 0 13.947-28.26a2.736 2.736 0 0 1 2.058-1.495l31.186-4.532c2.242-.325 3.137-3.08 1.515-4.66L26.139-60.945a2.728 2.728 0 0 1-.785-2.418l5.327-31.061c.382-2.232-1.96-3.934-3.965-2.881L-1.179-82.64a2.73 2.73 0 0 1-2.543 0l-27.894-14.665c-2.005-1.053-4.348.649-3.965 2.881l5.327 31.061a2.733 2.733 0 0 1-.785 2.418l-22.567 21.998c-1.623 1.58-.727 4.335 1.514 4.66l31.187 4.532c.89.13 1.659.689 2.057 1.495L-4.9 0C-3.898 2.031-1.002 2.031 0 0z" style="stroke-width:15;stroke-linecap:round;stroke-linejoin:round;stroke-miterlimit:10;stroke-dasharray:none;stroke-opacity:1" transform="translate(258.45 453.995)" fill="none" stroke="#000000" stroke-width="15" stroke-linecap="round" stroke-linejoin="round" stroke-miterlimit="10" stroke-dasharray="none" stroke-opacity="" data-original="#000000" class=""></path><path d="m0 0 13.947-28.26a2.736 2.736 0 0 1 2.058-1.495l31.186-4.532c2.242-.325 3.136-3.08 1.515-4.66L26.139-60.945a2.731 2.731 0 0 1-.786-2.418l5.328-31.061c.382-2.232-1.96-3.934-3.965-2.881L-1.179-82.64a2.73 2.73 0 0 1-2.543 0l-27.894-14.665c-2.005-1.053-4.348.649-3.965 2.881l5.327 31.061a2.733 2.733 0 0 1-.785 2.418l-22.567 21.998c-1.623 1.58-.727 4.335 1.514 4.66l31.187 4.532c.889.13 1.659.689 2.057 1.495L-4.9 0C-3.898 2.031-1.002 2.031 0 0z" style="stroke-width:15;stroke-linecap:round;stroke-linejoin:round;stroke-miterlimit:10;stroke-dasharray:none;stroke-opacity:1" transform="translate(401.93 453.995)" fill="none" stroke="#000000" stroke-width="15" stroke-linecap="round" stroke-linejoin="round" stroke-miterlimit="10" stroke-dasharray="none" stroke-opacity="" data-original="#000000" class=""></path><path d="M0 0h-45.716C-67.136 0-84.5-17.364-84.5-38.784v-119.543c0-21.42 17.364-38.784 38.784-38.784H-16L21-246.5l37 49.389h315.716c21.42 0 38.784 17.364 38.784 38.784v119.543C412.5-17.364 395.136 0 373.716 0H38" style="stroke-width:15;stroke-linecap:round;stroke-linejoin:round;stroke-miterlimit:10;stroke-dasharray:none;stroke-opacity:1" transform="translate(92 504.5)" fill="none" stroke="#000000" stroke-width="15" stroke-linecap="round" stroke-linejoin="round" stroke-miterlimit="10" stroke-dasharray="none" stroke-opacity="" data-original="#000000" class=""></path><path d="M0 0c0-20.987-17.014-38-38-38-20.987 0-38 17.013-38 38s17.013 38 38 38C-17.014 38 0 20.987 0 0Z" style="stroke-width:15;stroke-linecap:round;stroke-linejoin:round;stroke-miterlimit:10;stroke-dasharray:none;stroke-opacity:1" transform="translate(150.4 135.5)" fill="none" stroke="#000000" stroke-width="15" stroke-linecap="round" stroke-linejoin="round" stroke-miterlimit="10" stroke-dasharray="none" stroke-opacity="" data-original="#000000" class=""></path><path d="M0 0c3.964 34.339 33.139 61 68.541 61 36.086 0 65.702-27.702 68.742-63.001" style="stroke-width:15;stroke-linecap:round;stroke-linejoin:round;stroke-miterlimit:10;stroke-dasharray:none;stroke-opacity:1" transform="translate(43.858 36.5)" fill="none" stroke="#000000" stroke-width="15" stroke-linecap="round" stroke-linejoin="round" stroke-miterlimit="10" stroke-dasharray="none" stroke-opacity="" data-original="#000000" class=""></path><path d="M0 0c0-57.99-47.01-105-105-105S-210-57.99-210 0s47.01 105 105 105S0 57.99 0 0Z" style="stroke-width:15;stroke-linecap:round;stroke-linejoin:round;stroke-miterlimit:10;stroke-dasharray:none;stroke-opacity:1" transform="translate(217.5 112.5)" fill="none" stroke="#000000" stroke-width="15" stroke-linecap="round" stroke-linejoin="round" stroke-miterlimit="10" stroke-dasharray="none" stroke-opacity="" data-original="#000000" class=""></path><path d="M0 0h-206c-10.217 0-18.5 8.283-18.5 18.5S-216.217 37-206 37H0c10.217 0 18.5-8.283 18.5-18.5S10.217 0 0 0Z" style="stroke-width:15;stroke-linecap:round;stroke-linejoin:round;stroke-miterlimit:10;stroke-dasharray:none;stroke-opacity:1" transform="translate(486 170)" fill="none" stroke="#000000" stroke-width="15" stroke-linecap="round" stroke-linejoin="round" stroke-miterlimit="10" stroke-dasharray="none" stroke-opacity="" data-original="#000000" class=""></path><path d="M0 0h12.5C22.717 0 31-8.283 31-18.5S22.717-37 12.5-37h-206c-10.217 0-18.5 8.283-18.5 18.5S-203.717 0-193.5 0H-38" style="stroke-width:15;stroke-linecap:round;stroke-linejoin:round;stroke-miterlimit:10;stroke-dasharray:none;stroke-opacity:1" transform="translate(474 131)" fill="none" stroke="#000000" stroke-width="15" stroke-linecap="round" stroke-linejoin="round" stroke-miterlimit="10" stroke-dasharray="none" stroke-opacity="" data-original="#000000" class=""></path><path d="M0 0h-25c-10.217 0-18.5 8.283-18.5 18.5S-35.217 37-25 37h206c10.217 0 18.5-8.283 18.5-18.5S191.217 0 181 0H37" style="stroke-width:15;stroke-linecap:round;stroke-linejoin:round;stroke-miterlimit:10;stroke-dasharray:none;stroke-opacity:1" transform="translate(306 18)" fill="none" stroke="#000000" stroke-width="15" stroke-linecap="round" stroke-linejoin="round" stroke-miterlimit="10" stroke-dasharray="none" stroke-opacity="" data-original="#000000" class=""></path></g></g></svg>