<svg xmlns="http://www.w3.org/2000/svg" version="1.1" xmlns:xlink="http://www.w3.org/1999/xlink" width="64" height="64\" x="0" y="0" viewBox="0 0 64 64" style="enable-background:new 0 0 512 512" xml:space="preserve" class=""><g><path fill="#ccd1d9" d="M50 26v21c0 .55-.45 1-1 1H15c-.55 0-1-.45-1-1v-9h-4v14c0 2.21 1.79 4 4 4h36c2.21 0 4-1.79 4-4V25.32c-1.25.44-2.6.68-4 .68z" opacity="1" data-original="#ccd1d9"></path><path fill="#aab2bd" d="M42 56v6H22v-6h18z" opacity="1" data-original="#aab2bd"></path><path fill="#fcd770" d="M36 52h12v4H36z" opacity="1" data-original="#fcd770"></path><path fill="#69d6f4" d="M15 18h34a1 1 0 0 1 1 1v28a1 1 0 0 1-1 1H15a1 1 0 0 1-1-1V19a1 1 0 0 1 1-1z" opacity="1" data-original="#69d6f4"></path><path fill="#ccd1d9" d="M38 14c0 1.4.24 2.75.68 4H31.2l-1.6-4z" opacity="1" data-original="#ccd1d9"></path><circle cx="50" cy="14" r="12" fill="#4fc1e9" opacity="1" data-original="#4fc1e9"></circle><path fill="#ff826e" d="M30 30h16v14H30v-6z" opacity="1" data-original="#ff826e"></path><path fill="#e6e9ed" d="m24 24-2-4-2 4h-6l-2-4-2 4H4v14h26V24z" opacity="1" data-original="#e6e9ed" class=""></path><path fill="#4fc1e9" d="M20 28h6v6h-6z" opacity="1" data-original="#4fc1e9"></path><path fill="#cf9e76" d="M16 28v10H8V28z" opacity="1" data-original="#cf9e76"></path><path fill="#ffeaa7" d="m20 10 2 10H12l2-10z" opacity="1" data-original="#ffeaa7"></path><path fill="#fcd770" d="m22 20-2 4h-6l-2-4z" opacity="1" data-original="#fcd770"></path><path fill="#ff826e" d="m31.2 18 .8 2H22l-2-10h8l1.6 4zM14 10l-2 10H2l4-10z" opacity="1" data-original="#ff826e"></path><path fill="#fc6e51" d="m32 20-2 4h-6l-2-4zM12 20l-2 4H4l-2-4z" opacity="1" data-original="#fc6e51"></path><path d="M63 14c0-7.168-5.832-13-13-13-6.83 0-12.435 5.299-12.949 12h-6.774l-1.6-4H5.323L.904 20.045 3 24.236V39h6v13c0 2.757 2.243 5 5 5h7v4h-4v2h30v-2h-4v-4h7c2.757 0 5-2.243 5-5V25.997c4.693-1.963 8-6.6 8-11.997zM15 37H9v-8h6zm0 2h14v6h18V29H31v-4.764l2.096-4.191L32.677 19h5.325c1.841 4.4 6.034 7.569 10.997 7.949V47H15zM4.618 23l-1-2h6.763l-1 2zm15.764-2-1 2h-4.764l-1-2zm-7.162-2 1.6-8h4.361l1.6 8zm16.162 4h-4.764l-1-2h6.763zM31 31h14v12H31v-5zM50 3c1.075 0 2.22 1.527 3.009 4H46.99c.79-2.473 1.935-4 3.01-4zm3.519 6c.244 1.209.408 2.553.46 4h-7.958a24.91 24.91 0 0 1 .46-4zm7.43 4h-4.971a27.425 27.425 0 0 0-.409-4h4.216a10.88 10.88 0 0 1 1.164 4zm-16.927 0h-4.971a10.9 10.9 0 0 1 1.164-4h4.216a27.288 27.288 0 0 0-.409 4zm0 2c.046 1.419.184 2.763.409 4h-4.216a10.92 10.92 0 0 1-1.164-4zm.873 6c.368 1.295.837 2.422 1.391 3.341A11.029 11.029 0 0 1 41.522 21zM50 25c-1.075 0-2.22-1.527-3.009-4h6.019c-.79 2.473-1.935 4-3.01 4zm-3.519-6a24.797 24.797 0 0 1-.46-4h7.958a24.91 24.91 0 0 1-.46 4zm9.497-4h4.971a10.9 10.9 0 0 1-1.164 4h-4.216c.225-1.237.364-2.581.409-4zm2.501-8h-3.373c-.368-1.295-.837-2.422-1.391-3.341A11.049 11.049 0 0 1 58.479 7zM46.286 3.659c-.554.919-1.023 2.046-1.391 3.341h-3.373a11.037 11.037 0 0 1 4.764-3.341zM37.051 15c.052.683.158 1.35.313 2h-5.486l-.8-2zm-6.528 4H22.82l-1.6-8h6.104zM6.677 11h6.104l-1.6 8H3.477zM5 25h5.618L12 22.236 13.382 25h7.236L22 22.236 23.382 25H29v12H17V27H7v10H5zm36 36H23v-4h18zm6-6h-2v-2h2zm-4 0h-2v-2h2zm-4 0h-2v-2h2zm14-3c0 1.654-1.346 3-3 3h-1v-4H35v4H14c-1.654 0-3-1.346-3-3V39h2v8c0 1.103.897 2 2 2h34c1.103 0 2-.897 2-2V26.949c.683-.052 1.35-.158 2-.313zm.714-27.659c.553-.919 1.023-2.046 1.391-3.341h3.373a11.037 11.037 0 0 1-4.764 3.341z" fill="#000000" opacity="1" data-original="#000000" class=""></path><path d="M27 27h-8v8h8zm-2 6h-4v-4h4zM42.707 33.707l-1.414-1.414L35 38.586l-1.293-1.293-1.414 1.414L35 41.414zM17 41h10v2H17zM33 25h8v2h-8z" fill="#000000" opacity="1" data-original="#000000" class=""></path></g></svg>