<svg xmlns="http://www.w3.org/2000/svg" version="1.1" xmlns:xlink="http://www.w3.org/1999/xlink" width="512" height="512" x="0" y="0" viewBox="0 0 73 73" style="enable-background:new 0 0 512 512" xml:space="preserve" class=""><g><path fill="#2d77fc" d="M27.957 23.62h18.676v24.867H27.957z" opacity="1" data-original="#2d77fc" class=""></path><path fill="#f7f8f8" d="m43.268 23.606-4.793 7.345-1.182 1.812-1.182-1.812-4.79-7.345z" opacity="1" data-original="#f7f8f8" class=""></path><path fill="#f24e66" d="m38.475 30.951-1.182 1.812-1.182-1.812.387-3.768.046-.472h1.497l.043.408z" opacity="1" data-original="#f24e66" class=""></path><path fill="#f24e66" d="m38.8 26.299-.9 1.028a.851.851 0 0 1-1.28 0l-.9-1.028a.851.851 0 0 1 .64-1.412h1.8a.851.851 0 0 1 .64 1.412z" opacity="1" data-original="#f24e66" class=""></path><path fill="#f9b29c" d="M39.96 19.745v3.87l-2.663 1.272-2.67-1.272v-3.87z" opacity="1" data-original="#f9b29c"></path><path fill="#ed8768" d="M39.96 19.745v2.037a5.124 5.124 0 0 1-2.523.66 5.126 5.126 0 0 1-2.81-.834v-1.863z" opacity="1" data-original="#ed8768" class=""></path><path fill="#e6e8e8" d="m41.53 23.618-2.087 2.819-2.148-1.55 2.667-2.323 1.53 1.05zM33.059 23.618l2.088 2.819 2.147-1.55-2.667-2.323-1.53 1.05z" opacity="1" data-original="#e6e8e8" class=""></path><path fill="#2d77fc" d="m55.481 25.157-8.848 10.794V23.618l3.593-3.209.766-9.092 4.758-.17 1.006 10.035a5.78 5.78 0 0 1-1.275 3.975z" opacity="1" data-original="#2d77fc" class=""></path><path fill="#125ac4" d="m47.695 34.654-1.062 1.297v-9.24z" opacity="1" data-original="#125ac4"></path><path fill="#f9b29c" d="m56.24 8.258-.472 3.058h-4.775l-1.21-2.14a.744.744 0 0 1 1.292-.738l.378.653.062-1.106a2.368 2.368 0 1 1 4.725.273z" opacity="1" data-original="#f9b29c"></path><path fill="#2d77fc" d="m19.109 25.157 8.848 10.794V23.618l-3.592-3.209-.767-9.092-4.758-.17-1.006 10.035a5.78 5.78 0 0 0 1.275 3.975z" opacity="1" data-original="#2d77fc" class=""></path><path fill="#125ac4" d="m26.895 34.654 1.062 1.297v-9.24z" opacity="1" data-original="#125ac4"></path><path fill="#f9b29c" d="m18.35 8.258.472 3.058h4.775l1.21-2.14a.744.744 0 0 0-1.292-.738l-.378.653-.062-1.106a2.368 2.368 0 1 0-4.725.273z" opacity="1" data-original="#f9b29c"></path><path fill="#29275c" d="m36.546 67.707.79-14.384.73 14.384h8.55l-.065-19.22H28.044l-.069 19.22z" opacity="1" data-original="#29275c"></path><ellipse cx="32.344" cy="15.371" fill="#f9b29c" rx="1.258" ry="1.468" opacity="1" data-original="#f9b29c"></ellipse><path fill="#ed8768" d="M31.911 15.848a.641.641 0 0 1-.234-.477.64.64 0 0 1 .234-.477.106.106 0 0 0-.14-.158.848.848 0 0 0-.306.635c0 .235.108.46.305.635.105.092.246-.065.141-.158z" opacity="1" data-original="#ed8768" class=""></path><ellipse cx="42.329" cy="15.371" fill="#f9b29c" rx="1.258" ry="1.468" opacity="1" data-original="#f9b29c"></ellipse><path fill="#ed8768" d="M42.762 15.848a.641.641 0 0 0 .234-.477.64.64 0 0 0-.233-.477.106.106 0 0 1 .14-.158c.197.174.305.4.305.635a.85.85 0 0 1-.305.635c-.106.093-.245-.066-.14-.158z" opacity="1" data-original="#ed8768" class=""></path><path fill="#f9b29c" d="M32.175 13.77v2.703a5.199 5.199 0 0 0 10.397 0V13.77a5.195 5.195 0 0 0-5.199-5.198 5.195 5.195 0 0 0-5.198 5.198z" opacity="1" data-original="#f9b29c"></path><path fill="#15144f" d="M38.956 15.022c0 .36.198.65.444.65.247 0 .45-.29.45-.65 0-.361-.203-.656-.45-.656-.246 0-.444.295-.444.656zM34.898 15.022c0 .36.198.65.445.65.246 0 .449-.29.449-.65 0-.361-.203-.656-.45-.656-.246 0-.444.295-.444.656z" opacity="1" data-original="#15144f" class=""></path><path fill="#ffffff" d="M39.188 17.827c0 .026.007.051.007.078a1.822 1.822 0 1 1-3.644 0c0-.027.007-.052.008-.078z" opacity="1" data-original="#ffffff"></path><path fill="#15144f" d="m32.098 14.71.076.061s.628.072.628 0c0-.07.164-1.197.164-1.197s1.122-1.567.321-3.005c.142.076 3.499 1.848 7.884.12 0 0 .61.503.418 1.874-.098.673.205 1.648.494 2.667h.49l.396-1.126s2.404-2.128.24-3.931c.032-.09.059-.174.076-.258a1.44 1.44 0 0 0 .04-.178c.01-.031.014-.063.018-.094.183-1.095 1.17-2.166.338-2.803 0 0-.004-.004-.009-.004-2.648-2.021-10.915-2.584-11.574 1.61 0 0-1.513.152-1.82 1.514-.316 1.362 1.82 4.75 1.82 4.75z" opacity="1" data-original="#15144f" class=""></path><path fill="#03c88b" d="M41.025 41.025a3.875 3.875 0 0 0-3.834 3.317l-2.806 19.302 5.436.21 6.467-18.157z" opacity="1" data-original="#03c88b"></path><path fill="#02b07e" d="m41.025 47.73-2.33 16.036 1.127.09 3.825-10.398z" opacity="1" data-original="#02b07e"></path><path fill="#03c88b" d="M41.025 41.025h17.342v24.867H41.025z" opacity="1" data-original="#03c88b"></path><path fill="#f9b29c" d="M52.36 37.15v3.87l-2.662 1.271-2.67-1.271v-3.87z" opacity="1" data-original="#f9b29c"></path><path fill="#ed8768" d="M52.36 37.15v2.037a5.124 5.124 0 0 1-2.521.659 5.126 5.126 0 0 1-2.811-.834V37.15z" opacity="1" data-original="#ed8768" class=""></path><path fill="#02b07e" d="m53.932 41.023-2.088 2.819-2.147-1.55 2.667-2.323 1.53 1.05zM45.46 41.023l2.088 2.819 2.148-1.55-2.667-2.323-1.53 1.05z" opacity="1" data-original="#02b07e"></path><ellipse cx="54.89" cy="32.855" fill="#f9b29c" rx="1.264" ry="1.475" opacity="1" data-original="#f9b29c"></ellipse><path fill="#ed8768" d="M55.325 33.334a.644.644 0 0 0 .235-.48.644.644 0 0 0-.234-.478.106.106 0 0 1 .14-.16.852.852 0 0 1 .307.639.854.854 0 0 1-.306.638c-.107.093-.247-.066-.142-.16z" opacity="1" data-original="#ed8768" class=""></path><ellipse cx="44.858" cy="32.855" fill="#f9b29c" rx="1.264" ry="1.475" opacity="1" data-original="#f9b29c"></ellipse><path fill="#ed8768" d="M44.432 33.484a.107.107 0 0 0-.01-.15.644.644 0 0 1-.235-.48c0-.174.084-.344.235-.478a.106.106 0 0 0-.14-.16.852.852 0 0 0-.307.639c0 .236.109.463.306.638.044.038.11.036.15-.009z" opacity="1" data-original="#ed8768" class=""></path><path fill="#f9b29c" d="M55.06 31.246v2.716a5.223 5.223 0 0 1-10.446 0v-2.716a5.22 5.22 0 0 1 5.223-5.223c1.443 0 2.748.583 3.694 1.53a5.203 5.203 0 0 1 1.529 3.693z" opacity="1" data-original="#f9b29c"></path><path fill="#15144f" d="M48.247 32.504c0 .362-.2.654-.447.654s-.45-.292-.45-.654c0-.363.203-.66.45-.66.248 0 .447.297.447.66zM52.324 32.504c0 .362-.2.654-.447.654s-.45-.292-.45-.654c0-.363.203-.66.45-.66.248 0 .447.297.447.66z" opacity="1" data-original="#15144f" class=""></path><path fill="#ffffff" d="M48.014 35.322c0 .027-.008.052-.008.079a1.83 1.83 0 1 0 3.662 0c0-.027-.007-.052-.008-.079z" opacity="1" data-original="#ffffff"></path><path fill="#15144f" d="m55.135 32.189-.072.063s-.634.073-.634 0c0-.072-.163-1.204-.163-1.204s-1.131-1.576-.317-3.024c0 0-3.43 1.9-7.93.125 0 0-.612.506-.416 1.884.096.675-.21 1.658-.5 2.68h-.488l-.399-1.13s-1.928-3.55.245-5.36c0 0-.77-2.898 2.471-3.93l.535 1.71s1.276-2.01 3.82-2.118c2.554-.117 2.001 2.2 2.001 2.2s1.621-.76 2.246.09c.616.852-.399 1.721-.399 1.721s.815.589 1.123 1.956c.317 1.367-1.123 4.337-1.123 4.337z" opacity="1" data-original="#15144f" class=""></path><path fill="#03c88b" d="m67.216 42.562-8.848 10.794V41.023l3.592-3.209.767-9.092 4.758-.17 1.005 10.035a5.78 5.78 0 0 1-1.274 3.975z" opacity="1" data-original="#03c88b"></path><path fill="#02b07e" d="m59.43 52.06-1.062 1.296v-9.24z" opacity="1" data-original="#02b07e"></path><path fill="#f9b29c" d="m67.974 25.663-.472 3.058h-4.774l-1.21-2.14a.744.744 0 0 1 1.292-.738l.378.653.062-1.106a2.368 2.368 0 1 1 4.725.273z" opacity="1" data-original="#f9b29c"></path><path fill="#393982" d="m58.292 67.707-.007-1.815H41.113l-.007 1.815z" opacity="1" data-original="#393982"></path><path fill="#f9b29c" d="M39.856 66.337a.682.682 0 0 1-.32.074.704.704 0 0 1-.587-.307l-.387-.58-.154 2.18h-5.041l1.02-4.061 5.435.213.394 1.701a.707.707 0 0 1-.36.78z" opacity="1" data-original="#f9b29c"></path><path fill="#15144f" d="M9.952 47.952c0 1.063 14.393 1.063 14.393 0-1.38-4.27 3.713-14.536-2.443-18.572-5.213-3.419-7.828.71-7.828.71s-1.36-.82-3.55 1.081c-3.14 2.728-.288 8.493-.288 8.493.477 1.857-.037 6.395-.284 8.288z" opacity="1" data-original="#15144f" class=""></path><path fill="#ff8e2e" d="M10.644 49.148h13.583v18.558H10.644z" opacity="1" data-original="#ff8e2e"></path><path fill="#f9b29c" d="m20.302 44.134.042 5.016h-5.81l-.042-5.016z" opacity="1" data-original="#f9b29c"></path><path fill="#ed8768" d="M20.344 44.134v3.02c-2.058.097-3.985-.395-5.81-1.38v-1.64z" opacity="1" data-original="#ed8768" class=""></path><path fill="#caf5fe" d="M23.364 49.157s-.494 3.875-2.442 4.52c-2.15.713-3.526-1.381-3.526-1.381l4.15-3.145z" opacity="1" data-original="#caf5fe"></path><path fill="#caf5fe" d="M11.506 49.157s.495 3.875 2.442 4.52c2.15.713 3.527-1.381 3.527-1.381l-4.15-3.145z" opacity="1" data-original="#caf5fe"></path><path fill="#f9b29c" d="M21.691 49.15a4.441 4.441 0 0 1-8.547 0z" opacity="1" data-original="#f9b29c"></path><ellipse cx="23.331" cy="39.064" fill="#f9b29c" rx="1.491" ry="1.739" opacity="1" data-original="#f9b29c"></ellipse><path fill="#ed8768" d="M23.845 39.629a.76.76 0 0 0 .277-.565.759.759 0 0 0-.277-.564.126.126 0 0 1 .166-.188c.234.206.362.473.362.752 0 .28-.128.546-.362.753-.125.11-.29-.078-.166-.188z" opacity="1" data-original="#ed8768" class=""></path><ellipse cx="11.504" cy="39.064" fill="#f9b29c" rx="1.491" ry="1.739" opacity="1" data-original="#f9b29c"></ellipse><path fill="#ed8768" d="M10.99 39.629a.76.76 0 0 1-.277-.565c0-.206.099-.406.277-.564a.126.126 0 0 0-.165-.188 1.004 1.004 0 0 0-.363.752c0 .28.129.546.362.753.125.11.291-.077.167-.188z" opacity="1" data-original="#ed8768" class=""></path><path fill="#f9b29c" d="M23.575 35.603v4.77c0 3.4-2.758 6.157-6.157 6.157a6.154 6.154 0 0 1-6.158-6.157v-4.77a6.155 6.155 0 0 1 6.158-6.157c3.399 0 6.157 2.758 6.157 6.157z" opacity="1" data-original="#f9b29c"></path><path fill="#15144f" d="M15.542 38.65c0 .428-.235.772-.526.772s-.532-.344-.532-.772.24-.776.532-.776.526.349.526.776zM20.349 38.65c0 .428-.235.772-.527.772-.292 0-.531-.344-.531-.772s.24-.776.531-.776c.292 0 .527.349.527.776z" opacity="1" data-original="#15144f" class=""></path><path fill="#ffffff" d="M15.268 41.974c-.002.031-.01.06-.01.092a2.158 2.158 0 1 0 4.317 0c0-.032-.008-.061-.01-.092z" opacity="1" data-original="#ffffff"></path><path fill="#15144f" d="m23.864 35.457-.273 1.912c0 2.012-.954 3.223-.954 3.223s-.264-1.9-1.387-3.864c-1.122-1.965-4.81-3.215-6.453-3.8a2.166 2.166 0 0 1-.842-.522c-.16 2.06-2.581 7.649-2.678 7.472l-.07-4.271c0-3.453 2.607-6.32 6.143-6.32 1.7 0 3.24.69 4.354 1.804 1.114 1.114 2.16 2.667 2.16 4.366z" opacity="1" data-original="#15144f" class=""></path><path fill="#ff8e2e" d="M30.384 67.707V54.873a5.725 5.725 0 0 0-5.725-5.725h-.432v18.559h6.157z" opacity="1" data-original="#ff8e2e"></path><path fill="#f67112" d="M24.433 58.686h.486v9.021h-.486z" opacity="1" data-original="#f67112"></path><path fill="#ff8e2e" d="M10.657 67.707V49.148h-.432A5.725 5.725 0 0 0 4.5 54.873v12.834z" opacity="1" data-original="#ff8e2e"></path><path fill="#f67112" d="M9.465 58.686h.486v9.021h-.486z" opacity="1" data-original="#f67112"></path></g></svg>