<svg xmlns="http://www.w3.org/2000/svg" version="1.1" xmlns:xlink="http://www.w3.org/1999/xlink" width="128" height="128" x="0" y="0" viewBox="0 0 682.667 682.667" style="enable-background:new 0 0 512 512" xml:space="preserve" class=""><g><defs><clipPath id="a" clipPathUnits="userSpaceOnUse"><path d="M0 512h512V0H0Z" fill="#000000" opacity="1" data-original="#000000"></path></clipPath></defs><g clip-path="url(#a)" transform="matrix(1.33333 0 0 -1.33333 0 682.667)"><path d="m0 0-23.812-67.751a194.396 194.396 0 0 0 36.852-8.307A195.568 195.568 0 0 0 47.623-91.28l23.812 67.752z" style="fill-opacity:1;fill-rule:evenodd;stroke:none" transform="translate(354.526 455.905)" fill="#eff6ff" data-original="#eff6ff"></path><path d="m0 0-8.816-26.761c-1.9-5.783 1.247-12.076 7.03-13.975l16.951-5.557 71.407-23.528 16.923-5.585c5.783-1.9 12.076 1.275 13.976 7.058l8.815 26.761c1.9 5.783-1.275 12.076-7.058 13.976L13.975 7.059C8.192 8.957 1.898 5.782 0 0" style="fill-opacity:1;fill-rule:evenodd;stroke:none" transform="translate(334.57 492.135)" fill="#375e7d" data-original="#375e7d"></path><path d="M0 0c5.783-1.899 12.076 1.275 13.976 7.059l8.815 26.76c1.899 5.784-1.275 12.077-7.059 13.976l-26.079 8.59c5.784-1.9 8.958-8.194 7.059-13.976l-8.816-26.761c-1.9-5.783-8.193-8.958-13.975-7.058h.057l9.099-3.005z" style="fill-opacity:1;fill-rule:evenodd;stroke:none" transform="translate(438.065 416.728)" fill="#2b4d66" data-original="#2b4d66"></path><path d="M0 0c101.795-33.507 211.471 21.828 244.977 123.597 29.509 89.551-9.808 185.225-89.01 229.76a195.508 195.508 0 0 1-34.584 15.223 194.47 194.47 0 0 1-36.852 8.306c-42.945 5.358-85.495-3.997-121.496-24.947-39.544-23.017-71.18-60.068-86.6-106.956C-157.1 143.214-101.767 33.508 0 0" style="fill-opacity:1;fill-rule:evenodd;stroke:none" transform="translate(249.727 22.04)" fill="#375e7d" data-original="#375e7d"></path><path d="M0 0c-79.315 26.137-164.782-17.009-190.918-96.327-26.108-79.318 17.008-164.786 96.323-190.895 79.316-26.136 164.783 16.981 190.919 96.298l.085.283C122.347-111.408 79.23-26.081 0 0" style="fill-opacity:1;fill-rule:evenodd;stroke:none" transform="translate(357.73 349.941)" fill="#eff6ff" data-original="#eff6ff"></path><path d="m0 0-39.402-119.629c-4.565-13.834 4.223-26.874 15.902-31.522l119.909-39.49C122.347-111.408 79.23-26.081 0 0" style="fill-opacity:1;fill-rule:evenodd;stroke:none" transform="translate(357.73 349.941)" fill="#eb5468" data-original="#eb5468"></path><path d="M0 0c-13.097 4.309-27.214-2.807-31.522-15.903C-35.831-29-28.716-43.117-15.619-47.426c13.096-4.309 27.213 2.806 31.521 15.904C20.211-18.426 13.097-4.309 0 0" style="fill-opacity:1;fill-rule:evenodd;stroke:none" transform="translate(318.327 230.313)" fill="#ffd772" data-original="#ffd772"></path><path d="M0 0c22.734 69.452-7.598 143.583-68.771 178.394 10.744-32.062 16.668-67.327 16.668-104.349 0-18.993-1.558-37.532-4.535-55.392z" style="fill-opacity:1;fill-rule:evenodd;stroke:none" transform="translate(454.139 159.3)" fill="#e5384f" data-original="#e5384f"></path><path d="M0 0c29.51 89.552-9.808 185.226-89.01 229.761a191.107 191.107 0 0 1-25.031 11.793 212.754 212.754 0 0 1-9.553 3.429 187.873 187.873 0 0 1-11.424 3.374c10.262-17.236 18.936-36.144 25.683-56.299C-48.162 157.247-17.83 83.116-40.564 13.664a3.217 3.217 0 0 1-.085-.283C-56.893-35.888-96.012-71.182-142.331-84.59c-12.444-18.653-26.845-35.095-42.833-48.787C-103.325-133.773-26.986-81.953 0 0" style="fill-opacity:1;fill-rule:evenodd;stroke:none" transform="translate(494.703 145.637)" fill="#2b4d66" data-original="#2b4d66"></path><path d="M0 0c46.319 13.408 85.438 48.702 101.682 97.971l.085.283-56.638 18.653c-5.273-31.721-14.968-61.345-28.234-87.794C11.764 18.908 6.123 9.185 0 0" style="fill-opacity:1;fill-rule:evenodd;stroke:none" transform="translate(352.372 61.047)" fill="#d9eeff" data-original="#d9eeff"></path><path d="m0 0 15.449 46.916-9.156 3.005-16.924 5.584-14.4-43.712C-16.3 8.419-7.937 4.479 0 0" style="fill-opacity:1;fill-rule:evenodd;stroke:none" transform="translate(405.693 375.397)" fill="#d9eeff" data-original="#d9eeff"></path><path d="m0 0 8.079 24.521" style="stroke-width:15;stroke-linecap:round;stroke-linejoin:round;stroke-miterlimit:10;stroke-dasharray:none;stroke-opacity:1" transform="translate(263.305 63.23)" fill="none" stroke="#000000" stroke-width="15" stroke-linecap="round" stroke-linejoin="round" stroke-miterlimit="10" stroke-dasharray="none" stroke-opacity="" data-original="#000000"></path><path d="m0 0 24.492-8.08" style="stroke-width:15;stroke-linecap:round;stroke-linejoin:round;stroke-miterlimit:10;stroke-dasharray:none;stroke-opacity:1" transform="translate(167.18 253.814)" fill="none" stroke="#000000" stroke-width="15" stroke-linecap="round" stroke-linejoin="round" stroke-miterlimit="10" stroke-dasharray="none" stroke-opacity="" data-original="#000000"></path><path d="m0 0 11.651-23.047" style="stroke-width:15;stroke-linecap:round;stroke-linejoin:round;stroke-miterlimit:10;stroke-dasharray:none;stroke-opacity:1" transform="translate(242.526 341.352)" fill="none" stroke="#000000" stroke-width="15" stroke-linecap="round" stroke-linejoin="round" stroke-miterlimit="10" stroke-dasharray="none" stroke-opacity="" data-original="#000000"></path><path d="m0 0-11.622 23.047" style="stroke-width:15;stroke-linecap:round;stroke-linejoin:round;stroke-miterlimit:10;stroke-dasharray:none;stroke-opacity:1" transform="translate(378.508 71.848)" fill="none" stroke="#000000" stroke-width="15" stroke-linecap="round" stroke-linejoin="round" stroke-miterlimit="10" stroke-dasharray="none" stroke-opacity="" data-original="#000000"></path><path d="m0 0 23.047 11.623" style="stroke-width:15;stroke-linecap:round;stroke-linejoin:round;stroke-miterlimit:10;stroke-dasharray:none;stroke-opacity:1" transform="translate(175.769 138.606)" fill="none" stroke="#000000" stroke-width="15" stroke-linecap="round" stroke-linejoin="round" stroke-miterlimit="10" stroke-dasharray="none" stroke-opacity="" data-original="#000000"></path><path d="M0 0c28.433 3.94 58.141 1.616 87.225-7.966C189.02-41.501 244.354-151.18 210.818-252.949 177.312-354.718 67.637-410.053-34.158-376.546c-101.767 33.508-157.1 143.214-123.566 244.984C-137.71-70.757-90.484-26.533-34.017-7.909" style="stroke-width:15;stroke-linecap:round;stroke-linejoin:round;stroke-miterlimit:10;stroke-dasharray:none;stroke-opacity:1" transform="translate(283.885 398.586)" fill="none" stroke="#000000" stroke-width="15" stroke-linecap="round" stroke-linejoin="round" stroke-miterlimit="10" stroke-dasharray="none" stroke-opacity="" data-original="#000000"></path><path d="m0 0 15.478 46.916m71.407-23.528L71.436-23.528" style="stroke-width:15;stroke-linecap:round;stroke-linejoin:round;stroke-miterlimit:10;stroke-dasharray:none;stroke-opacity:1" transform="translate(334.258 398.926)" fill="none" stroke="#000000" stroke-width="15" stroke-linecap="round" stroke-linejoin="round" stroke-miterlimit="10" stroke-dasharray="none" stroke-opacity="" data-original="#000000"></path><path d="m0 0-37.333 12.304c-5.782 1.898-12.076-1.277-13.975-7.059l-8.816-26.761c-1.899-5.783 1.247-12.076 7.03-13.975l105.282-34.67c5.783-1.9 12.076 1.275 13.975 7.058l8.816 26.761c1.899 5.783-1.276 12.076-7.059 13.976L32.004-10.545" style="stroke-width:15;stroke-linecap:round;stroke-linejoin:round;stroke-miterlimit:10;stroke-dasharray:none;stroke-opacity:1" transform="translate(385.878 486.89)" fill="none" stroke="#000000" stroke-width="15" stroke-linecap="round" stroke-linejoin="round" stroke-miterlimit="10" stroke-dasharray="none" stroke-opacity="" data-original="#000000"></path><path d="M0 0h-93.263m205.262 0H49.976" style="stroke-width:15;stroke-linecap:round;stroke-linejoin:round;stroke-miterlimit:10;stroke-dasharray:none;stroke-opacity:1" transform="translate(100.763 373.98)" fill="none" stroke="#000000" stroke-width="15" stroke-linecap="round" stroke-linejoin="round" stroke-miterlimit="10" stroke-dasharray="none" stroke-opacity="" data-original="#000000"></path><path d="M0 0h-70.5" style="stroke-width:15;stroke-linecap:round;stroke-linejoin:round;stroke-miterlimit:10;stroke-dasharray:none;stroke-opacity:1" transform="translate(107.991 321.48)" fill="none" stroke="#000000" stroke-width="15" stroke-linecap="round" stroke-linejoin="round" stroke-miterlimit="10" stroke-dasharray="none" stroke-opacity="" data-original="#000000"></path><path d="M0 0h-52.754" style="stroke-width:15;stroke-linecap:round;stroke-linejoin:round;stroke-miterlimit:10;stroke-dasharray:none;stroke-opacity:1" transform="translate(60.254 216.507)" fill="none" stroke="#000000" stroke-width="15" stroke-linecap="round" stroke-linejoin="round" stroke-miterlimit="10" stroke-dasharray="none" stroke-opacity="" data-original="#000000"></path><path d="M0 0h-86.487" style="stroke-width:15;stroke-linecap:round;stroke-linejoin:round;stroke-miterlimit:10;stroke-dasharray:none;stroke-opacity:1" transform="translate(118.225 164.007)" fill="none" stroke="#000000" stroke-width="15" stroke-linecap="round" stroke-linejoin="round" stroke-miterlimit="10" stroke-dasharray="none" stroke-opacity="" data-original="#000000"></path><path d="M0 0h-36.737" style="stroke-width:15;stroke-linecap:round;stroke-linejoin:round;stroke-miterlimit:10;stroke-dasharray:none;stroke-opacity:1" transform="translate(90.245 111.506)" fill="none" stroke="#000000" stroke-width="15" stroke-linecap="round" stroke-linejoin="round" stroke-miterlimit="10" stroke-dasharray="none" stroke-opacity="" data-original="#000000"></path><path d="M0 0h-80.817" style="stroke-width:15;stroke-linecap:round;stroke-linejoin:round;stroke-miterlimit:10;stroke-dasharray:none;stroke-opacity:1" transform="translate(178.575 59.006)" fill="none" stroke="#000000" stroke-width="15" stroke-linecap="round" stroke-linejoin="round" stroke-miterlimit="10" stroke-dasharray="none" stroke-opacity="" data-original="#000000"></path><path d="m0 0-119.909 39.489" style="stroke-width:15;stroke-linecap:round;stroke-linejoin:round;stroke-miterlimit:10;stroke-dasharray:none;stroke-opacity:1" transform="translate(454.139 159.3)" fill="none" stroke="#000000" stroke-width="15" stroke-linecap="round" stroke-linejoin="round" stroke-miterlimit="10" stroke-dasharray="none" stroke-opacity="" data-original="#000000"></path><path d="m0 0-39.402-119.629" style="stroke-width:15;stroke-linecap:round;stroke-linejoin:round;stroke-miterlimit:10;stroke-dasharray:none;stroke-opacity:1" transform="translate(357.73 349.941)" fill="none" stroke="#000000" stroke-width="15" stroke-linecap="round" stroke-linejoin="round" stroke-miterlimit="10" stroke-dasharray="none" stroke-opacity="" data-original="#000000"></path><path d="m0 0 54.455-49.638" style="stroke-width:15;stroke-linecap:round;stroke-linejoin:round;stroke-miterlimit:10;stroke-dasharray:none;stroke-opacity:1" transform="translate(235.61 272.38)" fill="none" stroke="#000000" stroke-width="15" stroke-linecap="round" stroke-linejoin="round" stroke-miterlimit="10" stroke-dasharray="none" stroke-opacity="" data-original="#000000"></path><path d="m0 0 3.288-28.149" style="stroke-width:15;stroke-linecap:round;stroke-linejoin:round;stroke-miterlimit:10;stroke-dasharray:none;stroke-opacity:1" transform="translate(313.621 181.554)" fill="none" stroke="#000000" stroke-width="15" stroke-linecap="round" stroke-linejoin="round" stroke-miterlimit="10" stroke-dasharray="none" stroke-opacity="" data-original="#000000"></path><path d="M0 0h-58.281" style="stroke-width:15;stroke-linecap:round;stroke-linejoin:round;stroke-miterlimit:10;stroke-dasharray:none;stroke-opacity:1" transform="translate(127.38 268.98)" fill="none" stroke="#000000" stroke-width="15" stroke-linecap="round" stroke-linejoin="round" stroke-miterlimit="10" stroke-dasharray="none" stroke-opacity="" data-original="#000000"></path><path d="M0 0c4.309 13.097-2.806 27.214-15.902 31.522a24.985 24.985 0 0 1-19.815-1.814c12.104-4.876 18.511-18.397 14.372-30.984a25.013 25.013 0 0 0-11.708-14.089 33.27 33.27 0 0 1 1.532-.538C-18.426-20.213-4.309-13.098 0 0" style="fill-opacity:1;fill-rule:evenodd;stroke:none" transform="translate(334.23 198.79)" fill="#fbba58" data-original="#fbba58"></path><path d="M0 0c13.097-4.309 20.211-18.426 15.902-31.522C11.594-44.62-2.523-51.735-15.619-47.426-28.716-43.117-35.831-29-31.522-15.903-27.214-2.807-13.097 4.309 0 0Z" style="stroke-width:15;stroke-linecap:round;stroke-linejoin:round;stroke-miterlimit:10;stroke-dasharray:none;stroke-opacity:1" transform="translate(318.327 230.313)" fill="none" stroke="#000000" stroke-width="15" stroke-linecap="round" stroke-linejoin="round" stroke-miterlimit="10" stroke-dasharray="none" stroke-opacity="" data-original="#000000"></path><path d="M0 0c-79.315 26.137-164.782-17.009-190.918-96.327-26.108-79.318 17.008-164.786 96.323-190.895 79.316-26.136 164.783 16.981 190.919 96.298l.085.283C122.347-111.408 79.23-26.081 0 0Z" style="stroke-width:15;stroke-linecap:round;stroke-linejoin:round;stroke-miterlimit:10;stroke-dasharray:none;stroke-opacity:1" transform="translate(357.73 349.941)" fill="none" stroke="#000000" stroke-width="15" stroke-linecap="round" stroke-linejoin="round" stroke-miterlimit="10" stroke-dasharray="none" stroke-opacity="" data-original="#000000"></path></g></g></svg>