<svg xmlns="http://www.w3.org/2000/svg" version="1.1" xmlns:xlink="http://www.w3.org/1999/xlink" width="128" height="128" x="0" y="0" viewBox="0 0 512 512" style="enable-background:new 0 0 512 512" xml:space="preserve" class=""><g><path fill="#eae8e8" d="M436.5 281.75V80.923a29.7 29.7 0 0 0-29.656-29.685h-43.11V32.4c0-10.368-10.8-18.488-24.582-18.488s-24.61 8.12-24.61 18.488v18.838h-65.183V32.4c0-10.368-10.81-18.488-24.61-18.488-13.784 0-24.582 8.12-24.582 18.488v18.838h-65.211V32.4c0-10.368-10.8-18.488-24.582-18.488-13.8 0-24.61 8.12-24.61 18.488v18.838H42.685A29.718 29.718 0 0 0 13 80.923v347.915a29.718 29.718 0 0 0 29.685 29.684h255.408A114.388 114.388 0 1 0 436.5 281.75zM216.167 32.706c.66-.924 3.718-2.8 8.582-2.8s7.942 1.878 8.61 2.806v18.526h-17.192zm-114.4.007c.668-.928 3.738-2.806 8.61-2.806s7.922 1.874 8.582 2.8v18.531h-17.195zm228.778 0c.668-.928 3.738-2.806 8.61-2.806s7.922 1.875 8.582 2.8v18.531h-17.195z" opacity="1" data-original="#eae8e8" class=""></path><path fill="#484868" d="M384.562 269.273A114.41 114.41 0 1 0 499 383.683a114.541 114.541 0 0 0-114.438-114.41z" opacity="1" data-original="#484868" class=""></path><path fill="#3d3d54" d="M384.562 269.273c-1.507 0-3 .039-4.5.1a114.4 114.4 0 0 1 0 228.626c1.494.058 2.992.1 4.5.1a114.41 114.41 0 1 0 0-228.82z" opacity="1" data-original="#3d3d54"></path><path fill="#d3e8f2" d="M384.561 291.569a92.114 92.114 0 1 0 92.144 92.114 92.218 92.218 0 0 0-92.144-92.114z" opacity="1" data-original="#d3e8f2" class=""></path><path fill="#c3dfea" d="M299.447 383.683a92.222 92.222 0 0 1 88.615-92.041 94.572 94.572 0 0 0-3.5-.073 92.114 92.114 0 1 0 0 184.228c1.172 0 2.338-.029 3.5-.073a92.223 92.223 0 0 1-88.615-92.041z" opacity="1" data-original="#c3dfea" class=""></path><g fill="#484868"><path d="M436.435 375.683H401.8a19.111 19.111 0 0 0-9.21-9.225v-46.242a8 8 0 0 0-16 0v46.22a19.01 19.01 0 1 0 25.21 25.247h34.634a8 8 0 0 0 0-16z" fill="#484868" opacity="1" data-original="#484868" class=""></path><rect width="53.104" height="48.768" x="71.732" y="261.988" rx="8" fill="#484868" opacity="1" data-original="#484868" class=""></rect><rect width="53.104" height="48.739" x="240.361" y="181.855" rx="8" fill="#484868" opacity="1" data-original="#484868" class=""></rect><rect width="53.104" height="48.739" x="324.689" y="181.855" rx="8" fill="#484868" opacity="1" data-original="#484868" class=""></rect><rect width="53.104" height="48.739" x="71.732" y="342.15" rx="8" fill="#484868" opacity="1" data-original="#484868" class=""></rect><rect width="53.133" height="48.768" x="156.032" y="261.988" rx="8" fill="#484868" opacity="1" data-original="#484868" class=""></rect><rect width="53.104" height="48.739" x="71.732" y="181.855" rx="8" fill="#484868" opacity="1" data-original="#484868" class=""></rect><rect width="53.133" height="48.739" x="156.032" y="181.855" rx="8" fill="#484868" opacity="1" data-original="#484868" class=""></rect><rect width="53.104" height="48.768" x="240.361" y="261.988" rx="8" fill="#484868" opacity="1" data-original="#484868" class=""></rect><rect width="53.133" height="48.739" x="156.032" y="342.15" rx="8" fill="#484868" opacity="1" data-original="#484868" class=""></rect></g><path fill="#3d3d54" d="M116.837 181.855h-12a8 8 0 0 1 8 8V222.6a8 8 0 0 1-8 8h12a8 8 0 0 0 8-8v-32.74a8 8 0 0 0-8-8.005zM201.165 342.15h-12a8 8 0 0 1 8 8v32.74a8 8 0 0 1-8 8h12a8 8 0 0 0 8-8v-32.74a8 8 0 0 0-8-8zM116.837 342.15h-12a8 8 0 0 1 8 8v32.74a8 8 0 0 1-8 8h12a8 8 0 0 0 8-8v-32.74a8 8 0 0 0-8-8zM116.837 261.988h-12a8 8 0 0 1 8 8v32.768a8 8 0 0 1-8 8h12a8 8 0 0 0 8-8v-32.768a8 8 0 0 0-8-8zM285.466 261.988h-12a8 8 0 0 1 8 8v32.768a8 8 0 0 1-8 8h12a8 8 0 0 0 8-8v-32.768a8 8 0 0 0-8-8zM201.165 261.988h-12a8 8 0 0 1 8 8v32.768a8 8 0 0 1-8 8h12a8 8 0 0 0 8-8v-32.768a8 8 0 0 0-8-8zM369.794 181.855h-12a8 8 0 0 1 8 8V222.6a8 8 0 0 1-8 8h12a8 8 0 0 0 8-8v-32.74a8 8 0 0 0-8-8.005zM285.466 181.855h-12a8 8 0 0 1 8 8V222.6a8 8 0 0 1-8 8h12a8 8 0 0 0 8-8v-32.74a8 8 0 0 0-8-8.005zM201.165 181.855h-12a8 8 0 0 1 8 8V222.6a8 8 0 0 1-8 8h12a8 8 0 0 0 8-8v-32.74a8 8 0 0 0-8-8.005z" opacity="1" data-original="#3d3d54"></path><path fill="#d1c9c9" d="M283.441 437.149H42.685A29.7 29.7 0 0 1 13 407.493v21.345a29.718 29.718 0 0 0 29.685 29.684h255.408a114.793 114.793 0 0 1-14.652-21.373z" opacity="1" data-original="#d1c9c9" class=""></path><path fill="#d22e2e" d="M384.562 364.656a19.027 19.027 0 1 0 19.027 19.027 19.034 19.034 0 0 0-19.027-19.027zM406.842 51.238h-76.3v28.114c.675.922 3.747 2.783 8.61 2.783a8 8 0 0 1 0 16c-13.8 0-24.61-8.109-24.61-18.459V51.238h-98.375v28.121c.667.918 3.727 2.776 8.582 2.776a8 8 0 0 1 0 16c-13.784 0-24.582-8.109-24.582-18.459V51.238h-98.4v28.114c.674.922 3.747 2.783 8.61 2.783a8 8 0 0 1 0 16c-13.8 0-24.61-8.109-24.61-18.459V51.238H42.685A29.718 29.718 0 0 0 13 80.923v62.905h423.5v-62.9a29.7 29.7 0 0 0-29.658-29.69z" opacity="1" data-original="#d22e2e" class=""></path><path fill="#484868" d="M339.152 82.135c-4.863 0-7.935-1.861-8.61-2.783V32.713c.668-.928 3.738-2.806 8.61-2.806s7.922 1.875 8.582 2.8v18.531h16V32.4c0-10.368-10.8-18.488-24.582-18.488s-24.61 8.12-24.61 18.488v47.276c0 10.35 10.811 18.459 24.61 18.459a8 8 0 0 0 0-16zM110.374 82.135c-4.863 0-7.936-1.861-8.61-2.783V32.713c.668-.928 3.738-2.806 8.61-2.806s7.922 1.874 8.582 2.8v18.531h16V32.4c0-10.368-10.8-18.488-24.582-18.488-13.8 0-24.61 8.12-24.61 18.488v47.276c0 10.35 10.81 18.459 24.61 18.459a8 8 0 0 0 0-16zM224.749 82.135c-4.855 0-7.915-1.858-8.582-2.776V32.706c.66-.924 3.718-2.8 8.582-2.8s7.942 1.878 8.61 2.806v18.526h16V32.4c0-10.368-10.81-18.488-24.61-18.488-13.784 0-24.582 8.12-24.582 18.488v47.276c0 10.35 10.8 18.459 24.582 18.459a8 8 0 0 0 0-16z" opacity="1" data-original="#484868" class=""></path><path fill="#ad1e1e" d="M110.36 75.136a14.915 14.915 0 0 0-8.6 2.719v1.5c.674.922 3.747 2.783 8.61 2.783a8 8 0 0 1 0 16 30.737 30.737 0 0 1-14.259-3.328 14.995 14.995 0 1 0 14.249-19.674zM339.138 75.136a14.92 14.92 0 0 0-8.6 2.719v1.5c.675.922 3.747 2.783 8.61 2.783a8 8 0 0 1 0 16 30.737 30.737 0 0 1-14.259-3.328 15 15 0 1 0 14.245-19.671zM224.763 75.136a14.918 14.918 0 0 0-8.6 2.719v1.5c.667.918 3.727 2.776 8.582 2.776a8 8 0 0 1 0 16 30.681 30.681 0 0 1-14.228-3.32 15 15 0 1 0 14.242-19.679z" opacity="1" data-original="#ad1e1e"></path><path fill="#d1c9c9" d="M13 143.828h423.498v12.492H13z" opacity="1" data-original="#d1c9c9" class=""></path></g></svg>