<svg xmlns="http://www.w3.org/2000/svg" version="1.1" xmlns:xlink="http://www.w3.org/1999/xlink" width="64" height="64" x="0" y="0" viewBox="0 0 512 512" style="enable-background:new 0 0 512 512" xml:space="preserve" class=""><g><g data-name="11 time"><path fill="#f0eff2" d="M8 40v288l80 80h320a32 32 0 0 0 32-32V40z" opacity="1" data-original="#f0eff2" class=""></path><path fill="#e1dfe5" d="M8 40v288l32 32V40z" opacity="1" data-original="#e1dfe5" class=""></path><path fill="#f9d55d" d="M8 40h432v88H8z" opacity="1" data-original="#f9d55d"></path><path fill="#f7c75c" d="M8 40h32v88H8z" opacity="1" data-original="#f7c75c"></path><g fill="#c3c0cb"><path d="M96 184h64v64H96zM192 184h64v64h-64zM96 288h64v64H96zM192 288h64v64h-64zM288 184h64v64h-64zM288 288h64v64h-64z" fill="#c3c0cb" opacity="1" data-original="#c3c0cb"></path></g><path fill="#d2d0d8" d="M88 328H8l80 80z" opacity="1" data-original="#d2d0d8"></path><path fill="#806dad" d="M208 8h32v72h-32zM304 8h32v72h-32zM112 8h32v72h-32z" opacity="1" data-original="#806dad"></path><path fill="#e1dfe5" d="M384 272h32v32h-32z" opacity="1" data-original="#e1dfe5" class=""></path><path fill="#f8d04b" d="M368 248h64v24h-64z" opacity="1" data-original="#f8d04b"></path><path fill="#f6c14a" d="M368 248h24v24h-24z" opacity="1" data-original="#f6c14a"></path><circle cx="400" cy="400" r="104" fill="#5bb096" opacity="1" data-original="#5bb096"></circle><circle cx="400" cy="400" r="72" fill="#d2d0d8" opacity="1" data-original="#d2d0d8"></circle><circle cx="400" cy="400" r="56" fill="#f0eff2" opacity="1" data-original="#f0eff2" class=""></circle><path d="M266 400H96v-72a8 8 0 0 0-8-8H16V136h48.5a8 8 0 0 0 0-16H16V48h88v32a8 8 0 0 0 8 8h32a8 8 0 0 0 8-8V48h48v32a8 8 0 0 0 8 8h32a8 8 0 0 0 8-8V48h48v32a8 8 0 0 0 8 8h32a8 8 0 0 0 8-8V48h88v72H120a8 8 0 0 0 0 16h312v92a8 8 0 0 0 16 0V40a8 8 0 0 0-8-8h-96V8a8 8 0 0 0-8-8h-32a8 8 0 0 0-8 8v24h-48V8a8 8 0 0 0-8-8h-32a8 8 0 0 0-8 8v24h-48V8a8 8 0 0 0-8-8h-32a8 8 0 0 0-8 8v24H8a8 8 0 0 0-8 8v288a8.09 8.09 0 0 0 2.34 5.66l80 80A8.09 8.09 0 0 0 88 416h178a8 8 0 0 0 0-16zm46-384h16v56h-16zm-96 0h16v56h-16zm-96 0h16v56h-16zM80 388.69 27.31 336H80z" fill="#000000" opacity="1" data-original="#000000"></path><path d="M105 128a8 8 0 0 0-8-8h-9.5a8 8 0 1 0 0 16H97a8 8 0 0 0 8-8zM168 184a8 8 0 0 0-8-8H96a8 8 0 0 0-8 8v64a8 8 0 0 0 8 8h64a8 8 0 0 0 8-8zm-16 56h-48v-48h48zM264 184a8 8 0 0 0-8-8h-64a8 8 0 0 0-8 8v64a8 8 0 0 0 8 8h64a8 8 0 0 0 8-8zm-16 56h-48v-48h48zM112 344a8 8 0 0 0 0 16h48a8 8 0 0 0 8-8v-64a8 8 0 0 0-8-8H96a8 8 0 0 0-8 8v16a8 8 0 0 0 16 0v-8h48v48zM256 280h-64a8 8 0 0 0-8 8v64a8 8 0 0 0 8 8h64a8 8 0 0 0 8-8v-64a8 8 0 0 0-8-8zm-8 64h-48v-48h48zM352 176h-64a8 8 0 0 0-8 8v64a8 8 0 0 0 8 8h64a8 8 0 0 0 8-8v-64a8 8 0 0 0-8-8zm-8 64h-48v-48h48zM296 344v-48h48a8 8 0 0 0 0-16h-56a8 8 0 0 0-8 8v56a8 8 0 0 0 16 0z" fill="#000000" opacity="1" data-original="#000000"></path><path d="M424 290.6V280h8a8 8 0 0 0 8-8v-24a8 8 0 0 0-8-8h-64a8 8 0 0 0-8 8v24a8 8 0 0 0 8 8h8v10.6a112 112 0 1 0 48 0zM376 256h48v8h-48zm16 24h16v8.29c-2.64-.19-5.31-.29-8-.29s-5.36.1-8 .29zm8 216a96 96 0 1 1 96-96 96.11 96.11 0 0 1-96 96z" fill="#000000" opacity="1" data-original="#000000"></path><path d="M400 320a80 80 0 1 0 80 80 80.09 80.09 0 0 0-80-80zm8 143.48V456a8 8 0 0 0-16 0v7.48A64.16 64.16 0 0 1 338 416h6a8 8 0 0 0 0-16h-8a64.08 64.08 0 0 1 56-63.48V344a8 8 0 0 0 16 0v-7.48A64.08 64.08 0 0 1 464 400h-8a8 8 0 0 0 0 16h6a64.16 64.16 0 0 1-54 47.48z" fill="#000000" opacity="1" data-original="#000000"></path><path d="M419.56 385.34 401 397.71l-27.36-27.36a8 8 0 0 0-11.31 11.31l32 32a8 8 0 0 0 10.09 1l24-16a8 8 0 1 0-8.87-13.31z" fill="#000000" opacity="1" data-original="#000000"></path></g></g></svg>