<svg xmlns="http://www.w3.org/2000/svg" version="1.1" xmlns:xlink="http://www.w3.org/1999/xlink" width="62" height="62" x="0" y="0" viewBox="0 0 512 512" style="enable-background:new 0 0 512 512" xml:space="preserve" class=""><g><g fill-rule="evenodd" clip-rule="evenodd"><path fill="#fedfc5" d="m281.985 295.371 57.008-45.353c-17.288-16.255-62.376-23.813-85.199-17.316-57.207 16.288-87.452 17.731-140.158-7.111L52.241 366.254c51.44-8.366 88.94 34.619 104.117 50.17l77.248 79.155c7.088 7.263 18.933 7.18 26.113 0 7.179-7.179 7.181-18.93 0-26.112l10.448 10.448c8.803 8.802 23.207 8.802 32.01-.001 8.801-8.801 8.802-23.206-.001-32.009l6.227 6.228c8.801 8.802 23.207 8.801 32.009-.002 8.802-8.802 8.804-23.206.001-32.009l4.224 4.224c8.8 8.8 23.208 8.802 32.01 0 8.803-8.802 8.605-23.014 0-32.01z" opacity="1" data-original="#fedfc5"></path><path fill="#fecbaa" d="M289.362 328.031a8.68 8.68 0 0 1 12.445-12.105l57.457 58.652a8.634 8.634 0 0 1 2.162 3.801l15.223 15.957c8.593 9.007 8.802 23.209 0 32.011a22.438 22.438 0 0 1-10.136 5.835c4.927-8.608 3.62-19.797-3.586-27.323zm-29.644 141.436-43.876-45.336a8.68 8.68 0 0 0-12.445 12.105l42.599 43.754c5.583 5.583 6.823 13.929 3.725 20.741a18.482 18.482 0 0 0 9.997-5.151c7.015-7.015 7.314-18.799 0-26.113zm42.458-21.561L258.3 402.57a8.682 8.682 0 0 0-12.445 12.105l42.599 43.755c7.219 7.219 8.678 18.482 3.593 27.321a22.443 22.443 0 0 0 10.13-5.835c8.67-8.671 8.928-23.081-.001-32.01zm38.238-25.783c.696.696-29.186-30.283-43.876-45.336a8.68 8.68 0 0 0-12.445 12.104l42.599 43.755c7.372 7.372 8.568 18.672 3.591 27.321a22.443 22.443 0 0 0 10.13-5.835c8.716-8.716 8.879-23.131.001-32.009z" opacity="1" data-original="#fecbaa"></path><path fill="#43a2ff" d="M17.3 197.871c41.719-8.43 83.438-3.745 125.157 14.055L82.891 383.933H17.3z" opacity="1" data-original="#43a2ff" class=""></path><path fill="#ffb98d" d="m438.825 216.718 29.41 138.135c-32.922 0-52.784 16.412-79.345 27.253-12.481 5.094-26.033 2.364-35.569-7.166l-86.539-86.486c-6.473 5.768-24.43 17.036-24.43 36.198 0 28.986-29.266 47.154-58.252 47.154v-75.353c0-9.384 3.492-17.46 10.328-23.888l39.7-37.328c17.288-16.255 40.056-21.794 62.879-15.297 40.371 11.494 71.687 29.833 141.818-3.222z" opacity="1" data-original="#ffb98d"></path><path fill="#ffd54f" d="M494.7 197.871c-41.719-8.43-83.438-3.745-125.157 14.055l59.567 172.007h65.59zM83.885 170.105h126.164a2.365 2.365 0 0 0 2.358-2.358v-29.002c0-30.622-25.054-55.676-55.676-55.676h-19.528c-30.622 0-55.677 25.054-55.677 55.676v29.002a2.366 2.366 0 0 0 2.359 2.358z" opacity="1" data-original="#ffd54f"></path><ellipse cx="146.967" cy="49.931" fill="#fedfc5" rx="39.41" ry="38.926" opacity="1" data-original="#fedfc5"></ellipse><path fill="#ffd54f" d="M301.952 170.105h126.164a2.365 2.365 0 0 0 2.358-2.358v-29.002c0-30.622-25.054-55.676-55.676-55.676H355.27c-30.622 0-55.676 25.054-55.676 55.676v29.002a2.365 2.365 0 0 0 2.358 2.358z" opacity="1" data-original="#ffd54f"></path><ellipse cx="365.034" cy="49.931" fill="#fedfc5" rx="39.41" ry="38.926" opacity="1" data-original="#fedfc5"></ellipse><path fill="#43a2ff" d="M192.918 198.83h126.164a2.365 2.365 0 0 0 2.358-2.358V167.47c0-30.622-25.054-55.676-55.676-55.676h-19.528c-30.622 0-55.676 25.054-55.676 55.676v29.002a2.365 2.365 0 0 0 2.358 2.358z" opacity="1" data-original="#43a2ff" class=""></path><ellipse cx="256.001" cy="78.656" fill="#fedfc5" rx="39.41" ry="38.926" opacity="1" data-original="#fedfc5"></ellipse><path d="M89.03 138.739a48.083 48.083 0 0 1 37.582-46.99c6.16 2.951 13.069 4.601 20.36 4.601 7.286 0 14.186-1.65 20.346-4.601 16.001 3.622 29.093 15.222 34.683 30.582a63.027 63.027 0 0 0-18.744 40.268H89.03zm57.941-120.237c17.589 0 31.907 14.097 31.907 31.428 0 17.32-14.318 31.419-31.907 31.419-17.603 0-31.912-14.098-31.912-31.419 0-17.331 14.309-31.428 31.912-31.428zm109.027 28.727c17.593 0 31.912 14.091 31.912 31.421s-14.318 31.43-31.912 31.43c-17.589 0-31.907-14.1-31.907-31.43-.001-17.33 14.318-31.421 31.907-31.421zm88.68 44.52a46.999 46.999 0 0 0 20.351 4.601c7.291 0 14.2-1.65 20.36-4.601a48.084 48.084 0 0 1 37.582 46.99v23.86h-94.232A62.947 62.947 0 0 0 310 122.331c5.589-15.361 18.677-26.961 34.678-30.582zm20.351-73.247c17.603 0 31.912 14.097 31.912 31.428 0 17.32-14.309 31.419-31.912 31.419-17.589 0-31.898-14.098-31.898-31.419 0-17.331 14.309-31.428 31.898-31.428zM313.94 191.319V167.46c0-22.671-15.671-42.049-37.582-46.99-6.16 2.951-13.069 4.612-20.36 4.612s-14.2-1.661-20.36-4.612c-21.906 4.941-37.577 24.32-37.577 46.99v23.859zm-232.409-13.72h101.528v21.22c0 4.14 3.361 7.5 7.503 7.5h130.876a7.5 7.5 0 0 0 7.499-7.5v-21.22H430.47a7.493 7.493 0 0 0 7.498-7.5v-31.36c0-25.66-15.298-48.1-37.958-57.93 7.418-8.209 11.928-19.031 11.928-30.879 0-25.598-21.039-46.429-46.909-46.429-25.86 0-46.899 20.831-46.899 46.429 0 11.86 4.52 22.69 11.938 30.9a63.581 63.581 0 0 0-32.421 32.07 64.27 64.27 0 0 0-6.669-3.36c7.409-8.211 11.929-19.041 11.929-30.891 0-25.599-21.039-46.418-46.909-46.418s-46.909 20.819-46.909 46.418c0 11.849 4.52 22.68 11.929 30.891a65.283 65.283 0 0 0-6.669 3.36 63.576 63.576 0 0 0-32.421-32.071c7.423-8.209 11.952-19.04 11.952-30.9 0-25.598-21.053-46.429-46.909-46.429-25.87 0-46.913 20.831-46.913 46.429 0 11.848 4.51 22.67 11.929 30.879a63.053 63.053 0 0 0-37.959 57.93v31.36a7.504 7.504 0 0 0 7.503 7.501zM487.218 376.43H434.47l-55.51-160.27c35.989-14.13 72.35-18.19 108.258-12.081zm-80.507-10.971a764.016 764.016 0 0 1 6.89-3.43l-41.272-119.19c-24.041.991-43.28-5.079-61.92-10.98-5.019-1.591-10.222-3.24-15.449-4.73-20.139-5.731-40.442-.79-55.703 13.55l-39.698 37.329c-5.359 5.041-7.97 11.07-7.97 18.431v67.411c10.392-1.241 20.309-5.011 28.019-10.77 6.952-5.191 15.242-14.341 15.242-28.44 0-19.981 15.477-32.481 23.787-39.19 1.272-1.02 2.361-1.9 3.153-2.611a7.5 7.5 0 0 1 10.288.3l86.55 86.49c7.442 7.439 17.702 9.5 27.439 5.53 7.174-2.93 14.012-6.37 20.644-9.7zm-35.353 55.581c-5.91 5.9-15.511 5.9-21.406 0l-47.192-48.25c-2.899-2.972-7.649-3.031-10.609-.131-2.969 2.891-3.021 7.641-.132 10.601l43.03 44.1c.009.009.019.02.033.02a.192.192 0 0 0 .038.049c5.901 5.901 5.901 15.5 0 21.4-5.901 5.898-15.511 5.898-21.411 0l-49.199-50.26c-2.889-2.96-7.64-3.021-10.6-.131a7.503 7.503 0 0 0-.132 10.609l43.03 44.1c.014.011.033.011.043.02.009.02.019.029.028.04 2.842 2.839 4.402 6.64 4.402 10.7s-1.56 7.87-4.402 10.7c-5.91 5.91-15.506 5.91-21.407.009L222.05 420.14a7.482 7.482 0 0 0-10.6-.131c-2.974 2.89-3.021 7.64-.132 10.601l43.03 44.1c.01.011.024.02.033.03.009.011.019.02.038.031 4.27 4.281 4.27 11.24 0 15.509-2.102 2.1-4.887 3.231-7.899 3.22-2.898-.018-5.58-1.14-7.55-3.15l-77.251-79.17c-.9-.91-1.866-1.93-2.922-3.019-11.679-12.16-32.619-33.951-60.977-44.47l41.418-119.601c16.161 5.38 31.092 8.02 47.05 8.02 6.551 0 13.291-.46 20.351-1.34l-17.358 16.312c-8.3 7.809-12.692 17.959-12.692 29.359v75.36c0 4.14 3.36 7.5 7.499 7.5 32.331 0 65.765-20.441 65.765-54.66 0-11.81 9.308-20.251 16.448-26.08l81.729 81.679c3.94 3.94 8.46 6.93 13.309 8.931l9.902 10.35c5.928 6.198 5.98 15.659.117 21.519zM77.53 376.43H24.782V204.079c35.909-6.109 72.269-2.049 108.258 12.081zm418.681-185.931a7.489 7.489 0 0 1 6.009 7.349V383.93a7.503 7.503 0 0 1-7.503 7.499H429.13a7.512 7.512 0 0 1-7.093-5.05l-3.488-10.069c-1.678.84-3.37 1.679-5.109 2.559-6.881 3.45-13.993 7.031-21.703 10.17a42.553 42.553 0 0 1-7.729 2.331c9.643 12.11 8.95 29.288-2.05 40.279-7.447 7.451-17.858 10.17-27.467 8.18a30.02 30.02 0 0 1-8.771 19.61c-5.67 5.67-13.239 8.8-21.303 8.8-2.847 0-5.627-.39-8.285-1.14-.702 6.619-3.582 13.058-8.644 18.119-9.747 9.739-24.56 11.409-36.026 5a25.895 25.895 0 0 1-6.443 10.669c-4.906 4.912-11.448 7.611-18.428 7.611h-.16c-6.942-.04-13.404-2.771-18.192-7.679l-77.261-79.161c-.919-.941-1.918-1.99-2.998-3.111-10.76-11.21-30.05-31.27-55.072-40.679l-2.95 8.509a7.492 7.492 0 0 1-7.089 5.05H17.278a7.502 7.502 0 0 1-7.498-7.499v-186.08a7.488 7.488 0 0 1 6.009-7.349c43.049-8.7 86.649-3.82 129.599 14.511a7.49 7.49 0 0 1 4.143 9.348l-5.382 15.551c27.062 8.99 49.689 9.459 82.473 2.069l2.366-2.229c19.191-18.051 44.731-24.261 70.073-17.05 5.448 1.559 10.75 3.229 15.878 4.859 16.854 5.329 32.901 10.39 52.229 10.39l-4.699-13.59a7.49 7.49 0 0 1 4.138-9.348c42.95-18.331 86.56-23.211 129.604-14.511z" fill="#000000" opacity="1" data-original="#000000" class=""></path></g></g></svg>