<svg xmlns="http://www.w3.org/2000/svg" version="1.1" xmlns:xlink="http://www.w3.org/1999/xlink" width="128" height="128" x="0" y="0" viewBox="0 0 64 64" style="enable-background:new 0 0 512 512" xml:space="preserve" class=""><g><path fill="#b4dd7f" d="M32 30c1.72 0 3.37-.31 4.89-.88L38 38l-6-2-6 2 1.11-8.88c1.52.57 3.17.88 4.89.88z" opacity="1" data-original="#b4dd7f"></path><path fill="#ffc729" d="M27.11 29.12C21.79 27.13 18 22.01 18 16c0-7.73 6.27-14 14-14s14 6.27 14 14c0 6.01-3.79 11.13-9.11 13.12-1.52.57-3.17.88-4.89.88s-3.37-.31-4.89-.88z" opacity="1" data-original="#ffc729" class=""></path><circle cx="32" cy="16" r="10" fill="#fcd770" opacity="1" data-original="#fcd770" class=""></circle><path fill="#ffc729" d="m26 52-4 10-3-10h6zM58 52l4 10H44l-4-10h12zM48 42l4 10H34l-4-10z" opacity="1" data-original="#ffc729" class=""></path><path fill="#fcd770" d="m40 52 4 10H22l4-10h13zM19 52l3 10H2l3-10h7zM30 42l4 10H12l4-10h13z" opacity="1" data-original="#fcd770" class=""></path><path d="M32 27c6.065 0 11-4.935 11-11S38.065 5 32 5 21 9.935 21 16s4.935 11 11 11zm0-20c4.963 0 9 4.037 9 9s-4.037 9-9 9-9-4.037-9-9 4.037-9 9-9z" fill="#000000" opacity="1" data-original="#000000" class=""></path><path d="m29 22.414 9.707-9.707-1.414-1.414L29 19.586l-2.293-2.293-1.414 1.414zM58.677 51h-6l-4-10H15.323l-4 10H4.256l-3.6 12h62.821zm-11.354-8 3.2 8H34.677l-3.2-8zm-30.646 0h12.646l3.2 8H13.476zM3.344 61l2.4-8h12.511l2.4 8zm18.791-2.029L20.344 53h4.179zM35 61H23.477l3.2-8h12.646l3.2 8zm9.677 0-3.2-8h15.847l3.2 8z" fill="#000000" opacity="1" data-original="#000000" class=""></path><path d="m26.023 29.75-1.213 9.7L32 37.054l7.189 2.396-1.213-9.7C43.281 27.436 47 22.147 47 16c0-8.271-6.729-15-15-15S17 7.729 17 16c0 6.147 3.719 11.436 9.023 13.75zm10.788 6.8L33 35.28V33h-2v2.28l-3.811 1.27.764-6.12c1.29.362 2.643.57 4.047.57s2.757-.208 4.046-.57zM32 3c7.168 0 13 5.832 13 13s-5.832 13-13 13-13-5.832-13-13S24.832 3 32 3zM54 18h2v2h-2zM54 22h2v2h-2zM56 20h2v2h-2zM52 20h2v2h-2zM59 29h2v2h-2zM59 33h2v2h-2zM61 31h2v2h-2zM57 31h2v2h-2zM51 34h2v2h-2zM51 38h2v2h-2zM53 36h2v2h-2zM49 36h2v2h-2zM57 9h2v2h-2zM57 13h2v2h-2zM59 11h2v2h-2zM55 11h2v2h-2zM49 3h2v2h-2zM49 7h2v2h-2zM51 5h2v2h-2zM47 5h2v2h-2zM8 18h2v2H8zM8 22h2v2H8zM6 20h2v2H6zM10 20h2v2h-2zM3 29h2v2H3zM3 33h2v2H3zM1 31h2v2H1zM5 31h2v2H5zM11 34h2v2h-2zM11 38h2v2h-2zM9 36h2v2H9zM13 36h2v2h-2zM5 9h2v2H5zM5 13h2v2H5zM3 11h2v2H3zM7 11h2v2H7zM13 3h2v2h-2zM13 7h2v2h-2zM11 5h2v2h-2zM15 5h2v2h-2zM43 45h2v2h-2zM39 45h2v2h-2zM35 45h2v2h-2zM53 55h2v2h-2zM49 55h2v2h-2zM45 55h2v2h-2z" fill="#000000" opacity="1" data-original="#000000" class=""></path></g></svg>