<?xml version="1.0" encoding="UTF-8"?>
<svg xmlns="http://www.w3.org/2000/svg" xmlns:xlink="http://www.w3.org/1999/xlink" width="64px" height="64px" viewBox="0 0 64 64" version="1.1">
<g id="surface1">
<path style=" stroke:none;fill-rule:nonzero;fill:rgb(99.215686%,50.196078%,52.941176%);fill-opacity:1;" d="M 53.390625 55.832031 L 40.347656 29.039062 L 23.652344 29.039062 L 10.609375 55.832031 C 10.230469 56.609375 10.726562 57.527344 11.585938 57.636719 L 17.0625 58.335938 C 17.449219 58.386719 17.808594 58.5625 18.082031 58.835938 L 21.984375 62.699219 C 22.597656 63.304688 23.628906 63.128906 24.007812 62.351562 L 32 45.9375 L 39.992188 62.351562 C 40.371094 63.128906 41.402344 63.304688 42.015625 62.699219 L 45.917969 58.835938 C 46.191406 58.5625 46.550781 58.386719 46.9375 58.335938 L 52.414062 57.636719 C 53.273438 57.527344 53.769531 56.609375 53.390625 55.832031 Z M 53.390625 55.832031 "/>
<path style=" stroke:none;fill-rule:nonzero;fill:rgb(99.607843%,39.215686%,43.529412%);fill-opacity:1;" d="M 46.824219 53.128906 C 46.886719 53.132812 46.945312 53.132812 47.003906 53.132812 C 48.582031 53.132812 50.105469 52.511719 51.242188 51.421875 L 40.347656 29.039062 L 23.652344 29.039062 L 12.757812 51.421875 C 13.894531 52.511719 15.417969 53.132812 16.996094 53.132812 C 17.054688 53.132812 17.113281 53.132812 17.175781 53.128906 C 18.21875 55.070312 20.257812 56.347656 22.574219 56.347656 C 23.175781 56.347656 23.765625 56.261719 24.332031 56.089844 C 24.90625 56.695312 25.597656 57.179688 26.363281 57.511719 L 32 45.9375 L 37.636719 57.511719 C 38.402344 57.179688 39.09375 56.699219 39.667969 56.089844 C 40.238281 56.261719 40.828125 56.347656 41.425781 56.347656 C 43.742188 56.347656 45.78125 55.070312 46.824219 53.128906 Z M 46.824219 53.128906 "/>
<path style=" stroke:none;fill-rule:nonzero;fill:rgb(100%,88.235294%,46.666667%);fill-opacity:1;" d="M 33.609375 1.695312 C 34.589844 0.507812 36.472656 0.757812 37.113281 2.15625 C 37.65625 3.347656 39.152344 3.75 40.21875 2.988281 C 41.476562 2.097656 43.230469 2.824219 43.488281 4.34375 C 43.703125 5.632812 45.042969 6.410156 46.273438 5.949219 C 47.714844 5.414062 49.222656 6.570312 49.078125 8.101562 C 48.953125 9.40625 50.046875 10.503906 51.351562 10.378906 C 52.882812 10.230469 54.042969 11.738281 53.503906 13.183594 C 53.046875 14.410156 53.820312 15.75 55.113281 15.96875 C 56.628906 16.222656 57.359375 17.980469 56.464844 19.234375 C 55.703125 20.300781 56.105469 21.796875 57.296875 22.339844 C 58.699219 22.980469 58.945312 24.867188 57.757812 25.847656 C 56.75 26.679688 56.75 28.230469 57.757812 29.0625 C 58.945312 30.042969 58.699219 31.929688 57.296875 32.566406 C 56.105469 33.113281 55.703125 34.609375 56.464844 35.675781 C 57.359375 36.929688 56.628906 38.6875 55.113281 38.941406 C 53.820312 39.160156 53.046875 40.5 53.503906 41.726562 C 54.042969 43.167969 52.882812 44.679688 51.351562 44.53125 C 50.046875 44.40625 48.953125 45.5 49.078125 46.804688 C 49.222656 48.339844 47.714844 49.496094 46.273438 48.957031 C 45.042969 48.5 43.703125 49.273438 43.488281 50.566406 C 43.230469 52.085938 41.476562 52.8125 40.21875 51.917969 C 39.152344 51.160156 37.65625 51.558594 37.113281 52.753906 C 36.472656 54.152344 34.589844 54.402344 33.609375 53.214844 C 32.773438 52.203125 31.226562 52.203125 30.390625 53.214844 C 29.410156 54.402344 27.527344 54.152344 26.886719 52.753906 C 26.34375 51.558594 24.847656 51.160156 23.78125 51.917969 C 22.523438 52.8125 20.769531 52.085938 20.511719 50.566406 C 20.296875 49.273438 18.957031 48.5 17.726562 48.957031 C 16.285156 49.496094 14.777344 48.339844 14.921875 46.804688 C 15.046875 45.5 13.953125 44.40625 12.648438 44.53125 C 11.117188 44.679688 9.957031 43.167969 10.496094 41.726562 C 10.953125 40.5 10.179688 39.160156 8.886719 38.941406 C 7.371094 38.6875 6.640625 36.929688 7.535156 35.675781 C 8.296875 34.609375 7.894531 33.113281 6.703125 32.566406 C 5.300781 31.929688 5.054688 30.042969 6.242188 29.0625 C 7.25 28.230469 7.25 26.679688 6.242188 25.847656 C 5.054688 24.867188 5.300781 22.980469 6.703125 22.339844 C 7.894531 21.796875 8.296875 20.300781 7.535156 19.234375 C 6.640625 17.980469 7.371094 16.222656 8.886719 15.96875 C 10.179688 15.75 10.953125 14.410156 10.496094 13.183594 C 9.957031 11.738281 11.117188 10.230469 12.648438 10.378906 C 13.953125 10.503906 15.046875 9.40625 14.921875 8.101562 C 14.777344 6.570312 16.285156 5.414062 17.726562 5.949219 C 18.957031 6.410156 20.296875 5.636719 20.511719 4.34375 C 20.769531 2.824219 22.523438 2.097656 23.78125 2.988281 C 24.847656 3.75 26.34375 3.347656 26.886719 2.15625 C 27.527344 0.757812 29.410156 0.507812 30.390625 1.695312 C 31.226562 2.707031 32.773438 2.707031 33.609375 1.695312 Z M 33.609375 1.695312 "/>
<path style=" stroke:none;fill-rule:nonzero;fill:rgb(100%,81.960784%,35.686275%);fill-opacity:1;" d="M 57.757812 29.0625 C 56.75 28.230469 56.75 26.679688 57.757812 25.847656 C 58.945312 24.867188 58.699219 22.980469 57.296875 22.339844 C 56.105469 21.796875 55.703125 20.300781 56.464844 19.234375 C 57.359375 17.980469 56.628906 16.222656 55.113281 15.96875 C 53.820312 15.75 53.046875 14.410156 53.503906 13.183594 C 54.042969 11.738281 52.882812 10.230469 51.351562 10.378906 C 50.046875 10.503906 48.953125 9.40625 49.078125 8.101562 C 49.210938 6.714844 47.980469 5.632812 46.675781 5.84375 C 49.554688 10.023438 51.242188 15.085938 51.242188 20.546875 C 51.242188 34.875 39.628906 46.488281 25.300781 46.488281 C 19.78125 46.488281 14.667969 44.765625 10.460938 41.828125 C 10.011719 43.238281 11.152344 44.675781 12.648438 44.53125 C 13.953125 44.40625 15.046875 45.503906 14.921875 46.804688 C 14.777344 48.339844 16.285156 49.496094 17.726562 48.957031 C 18.957031 48.5 20.296875 49.273438 20.511719 50.566406 C 20.769531 52.085938 22.523438 52.8125 23.78125 51.917969 C 24.847656 51.160156 26.34375 51.558594 26.886719 52.753906 C 27.527344 54.152344 29.410156 54.402344 30.390625 53.214844 C 31.226562 52.203125 32.773438 52.203125 33.609375 53.214844 C 34.589844 54.402344 36.472656 54.152344 37.113281 52.753906 C 37.65625 51.558594 39.152344 51.160156 40.21875 51.917969 C 41.476562 52.8125 43.230469 52.085938 43.488281 50.566406 C 43.703125 49.273438 45.042969 48.5 46.273438 48.957031 C 47.714844 49.496094 49.222656 48.339844 49.078125 46.804688 C 48.953125 45.503906 50.046875 44.40625 51.351562 44.53125 C 52.882812 44.679688 54.042969 43.167969 53.503906 41.726562 C 53.046875 40.5 53.820312 39.160156 55.113281 38.941406 C 56.628906 38.6875 57.359375 36.929688 56.464844 35.675781 C 55.703125 34.609375 56.105469 33.113281 57.296875 32.566406 C 58.699219 31.929688 58.945312 30.042969 57.757812 29.0625 Z M 57.757812 29.0625 "/>
<path style=" stroke:none;fill-rule:nonzero;fill:rgb(99.607843%,69.803922%,21.568627%);fill-opacity:1;" d="M 53.105469 27.453125 C 53.105469 39.113281 43.65625 48.5625 32 48.5625 C 20.34375 48.5625 10.894531 39.113281 10.894531 27.453125 C 10.894531 15.796875 20.34375 6.347656 32 6.347656 C 43.65625 6.347656 53.105469 15.796875 53.105469 27.453125 Z M 53.105469 27.453125 "/>
<path style=" stroke:none;fill-rule:nonzero;fill:rgb(60%,90.196078%,98.823529%);fill-opacity:1;" d="M 61.796875 41.960938 L 2.199219 41.960938 C 1.335938 41.960938 0.726562 41.113281 1.003906 40.292969 L 2.773438 35.058594 C 2.898438 34.691406 2.898438 34.292969 2.773438 33.925781 L 1.007812 28.730469 C 0.730469 27.910156 1.339844 27.0625 2.203125 27.0625 L 61.800781 27.0625 C 62.664062 27.0625 63.273438 27.910156 62.996094 28.730469 L 61.226562 33.960938 C 61.101562 34.328125 61.101562 34.726562 61.226562 35.097656 L 62.992188 40.292969 C 63.269531 41.113281 62.660156 41.960938 61.796875 41.960938 Z M 61.796875 41.960938 "/>
<path style=" stroke:none;fill-rule:nonzero;fill:rgb(38.431373%,85.882353%,98.431373%);fill-opacity:1;" d="M 61.226562 35.097656 C 61.101562 34.726562 61.101562 34.328125 61.226562 33.960938 L 62.996094 28.730469 C 63.273438 27.910156 62.664062 27.0625 61.800781 27.0625 L 57.757812 27.0625 C 58.621094 27.0625 59.230469 27.910156 58.953125 28.730469 L 57.183594 33.960938 C 57.058594 34.328125 57.0625 34.726562 57.1875 35.097656 L 58.953125 40.292969 C 59.230469 41.113281 58.621094 41.960938 57.753906 41.960938 L 61.796875 41.960938 C 62.660156 41.960938 63.269531 41.113281 62.992188 40.292969 Z M 61.226562 35.097656 "/>
<path style=" stroke:none;fill-rule:nonzero;fill:rgb(0%,0%,0%);fill-opacity:1;" d="M 27.046875 23.683594 C 27.566406 23.683594 27.984375 23.265625 27.984375 22.746094 L 27.984375 15.929688 C 27.984375 15.410156 27.566406 14.992188 27.046875 14.992188 C 26.53125 14.992188 26.109375 15.410156 26.109375 15.929688 L 26.109375 22.746094 C 26.109375 23.265625 26.53125 23.683594 27.046875 23.683594 Z M 34.246094 23.683594 C 36.53125 23.683594 38.125 21.898438 38.125 19.339844 C 38.125 18.820312 37.707031 18.402344 37.1875 18.402344 L 35.148438 18.402344 C 34.632812 18.402344 34.210938 18.820312 34.210938 19.339844 C 34.210938 19.855469 34.632812 20.277344 35.148438 20.277344 L 36.140625 20.277344 C 35.847656 21.390625 35.027344 21.808594 34.246094 21.808594 C 32.882812 21.808594 31.773438 20.703125 31.773438 19.339844 C 31.773438 17.976562 32.882812 16.867188 34.246094 16.867188 C 34.742188 16.867188 35.21875 17.011719 35.628906 17.289062 C 36.054688 17.574219 36.636719 17.460938 36.925781 17.035156 C 37.214844 16.605469 37.105469 16.023438 36.675781 15.734375 C 35.960938 15.25 35.113281 14.992188 34.246094 14.992188 C 31.847656 14.992188 29.898438 16.941406 29.898438 19.339844 C 29.898438 21.734375 31.847656 23.683594 34.246094 23.683594 Z M 19.015625 23.789062 C 19.53125 23.789062 19.953125 23.371094 19.953125 22.851562 L 19.953125 20.265625 L 22.796875 20.265625 L 22.796875 22.851562 C 22.796875 23.371094 23.214844 23.789062 23.734375 23.789062 C 24.25 23.789062 24.671875 23.371094 24.671875 22.851562 L 24.671875 16.035156 C 24.671875 15.515625 24.25 15.097656 23.734375 15.097656 C 23.214844 15.097656 22.796875 15.515625 22.796875 16.035156 L 22.796875 18.390625 L 19.953125 18.390625 L 19.953125 16.035156 C 19.953125 15.515625 19.53125 15.097656 19.015625 15.097656 C 18.496094 15.097656 18.078125 15.515625 18.078125 16.035156 L 18.078125 22.851562 C 18.078125 23.371094 18.496094 23.789062 19.015625 23.789062 Z M 40.265625 23.789062 C 40.785156 23.789062 41.203125 23.371094 41.203125 22.851562 L 41.203125 20.265625 L 44.046875 20.265625 L 44.046875 22.851562 C 44.046875 23.371094 44.46875 23.789062 44.984375 23.789062 C 45.503906 23.789062 45.921875 23.371094 45.921875 22.851562 L 45.921875 16.035156 C 45.921875 15.515625 45.503906 15.097656 44.984375 15.097656 C 44.46875 15.097656 44.046875 15.515625 44.046875 16.035156 L 44.046875 18.390625 L 41.203125 18.390625 L 41.203125 16.035156 C 41.203125 15.515625 40.785156 15.097656 40.265625 15.097656 C 39.75 15.097656 39.328125 15.515625 39.328125 16.035156 L 39.328125 22.851562 C 39.328125 23.371094 39.75 23.789062 40.265625 23.789062 Z M 40.265625 23.789062 "/>
<path style=" stroke:none;fill-rule:nonzero;fill:rgb(0%,0%,0%);fill-opacity:1;" d="M 62.113281 34.792969 C 62.054688 34.621094 62.054688 34.433594 62.113281 34.261719 L 63.882812 29.027344 C 64.109375 28.355469 64 27.617188 63.585938 27.039062 C 63.171875 26.464844 62.507812 26.125 61.800781 26.125 L 58.792969 26.125 C 59.222656 25.589844 59.453125 24.925781 59.453125 24.242188 C 59.453125 23.039062 58.777344 21.984375 57.6875 21.488281 C 57.273438 21.296875 57.015625 20.898438 57.015625 20.441406 C 57.015625 20.203125 57.089844 19.972656 57.226562 19.777344 C 57.597656 19.261719 57.792969 18.65625 57.792969 18.03125 C 57.792969 16.546875 56.730469 15.289062 55.265625 15.042969 C 54.929688 14.988281 54.632812 14.78125 54.460938 14.484375 C 54.289062 14.1875 54.261719 13.832031 54.382812 13.511719 C 54.726562 12.582031 54.597656 11.546875 54.035156 10.730469 C 53.46875 9.917969 52.542969 9.429688 51.558594 9.429688 C 51.464844 9.429688 51.367188 9.433594 51.261719 9.445312 C 50.941406 9.476562 50.621094 9.371094 50.382812 9.152344 C 50.140625 8.9375 50.003906 8.628906 50.003906 8.308594 C 50.003906 8.273438 50.007812 8.234375 50.011719 8.191406 C 50.09375 7.332031 49.820312 6.511719 49.242188 5.875 C 48.667969 5.242188 47.851562 4.878906 47.003906 4.878906 C 46.648438 4.878906 46.289062 4.945312 45.945312 5.074219 C 45.816406 5.121094 45.679688 5.144531 45.542969 5.144531 C 44.980469 5.148438 44.503906 4.742188 44.410156 4.1875 C 44.164062 2.726562 42.910156 1.664062 41.425781 1.664062 C 40.796875 1.664062 40.191406 1.859375 39.675781 2.226562 C 39.484375 2.363281 39.25 2.441406 39.015625 2.441406 C 38.558594 2.441406 38.15625 2.183594 37.96875 1.769531 C 37.53125 0.8125 36.652344 0.164062 35.609375 0.0273438 C 34.570312 -0.109375 33.554688 0.289062 32.886719 1.097656 C 32.667969 1.363281 32.34375 1.515625 32 1.515625 C 31.65625 1.515625 31.332031 1.363281 31.113281 1.097656 C 30.539062 0.402344 29.691406 0 28.789062 0 C 27.585938 0 26.53125 0.675781 26.035156 1.769531 C 25.84375 2.183594 25.441406 2.441406 24.984375 2.441406 C 24.75 2.441406 24.515625 2.363281 24.324219 2.226562 C 23.808594 1.859375 23.203125 1.664062 22.578125 1.664062 C 21.089844 1.664062 19.835938 2.726562 19.589844 4.1875 C 19.496094 4.742188 19.019531 5.148438 18.457031 5.144531 C 18.320312 5.144531 18.183594 5.121094 18.054688 5.074219 C 17.128906 4.726562 16.089844 4.855469 15.277344 5.421875 C 14.460938 5.984375 13.976562 6.914062 13.976562 7.898438 C 13.976562 7.988281 13.980469 8.085938 13.988281 8.191406 C 14.023438 8.515625 13.917969 8.835938 13.699219 9.074219 C 13.480469 9.3125 13.175781 9.449219 12.851562 9.449219 C 12.820312 9.449219 12.777344 9.449219 12.738281 9.445312 C 11.878906 9.363281 11.054688 9.636719 10.421875 10.214844 C 9.789062 10.789062 9.425781 11.605469 9.425781 12.449219 C 9.425781 12.808594 9.488281 13.164062 9.617188 13.511719 C 9.667969 13.640625 9.691406 13.777344 9.691406 13.914062 C 9.691406 14.472656 9.285156 14.953125 8.734375 15.042969 C 7.269531 15.289062 6.207031 16.546875 6.207031 18.03125 C 6.207031 18.65625 6.402344 19.261719 6.773438 19.777344 C 6.910156 19.972656 6.984375 20.203125 6.984375 20.441406 C 6.984375 20.898438 6.726562 21.296875 6.3125 21.488281 C 5.222656 21.984375 4.546875 23.042969 4.546875 24.242188 C 4.546875 24.925781 4.777344 25.589844 5.207031 26.125 L 2.203125 26.125 C 1.492188 26.125 0.828125 26.46875 0.414062 27.042969 C 0.00390625 27.621094 -0.105469 28.359375 0.121094 29.03125 L 1.886719 34.226562 C 1.945312 34.398438 1.945312 34.585938 1.886719 34.761719 L 0.117188 39.996094 C -0.109375 40.667969 0 41.40625 0.414062 41.980469 C 0.828125 42.558594 1.492188 42.898438 2.199219 42.898438 L 9.457031 42.898438 C 9.53125 43.410156 9.738281 43.894531 10.070312 44.316406 C 10.644531 45.054688 11.511719 45.480469 12.441406 45.480469 C 12.535156 45.480469 12.632812 45.472656 12.738281 45.464844 C 13.058594 45.433594 13.378906 45.539062 13.617188 45.757812 C 13.859375 45.972656 13.996094 46.28125 13.996094 46.601562 C 13.996094 46.636719 13.992188 46.675781 13.988281 46.71875 C 13.988281 46.730469 13.988281 46.742188 13.988281 46.753906 L 9.765625 55.421875 C 9.457031 56.058594 9.472656 56.808594 9.808594 57.429688 C 10.148438 58.054688 10.761719 58.476562 11.464844 58.566406 L 16.945312 59.265625 C 17.125 59.289062 17.292969 59.371094 17.425781 59.5 L 21.324219 63.363281 C 21.828125 63.863281 22.542969 64.085938 23.242188 63.96875 C 23.941406 63.847656 24.539062 63.402344 24.851562 62.765625 L 28.675781 54.90625 C 28.710938 54.90625 28.75 54.910156 28.789062 54.910156 C 29.691406 54.910156 30.539062 54.507812 31.113281 53.8125 C 31.332031 53.546875 31.65625 53.394531 32 53.394531 C 32.34375 53.394531 32.667969 53.546875 32.886719 53.8125 C 33.460938 54.507812 34.308594 54.910156 35.210938 54.910156 C 35.25 54.910156 35.289062 54.90625 35.324219 54.90625 L 39.148438 62.765625 C 39.460938 63.402344 40.058594 63.847656 40.757812 63.96875 C 41.457031 64.085938 42.171875 63.863281 42.675781 63.363281 L 46.574219 59.5 C 46.703125 59.375 46.875 59.289062 47.054688 59.265625 L 52.535156 58.566406 C 53.238281 58.476562 53.855469 58.054688 54.191406 57.429688 C 54.527344 56.808594 54.542969 56.058594 54.234375 55.421875 L 53.316406 53.539062 C 53.085938 53.082031 52.53125 52.894531 52.070312 53.121094 C 51.609375 53.34375 51.414062 53.898438 51.632812 54.359375 L 52.546875 56.242188 C 52.59375 56.335938 52.59375 56.449219 52.542969 56.539062 C 52.492188 56.632812 52.402344 56.695312 52.296875 56.707031 L 46.820312 57.40625 C 46.234375 57.480469 45.679688 57.75 45.257812 58.167969 L 41.359375 62.03125 C 41.285156 62.105469 41.175781 62.140625 41.074219 62.121094 C 41.011719 62.109375 40.898438 62.074219 40.835938 61.941406 L 37.09375 54.257812 C 37.46875 53.960938 37.769531 53.578125 37.964844 53.140625 C 38.15625 52.726562 38.558594 52.46875 39.015625 52.46875 C 39.25 52.46875 39.480469 52.542969 39.675781 52.683594 C 40.191406 53.050781 40.796875 53.246094 41.425781 53.246094 C 42.910156 53.246094 44.164062 52.183594 44.410156 50.722656 C 44.503906 50.167969 44.980469 49.761719 45.542969 49.761719 C 45.679688 49.761719 45.816406 49.789062 45.945312 49.835938 C 46.871094 50.183594 47.910156 50.054688 48.722656 49.488281 C 48.859375 49.394531 48.988281 49.289062 49.105469 49.171875 L 49.714844 50.425781 C 49.871094 50.75 50.199219 50.953125 50.558594 50.953125 C 50.695312 50.953125 50.835938 50.925781 50.96875 50.859375 C 51.433594 50.632812 51.628906 50.070312 51.402344 49.605469 L 50.011719 46.753906 C 50.011719 46.742188 50.011719 46.730469 50.011719 46.714844 C 49.976562 46.394531 50.082031 46.074219 50.300781 45.835938 C 50.519531 45.597656 50.824219 45.460938 51.148438 45.460938 C 51.183594 45.460938 51.222656 45.460938 51.261719 45.464844 C 52.121094 45.546875 52.945312 45.273438 53.578125 44.695312 C 54.097656 44.226562 54.4375 43.589844 54.542969 42.898438 L 61.796875 42.898438 C 62.507812 42.898438 63.171875 42.554688 63.585938 41.980469 C 63.996094 41.402344 64.105469 40.664062 63.878906 39.992188 Z M 23.164062 61.941406 C 23.101562 62.074219 22.988281 62.109375 22.925781 62.121094 C 22.824219 62.140625 22.714844 62.105469 22.644531 62.03125 L 18.742188 58.167969 C 18.320312 57.75 17.769531 57.484375 17.183594 57.40625 L 11.703125 56.707031 C 11.597656 56.695312 11.507812 56.632812 11.457031 56.539062 C 11.40625 56.449219 11.40625 56.335938 11.453125 56.242188 L 14.894531 49.171875 C 15.457031 49.71875 16.214844 50.03125 16.996094 50.03125 C 17.355469 50.03125 17.710938 49.964844 18.058594 49.835938 C 18.378906 49.714844 18.734375 49.746094 19.03125 49.917969 C 19.328125 50.089844 19.53125 50.382812 19.589844 50.722656 C 19.835938 52.183594 21.089844 53.246094 22.578125 53.246094 C 23.203125 53.246094 23.808594 53.050781 24.324219 52.683594 C 24.515625 52.542969 24.75 52.46875 24.984375 52.46875 C 25.441406 52.46875 25.84375 52.726562 26.03125 53.140625 C 26.230469 53.578125 26.53125 53.960938 26.90625 54.257812 Z M 52.316406 43.308594 C 52.078125 43.527344 51.765625 43.628906 51.4375 43.597656 C 51.339844 43.589844 51.246094 43.585938 51.148438 43.582031 C 50.300781 43.582031 49.488281 43.945312 48.914062 44.574219 C 48.34375 45.203125 48.0625 46.046875 48.144531 46.890625 C 48.148438 46.9375 48.148438 46.976562 48.148438 47.011719 C 48.148438 47.386719 47.96875 47.730469 47.652344 47.949219 C 47.339844 48.164062 46.957031 48.214844 46.601562 48.082031 C 46.261719 47.953125 45.90625 47.886719 45.542969 47.886719 C 44.066406 47.886719 42.804688 48.953125 42.5625 50.410156 C 42.457031 51.042969 41.910156 51.371094 41.421875 51.371094 C 41.191406 51.371094 40.960938 51.296875 40.765625 51.15625 C 40.253906 50.789062 39.640625 50.59375 39.015625 50.59375 C 37.832031 50.59375 36.753906 51.289062 36.261719 52.363281 C 36.035156 52.859375 35.570312 53.035156 35.210938 53.035156 C 35.011719 53.035156 34.632812 52.980469 34.332031 52.617188 C 33.753906 51.917969 32.90625 51.519531 32 51.519531 C 31.09375 51.519531 30.246094 51.917969 29.667969 52.617188 C 29.367188 52.980469 28.988281 53.035156 28.789062 53.035156 C 28.429688 53.035156 27.964844 52.859375 27.738281 52.363281 C 27.246094 51.289062 26.167969 50.59375 24.984375 50.59375 C 24.355469 50.59375 23.75 50.789062 23.234375 51.15625 C 23.039062 51.296875 22.808594 51.371094 22.578125 51.371094 C 22.089844 51.371094 21.542969 51.042969 21.4375 50.410156 C 21.195312 48.953125 19.933594 47.886719 18.457031 47.886719 C 18.09375 47.886719 17.738281 47.953125 17.402344 48.078125 C 16.949219 48.246094 16.460938 48.117188 16.144531 47.773438 C 15.929688 47.535156 15.824219 47.222656 15.855469 46.890625 C 15.867188 46.789062 15.871094 46.695312 15.871094 46.601562 C 15.871094 45.753906 15.507812 44.941406 14.878906 44.371094 C 14.25 43.796875 13.410156 43.519531 12.5625 43.597656 C 12.519531 43.601562 12.476562 43.605469 12.441406 43.605469 C 12.09375 43.605469 11.765625 43.445312 11.546875 43.164062 C 11.484375 43.082031 11.433594 42.992188 11.390625 42.898438 L 16.273438 42.898438 C 18.25 44.914062 20.554688 46.507812 23.136719 47.644531 C 25.933594 48.875 28.917969 49.5 32 49.5 C 35.082031 49.5 38.066406 48.875 40.863281 47.644531 C 43.445312 46.507812 45.75 44.914062 47.730469 42.898438 L 52.609375 42.898438 C 52.542969 43.054688 52.441406 43.195312 52.316406 43.308594 Z M 19.023438 42.898438 L 44.976562 42.898438 C 41.351562 45.960938 36.820312 47.625 32 47.625 C 27.179688 47.625 22.648438 45.960938 19.023438 42.898438 Z M 62.0625 40.886719 C 62 40.972656 61.902344 41.027344 61.796875 41.023438 L 2.199219 41.023438 C 2.054688 41.023438 1.972656 40.9375 1.9375 40.890625 C 1.902344 40.835938 1.847656 40.730469 1.894531 40.59375 L 3.664062 35.359375 C 3.851562 34.796875 3.851562 34.1875 3.660156 33.625 L 1.894531 28.429688 C 1.847656 28.289062 1.902344 28.183594 1.9375 28.136719 C 2 28.046875 2.097656 27.996094 2.203125 28 L 14.480469 28 C 15 28 15.417969 27.578125 15.417969 27.0625 C 15.417969 26.542969 15 26.125 14.480469 26.125 L 11.875 26.125 C 12.195312 21.175781 14.300781 16.570312 17.863281 13.070312 C 21.65625 9.339844 26.679688 7.285156 32 7.285156 C 36.820312 7.285156 41.484375 9.011719 45.132812 12.148438 C 45.527344 12.472656 46.109375 12.425781 46.445312 12.035156 C 46.777344 11.648438 46.738281 11.066406 46.355469 10.726562 C 42.367188 7.296875 37.269531 5.410156 32 5.410156 C 26.183594 5.410156 20.695312 7.65625 16.546875 11.734375 C 12.625 15.589844 10.320312 20.667969 9.996094 26.125 L 7.628906 26.125 C 7.4375 25.738281 7.167969 25.398438 6.835938 25.121094 C 6.476562 24.824219 6.421875 24.441406 6.421875 24.242188 C 6.421875 23.882812 6.597656 23.417969 7.09375 23.195312 C 8.167969 22.703125 8.859375 21.621094 8.859375 20.441406 C 8.859375 19.8125 8.664062 19.207031 8.296875 18.691406 C 8.15625 18.492188 8.082031 18.265625 8.082031 18.03125 C 8.082031 17.546875 8.414062 17 9.042969 16.890625 C 10.5 16.652344 11.570312 15.390625 11.566406 13.914062 C 11.566406 13.550781 11.5 13.191406 11.375 12.855469 C 11.324219 12.726562 11.300781 12.589844 11.300781 12.449219 C 11.300781 12.132812 11.4375 11.820312 11.683594 11.601562 C 11.921875 11.382812 12.234375 11.28125 12.5625 11.3125 C 12.664062 11.320312 12.761719 11.324219 12.851562 11.324219 C 13.699219 11.324219 14.511719 10.964844 15.085938 10.335938 C 15.65625 9.707031 15.9375 8.859375 15.855469 8.019531 C 15.851562 7.972656 15.851562 7.933594 15.851562 7.898438 C 15.851562 7.519531 16.03125 7.179688 16.347656 6.960938 C 16.660156 6.742188 17.042969 6.695312 17.398438 6.828125 C 17.738281 6.957031 18.09375 7.019531 18.457031 7.019531 C 19.933594 7.023438 21.195312 5.957031 21.4375 4.5 C 21.542969 3.867188 22.089844 3.539062 22.578125 3.539062 C 22.808594 3.539062 23.039062 3.613281 23.234375 3.753906 C 23.746094 4.117188 24.359375 4.316406 24.984375 4.316406 C 26.167969 4.316406 27.246094 3.621094 27.738281 2.546875 C 27.964844 2.050781 28.429688 1.875 28.789062 1.875 C 28.988281 1.875 29.367188 1.929688 29.667969 2.292969 C 30.246094 2.992188 31.09375 3.390625 32 3.390625 C 32.90625 3.390625 33.753906 2.992188 34.332031 2.292969 C 34.589844 1.980469 34.964844 1.832031 35.367188 1.886719 C 35.765625 1.9375 36.09375 2.179688 36.261719 2.546875 C 36.75 3.621094 37.832031 4.316406 39.015625 4.316406 C 39.644531 4.316406 40.25 4.121094 40.765625 3.753906 C 40.960938 3.613281 41.1875 3.539062 41.421875 3.539062 C 41.910156 3.539062 42.457031 3.867188 42.5625 4.5 C 42.804688 5.957031 44.066406 7.023438 45.542969 7.019531 C 45.90625 7.019531 46.261719 6.957031 46.597656 6.828125 C 47.050781 6.660156 47.539062 6.792969 47.855469 7.136719 C 48.070312 7.375 48.175781 7.6875 48.144531 8.015625 C 48.132812 8.121094 48.128906 8.214844 48.128906 8.308594 C 48.128906 9.15625 48.488281 9.96875 49.121094 10.539062 C 49.75 11.113281 50.589844 11.390625 51.4375 11.3125 C 51.480469 11.308594 51.519531 11.304688 51.554688 11.304688 C 51.933594 11.304688 52.273438 11.484375 52.492188 11.800781 C 52.710938 12.113281 52.757812 12.496094 52.625 12.851562 C 52.5 13.191406 52.433594 13.550781 52.433594 13.914062 C 52.429688 15.390625 53.5 16.652344 54.957031 16.894531 C 55.585938 17 55.917969 17.546875 55.917969 18.03125 C 55.917969 18.265625 55.84375 18.492188 55.703125 18.691406 C 55.335938 19.207031 55.140625 19.8125 55.140625 20.441406 C 55.140625 21.621094 55.832031 22.703125 56.90625 23.195312 C 57.402344 23.417969 57.578125 23.882812 57.578125 24.242188 C 57.578125 24.441406 57.523438 24.824219 57.164062 25.121094 C 56.832031 25.398438 56.5625 25.738281 56.371094 26.125 L 54.003906 26.125 C 53.742188 21.714844 52.191406 17.550781 49.492188 14.035156 C 49.175781 13.625 48.585938 13.550781 48.175781 13.863281 C 47.765625 14.179688 47.6875 14.769531 48.003906 15.179688 C 50.453125 18.363281 51.867188 22.132812 52.125 26.125 L 18.855469 26.125 C 18.339844 26.125 17.917969 26.542969 17.917969 27.0625 C 17.917969 27.578125 18.339844 28 18.855469 28 L 61.800781 28 C 61.945312 28 62.027344 28.085938 62.0625 28.136719 C 62.097656 28.1875 62.152344 28.292969 62.105469 28.429688 L 60.335938 33.664062 C 60.148438 34.226562 60.148438 34.835938 60.339844 35.398438 L 62.105469 40.59375 C 62.152344 40.734375 62.097656 40.835938 62.0625 40.886719 Z M 62.0625 40.886719 "/>
<path style=" stroke:none;fill-rule:nonzero;fill:rgb(0%,0%,0%);fill-opacity:1;" d="M 41.832031 30.164062 C 41.3125 30.164062 40.894531 30.585938 40.894531 31.101562 L 40.894531 37.921875 C 40.894531 38.4375 41.3125 38.859375 41.832031 38.859375 C 42.351562 38.859375 42.769531 38.4375 42.769531 37.921875 L 42.769531 31.101562 C 42.769531 30.585938 42.351562 30.164062 41.832031 30.164062 Z M 30.183594 30.863281 C 30.023438 30.441406 29.617188 30.164062 29.164062 30.164062 C 28.722656 30.164062 28.324219 30.429688 28.15625 30.839844 L 28.144531 30.867188 L 25.609375 37.589844 C 25.425781 38.074219 25.667969 38.613281 26.152344 38.796875 C 26.636719 38.980469 27.179688 38.734375 27.363281 38.25 L 27.765625 37.183594 L 30.585938 37.183594 L 30.992188 38.253906 C 31.175781 38.738281 31.71875 38.980469 32.199219 38.792969 C 32.683594 38.609375 32.925781 38.070312 32.746094 37.585938 Z M 28.472656 35.308594 L 29.167969 33.464844 L 29.871094 35.308594 Z M 49.386719 30.164062 L 45.621094 30.164062 C 45.101562 30.164062 44.683594 30.585938 44.683594 31.101562 C 44.683594 31.621094 45.101562 32.039062 45.621094 32.039062 L 46.558594 32.039062 L 46.558594 37.921875 C 46.558594 38.4375 46.976562 38.859375 47.496094 38.859375 C 48.011719 38.859375 48.433594 38.4375 48.433594 37.921875 L 48.433594 32.039062 L 49.386719 32.039062 C 49.902344 32.039062 50.324219 31.621094 50.324219 31.101562 C 50.324219 30.585938 49.902344 30.164062 49.386719 30.164062 Z M 58.023438 30.332031 C 57.589844 30.050781 57.007812 30.175781 56.726562 30.609375 L 55.351562 32.722656 L 53.960938 30.589844 C 53.675781 30.15625 53.09375 30.035156 52.660156 30.316406 C 52.226562 30.601562 52.105469 31.179688 52.390625 31.613281 L 54.414062 34.714844 L 54.40625 37.917969 C 54.40625 38.4375 54.824219 38.855469 55.339844 38.859375 L 55.34375 38.859375 C 55.859375 38.859375 56.28125 38.441406 56.28125 37.921875 L 56.289062 34.71875 L 58.296875 31.628906 C 58.582031 31.195312 58.457031 30.617188 58.023438 30.332031 Z M 22.695312 30.164062 C 22.179688 30.164062 21.757812 30.585938 21.757812 31.101562 L 21.757812 35.789062 C 21.757812 36.109375 21.667969 36.484375 20.988281 36.824219 C 20.773438 36.9375 20.53125 36.992188 20.285156 36.984375 C 20.003906 36.984375 19.753906 36.914062 19.53125 36.769531 C 19.003906 36.433594 18.894531 36.144531 18.894531 35.792969 L 18.894531 31.101562 C 18.894531 30.585938 18.476562 30.164062 17.957031 30.164062 C 17.441406 30.164062 17.019531 30.585938 17.019531 31.101562 L 17.019531 35.792969 C 17.019531 36.855469 17.527344 37.714844 18.523438 38.351562 C 19.050781 38.6875 19.640625 38.855469 20.285156 38.859375 L 20.289062 38.859375 C 20.84375 38.859375 21.363281 38.738281 21.832031 38.5 C 23.320312 37.75 23.632812 36.613281 23.632812 35.789062 L 23.632812 31.101562 C 23.632812 30.585938 23.214844 30.164062 22.695312 30.164062 Z M 13.582031 36.816406 C 14.015625 36.125 14.246094 35.328125 14.242188 34.511719 C 14.242188 32.113281 12.292969 30.164062 9.898438 30.164062 C 7.5 30.164062 5.550781 32.113281 5.550781 34.511719 C 5.550781 36.910156 7.5 38.859375 9.898438 38.859375 C 10.769531 38.859375 11.585938 38.597656 12.265625 38.152344 L 12.667969 38.554688 C 12.851562 38.738281 13.09375 38.832031 13.332031 38.832031 C 13.574219 38.832031 13.8125 38.738281 13.996094 38.554688 C 14.363281 38.191406 14.363281 37.597656 13.996094 37.230469 Z M 9.898438 36.984375 C 8.535156 36.984375 7.425781 35.875 7.425781 34.511719 C 7.425781 33.148438 8.535156 32.039062 9.898438 32.039062 C 11.261719 32.039062 12.367188 33.148438 12.367188 34.511719 C 12.367188 34.824219 12.308594 35.136719 12.191406 35.425781 L 11.8125 35.050781 C 11.445312 34.695312 10.863281 34.699219 10.5 35.0625 C 10.140625 35.421875 10.132812 36.007812 10.488281 36.375 L 10.886719 36.773438 C 10.574219 36.910156 10.238281 36.984375 9.898438 36.984375 Z M 38.042969 36.976562 L 38.039062 36.976562 C 37.597656 36.980469 37.050781 36.980469 36.59375 36.984375 L 36.59375 31.101562 C 36.59375 30.585938 36.175781 30.164062 35.65625 30.164062 C 35.136719 30.164062 34.71875 30.585938 34.71875 31.101562 L 34.71875 37.914062 C 34.71875 38.371094 35.046875 38.761719 35.496094 38.839844 C 35.566406 38.851562 35.613281 38.859375 36.367188 38.859375 C 36.730469 38.859375 37.265625 38.855469 38.050781 38.851562 C 38.566406 38.851562 38.984375 38.425781 38.980469 37.910156 C 38.980469 37.394531 38.558594 36.976562 38.042969 36.976562 Z M 38.042969 36.976562 "/>
</g>
</svg>
