<svg xmlns="http://www.w3.org/2000/svg" version="1.1" xmlns:xlink="http://www.w3.org/1999/xlink" width="128" height="128" x="0" y="0" viewBox="0 0 64 64" style="enable-background:new 0 0 512 512" xml:space="preserve" class=""><g><path fill="#ff8088" d="m60 27-9 5 4 1c-2.361 3.296-8.991 11.62-21 16a44.37 44.37 0 0 1-3.147 1.016c-1.793.505-3.599 1.019-5.853 1.227-1.44.133-3.504.182-6-.243l-2 9h3.939c.707 0 1.419-.041 2.118-.143C46.305 56.47 56.414 38.925 59 35l3 1z" opacity="1" data-original="#ff8088"></path><path fill="#fada5e" d="m56 2 1.854 3.95L62 6.584l-3 3.074.708 4.342L56 11.95 52.292 14 53 9.658l-3-3.074 4.146-.634z" opacity="1" data-original="#fada5e"></path><path fill="#83ade6" d="m49.052 16.187-1.156-1.698a1 1 0 0 0-1.443-.225l-8.572 6.706-7.101.6a4 4 0 0 0-2.941 1.693L19.973 34a1 1 0 0 0 .904 1.57l2.396-.203a1 1 0 0 0 .727-.412l6.331-8.328.589 6.975L28.529 50l4.899-1.055 2.558-14.768 4.887 2.398c.224.11.398.299.49.531L44 44.508 47.522 42l-2.437-8.176a1.003 1.003 0 0 0-.512-.592L40 30.851l-.786-5.979 9.617-7.327a1 1 0 0 0 .221-1.358z" opacity="1" data-original="#83ade6" class=""></path><path fill="#5a6d80" d="M22 54.004v-4.008h-2.267a7.938 7.938 0 0 0-.847-2.048l1.602-1.602-2.834-2.834-1.602 1.602a7.978 7.978 0 0 0-2.048-.849V42H9.996v2.262a7.953 7.953 0 0 0-2.052.848l-1.598-1.598-2.834 2.834 1.597 1.597a7.95 7.95 0 0 0-.85 2.053H2v4.008h2.259c.189.73.476 1.419.85 2.052l-1.597 1.597 2.834 2.834 1.598-1.598c.633.373 1.322.66 2.052.848V62h4.008v-2.264a7.97 7.97 0 0 0 2.049-.849l1.601 1.601 2.834-2.834-1.602-1.602a7.909 7.909 0 0 0 .847-2.048zM12 56a4 4 0 1 1 0-8 4 4 0 0 1 0 8z" opacity="1" data-original="#5a6d80"></path><circle cx="33.641" cy="17.448" r="4" fill="#83ade6" opacity="1" data-original="#83ade6" class=""></circle><path fill="#7499cc" d="M35.731 20.359a4 4 0 0 1-4-4c0-1.161.503-2.198 1.293-2.929a3.994 3.994 0 0 0 .707 7.929 3.975 3.975 0 0 0 2.707-1.071 4.025 4.025 0 0 1-.707.071z" opacity="1" data-original="#7499cc"></path><path d="M2.323 54.74h1.52c.104.296.225.585.359.868l-1.075 1.075a1.002 1.002 0 0 0 0 1.414l2.834 2.834a1.03 1.03 0 0 0 1.414 0l1.076-1.076c.283.135.572.254.867.358v1.522a1 1 0 0 0 1 1h4.008a1 1 0 0 0 1-1V60.21c.294-.104.583-.224.864-.358l1.079 1.079a1 1 0 0 0 1.414 0l2.834-2.834a1 1 0 0 0 0-1.414l-1.08-1.08a8.9 8.9 0 0 0 .357-.863h1.528a1 1 0 0 0 1-1v-4.008a1 1 0 0 0-1-1h-1.528a8.9 8.9 0 0 0-.357-.863l1.08-1.08a1 1 0 0 0 0-1.414l-2.834-2.834a1.03 1.03 0 0 0-1.414 0L16.19 43.62a9.184 9.184 0 0 0-.864-.358v-1.525a1 1 0 0 0-1-1h-4.008a1 1 0 0 0-1 1v1.522a9.084 9.084 0 0 0-.867.358l-1.076-1.076a1 1 0 0 0-1.414 0l-2.834 2.834a1 1 0 0 0 0 1.414l1.075 1.075a8.755 8.755 0 0 0-.359.868h-1.52a1 1 0 0 0-1 1v4.008a1 1 0 0 0 1 1zm1-4.008h1.259a1 1 0 0 0 .968-.75 6.946 6.946 0 0 1 .743-1.794 1 1 0 0 0-.154-1.215l-.891-.891 1.42-1.42.891.892a1 1 0 0 0 1.215.154 6.934 6.934 0 0 1 1.793-.741 1 1 0 0 0 .75-.968v-1.262h2.008V44a1 1 0 0 0 .749.968 6.974 6.974 0 0 1 1.792.743c.392.231.894.168 1.215-.154l.894-.895 1.42 1.42-.896.896a1 1 0 0 0-.154 1.215c.328.557.577 1.159.74 1.791a1 1 0 0 0 .968.75h1.267v2.008h-1.267a1 1 0 0 0-.968.75 6.994 6.994 0 0 1-.74 1.791 1 1 0 0 0 .154 1.215l.895.895-1.42 1.42-.894-.894a1 1 0 0 0-1.215-.154 6.959 6.959 0 0 1-1.792.743 1 1 0 0 0-.749.968v1.264h-2.008v-1.262a1 1 0 0 0-.75-.968 6.954 6.954 0 0 1-1.793-.741 1.002 1.002 0 0 0-1.215.154l-.889.887-1.42-1.42.89-.89a.998.998 0 0 0 .154-1.215 6.96 6.96 0 0 1-.743-1.794 1 1 0 0 0-.968-.75H3.323z" fill="#000000" opacity="1" data-original="#000000" class=""></path><path d="M12.323 56.736c2.757 0 5-2.243 5-5s-2.243-5-5-5-5 2.243-5 5 2.243 5 5 5zm0-8c1.654 0 3 1.346 3 3s-1.346 3-3 3-3-1.346-3-3 1.345-3 3-3zM63.271 6.002a1 1 0 0 0-.797-.671l-3.618-.552-1.627-3.467a1 1 0 0 0-1.81 0L53.79 4.778l-3.618.552a1 1 0 0 0-.565 1.687l2.647 2.713-.626 3.844a1 1 0 0 0 1.471 1.037l3.224-1.782 3.224 1.782a1.006 1.006 0 0 0 1.06-.058 1 1 0 0 0 .411-.979l-.626-3.844 2.647-2.713a1 1 0 0 0 .232-1.015zm-4.664 2.694a.999.999 0 0 0-.271.859l.376 2.309-1.906-1.053a1 1 0 0 0-.968 0l-1.906 1.053.376-2.309a.999.999 0 0 0-.271-.859l-1.641-1.682 2.222-.339a1 1 0 0 0 .754-.564l.949-2.021.949 2.021c.142.302.425.513.754.564l2.222.339zM47.7 12.812a2.013 2.013 0 0 0-1.54.401l-7.846 6.138c.431-.829.63-1.76.55-2.714-.112-1.331-.736-2.538-1.757-3.4s-2.314-1.273-3.646-1.162a4.973 4.973 0 0 0-3.4 1.757 4.949 4.949 0 0 0 .174 6.614 4.957 4.957 0 0 0-2.88 1.962l-7.879 10.754a1.981 1.981 0 0 0-.094 2.145 1.986 1.986 0 0 0 1.902.995l2.396-.203a1.981 1.981 0 0 0 1.439-.804l4.757-6.258.36 4.27-2.363 16.207c-.892.183-1.788.347-2.689.473l.277 1.98a45.172 45.172 0 0 0 9.204-2.293c5.76-2.1 10.364-5.123 13.914-8.158l.224-.067-.031-.104c3.425-2.962 5.853-5.919 7.364-8.028a.999.999 0 0 0-.571-1.552l-1.543-.386 5.615-3.119 1.326 5.968-1.324-.441a1 1 0 0 0-1.151.398l-.165.25c-12.572 19.14-26.546 23.78-36.055 24.302l.109 1.997c9.903-.544 24.394-5.301 37.357-24.807l2.271.757a.999.999 0 0 0 1.292-1.165l-2-9a.997.997 0 0 0-1.462-.657l-9 5a.999.999 0 0 0 .244 1.844l2.545.636a45.152 45.152 0 0 1-5.483 5.892l-1.783-5.981a2 2 0 0 0-1.002-1.172l-4.111-2.141-.643-4.888 9.156-6.976a1.998 1.998 0 0 0 .441-2.717l-1.156-1.698a2.003 2.003 0 0 0-1.343-.849zm-14.072 1.256a2.977 2.977 0 0 1 2.188.697 2.983 2.983 0 0 1 1.054 2.04c.067.799-.18 1.576-.697 2.188s-1.241.987-2.04 1.054c-.8.069-1.576-.18-2.188-.697s-.987-1.241-1.054-2.04a3.005 3.005 0 0 1 2.737-3.242zm1.359 33.334 2.081-12.009 3.676 1.784 2.173 6.1a42.693 42.693 0 0 1-7.93 4.125zm3.944-23.589c-.285.217-.432.57-.386.926l.786 5.979c.043.323.24.606.53.756l4.588 2.372 2.032 6.817c-.591.482-1.214.96-1.862 1.434l-2.002-5.62a1.993 1.993 0 0 0-.98-1.062l-4.887-2.398a1.006 1.006 0 0 0-.895.007.997.997 0 0 0-.531.72l-2.502 14.442c-.942.313-1.894.601-2.857.849l2.268-15.551c.011-.076.013-.152.007-.229l-.589-6.975a.999.999 0 0 0-1.792-.521l-6.346 8.349-2.409.22 7.879-10.754a2.998 2.998 0 0 1 2.206-1.27l3.111-.264h.003l3.985-.337c.194-.017.379-.089.532-.209l8.572-6.706 1.157 1.698zM4.323 1.736h2v2h-2zM6.323 3.736h2v2h-2zM2.323 3.736h2v2h-2zM4.323 5.736h2v2h-2zM12.323 4.736h2v2h-2zM14.323 6.736h2v2h-2zM10.323 6.736h2v2h-2zM12.323 8.736h2v2h-2zM58.323 55.736h2v2h-2zM60.323 57.736h2v2h-2zM56.323 57.736h2v2h-2zM58.323 59.736h2v2h-2z" fill="#000000" opacity="1" data-original="#000000" class=""></path></g></svg>