<svg xmlns="http://www.w3.org/2000/svg" version="1.1" xmlns:xlink="http://www.w3.org/1999/xlink" width="64" height="64" x="0" y="0" viewBox="0 0 32 32" style="enable-background:new 0 0 512 512" xml:space="preserve" class=""><g><g data-name="Ui Ux"><g fill="#38004d"><path d="M31 32H9a1 1 0 0 1-1-1V14a1 1 0 0 1 1-1h22a1 1 0 0 1 1 1v17a1 1 0 0 1-1 1zm-21-2h20V15H10z" fill="#38004d" opacity="1" data-original="#38004d" class=""></path><path d="M9 24H4a4 4 0 0 1-4-4V4a4 4 0 0 1 4-4h10a4 4 0 0 1 4 4v6a1 1 0 0 1-2 0V4a2 2 0 0 0-2-2H4a2 2 0 0 0-2 2v16a2 2 0 0 0 2 2h5a1 1 0 0 1 0 2z" fill="#38004d" opacity="1" data-original="#38004d" class=""></path><path d="M7 11a3 3 0 0 1-3-3V5a1 1 0 0 1 2 0v3a1 1 0 0 0 2 0V5a1 1 0 0 1 2 0v3a3 3 0 0 1-3 3z" fill="#38004d" opacity="1" data-original="#38004d" class=""></path></g><path fill="#9f85ec" d="M15 24a3 3 0 0 1-3-3v-3a1 1 0 0 1 2 0v3a1 1 0 0 0 2 0v-3a1 1 0 0 1 2 0v3a3 3 0 0 1-3 3z" opacity="1" data-original="#9f85ec"></path><path fill="#38004d" d="M13 11a1 1 0 0 1-1-1V5a1 1 0 0 1 2 0v5a1 1 0 0 1-1 1z" opacity="1" data-original="#38004d" class=""></path><path fill="#9f85ec" d="M24 24a1 1 0 0 1-.78-.38l-4-5a1 1 0 0 1 1.56-1.24l4 5A1 1 0 0 1 24 24z" opacity="1" data-original="#9f85ec"></path><path fill="#9f85ec" d="M20 24a1 1 0 0 1-.78-1.62l4-5a1 1 0 1 1 1.56 1.24l-4 5A1 1 0 0 1 20 24z" opacity="1" data-original="#9f85ec"></path><path fill="#38004d" d="M15 28h-2a1 1 0 0 1 0-2h2a1 1 0 0 1 0 2zM27 28h-8a1 1 0 0 1 0-2h8a1 1 0 0 1 0 2z" opacity="1" data-original="#38004d" class=""></path></g></g></svg>