<svg xmlns="http://www.w3.org/2000/svg" version="1.1" xmlns:xlink="http://www.w3.org/1999/xlink" width="64" height="64" x="0" y="0" viewBox="0 0 512 512" style="enable-background:new 0 0 512 512" xml:space="preserve" class=""><g><path d="M398.984 347.131c-16.551-8.8-35.875-7.126-50.389 2.694-4.668 3.158-10.734 3.369-15.711.723l-181.613-96.566c-8.432-4.483-17.307 5.185-12.12 13.203l2.512 3.883a79.958 79.958 0 0 0 29.599 27.171l147.551 78.455c5.078 2.7 8.301 7.961 8.318 13.711.052 17.941 9.997 35.254 27.354 43.79 23.282 11.451 51.841 2.442 64.362-20.283 13.197-23.951 4.199-53.986-19.863-66.781zm-4.507 44.416c-.554 8.677-7.304 15.915-15.921 17.073-11.644 1.565-21.724-7.834-20.975-19.559.554-8.676 7.303-15.915 15.92-17.074 11.645-1.566 21.725 7.834 20.976 19.56z" style="" fill="#766d78" data-original="#766d78"></path><path d="M151.271 253.982c-8.432-4.483-17.307 5.185-12.12 13.203l2.512 3.883a79.958 79.958 0 0 0 29.599 27.171l130.519 69.399V334.01l-150.51-80.028z" style="" fill="#615963" data-original="#615963"></path><path d="M252.033 59.34H30.843v195.542h221.19l9.422-90.999z" style="" fill="#bbe0ff" data-original="#bbe0ff"></path><path d="M232.089 193.156v61.725h19.944l9.422-39.626-9.422-49.88c-11.708 3.831-19.944 14.667-19.944 27.781z" style="" fill="#9dc9eb" data-original="#9dc9eb"></path><path d="M252.033 59.34h229.124v195.542H252.033l11.605-45.5-11.605-44.007z" style="" fill="#f37c7c" data-original="#f37c7c" class=""></path><path d="m289.02 182.713-2.108-3.789c-5.244-9.418-14.761-15.041-25.457-15.041-3.312 0-6.475.528-9.422 1.492v89.507h49.748v-23.005c0-17.165-4.413-34.166-12.761-49.164z" style="" fill="#eb5468" data-original="#eb5468"></path><path d="M481.157 59.34V31.061c0-13.012-10.549-23.561-23.561-23.561H54.405c-13.013 0-23.561 10.549-23.561 23.561V59.34h450.313zM30.843 254.882v28.279c0 13.012 10.549 23.561 23.561 23.561h403.191c13.013 0 23.561-10.549 23.561-23.561v-28.279H30.843z" style="" fill="#ffe07d" data-original="#ffe07d"></path><path d="M252.033 254.882h-19.944v51.84h69.692v-51.84z" style="" fill="#ffd064" data-original="#ffd064"></path><path d="M30.843 59.34h26.553v195.541H30.843z" style="" fill="#9dc9eb" data-original="#9dc9eb"></path><path d="M80.958 7.5H54.405c-13.013 0-23.561 10.549-23.561 23.561V59.34h26.553V31.061C57.396 18.049 67.945 7.5 80.958 7.5zM57.396 283.161v-28.279H30.843v28.279c0 13.012 10.549 23.561 23.561 23.561h26.553c-13.012 0-23.561-10.549-23.561-23.561z" style="" fill="#ffd064" data-original="#ffd064"></path><path d="M289.983 412.478c-5.07-2.714-8.201-8.031-8.201-13.782v-166.82a81.081 81.081 0 0 0-10.237-39.438l-2.107-3.786c-4.645-8.344-17.348-5.046-17.348 4.503v205.689c0 5.636-3.034 10.894-8.014 13.533-15.485 8.205-26.035 24.481-26.035 43.226 0 27.252 22.295 49.297 49.641 48.89 25.943-.386 47.305-21.373 48.125-47.306.609-19.331-10.008-36.24-25.824-44.709zm-21.161 61.52c-11.692 1.158-21.437-8.587-20.28-20.279.856-8.652 7.854-15.65 16.506-16.508 11.692-1.159 21.439 8.587 20.281 20.28-.857 8.652-7.855 15.65-16.507 16.507z" style="" fill="#8e868e" data-original="#8e868e"></path><path d="m125.62 191.185 42.435-24.855c7.046-4.127 7.046-14.311 0-18.438l-42.435-24.855c-7.122-4.172-16.084.965-16.084 9.219v49.71c.001 8.254 8.962 13.391 16.084 9.219zM350.777 191.185l42.435-24.855c7.046-4.127 7.046-14.311 0-18.438l-42.435-24.855c-7.122-4.172-16.083.965-16.083 9.219v49.71c-.001 8.254 8.96 13.391 16.083 9.219z" style="" fill="#edf4ff" data-original="#edf4ff"></path><path d="m283.15 357.733 35.662 18.962c5.078 2.7 8.301 7.961 8.318 13.711.052 17.941 9.997 35.254 27.354 43.79 23.282 11.451 51.841 2.442 64.362-20.283 13.198-23.953 4.2-53.989-19.862-66.783-16.551-8.8-35.875-7.126-50.389 2.694-4.668 3.158-10.734 3.369-15.711.723l-48.34-25.703m-96.426-17.641 62.668 33.322m143.691 51.022c-.554 8.677-7.304 15.915-15.921 17.073-11.644 1.565-21.724-7.834-20.975-19.559.554-8.676 7.303-15.915 15.92-17.074 11.645-1.566 21.725 7.834 20.976 19.56zM249.45 254.882H30.843M481.157 254.882H283.15M30.843 59.34h450.314M248.787 306.722H54.404c-13.012 0-23.561-10.549-23.561-23.561v-252.1C30.843 18.049 41.392 7.5 54.404 7.5h403.191c13.012 0 23.561 10.549 23.561 23.561V283.16c0 13.013-10.549 23.561-23.561 23.561H284.781" style="stroke-width:15;stroke-linecap:round;stroke-linejoin:round;stroke-miterlimit:10;" fill="none" stroke="#000000" stroke-width="15" stroke-linecap="round" stroke-linejoin="round" stroke-miterlimit="10" data-original="#000000"></path><path d="M289.983 412.478c-5.07-2.714-8.201-8.031-8.201-13.782v-166.82a81.081 81.081 0 0 0-10.237-39.438l-2.107-3.786c-4.645-8.344-17.348-5.046-17.348 4.503v205.689c0 5.636-3.034 10.894-8.014 13.533-15.485 8.205-26.035 24.481-26.035 43.226 0 27.252 22.295 49.297 49.641 48.89 25.943-.386 47.305-21.373 48.125-47.306.609-19.331-10.008-36.24-25.824-44.709zm-21.161 61.52c-11.692 1.158-21.437-8.587-20.28-20.279.856-8.652 7.854-15.65 16.506-16.508 11.692-1.159 21.439 8.587 20.281 20.28-.857 8.652-7.855 15.65-16.507 16.507zM252.033 59.34v94.752M78.46 33.42h11.49M127.545 33.42h11.489M176.629 33.42h11.489M225.713 33.42h11.49M274.797 33.42h11.49M323.882 33.42h11.489M372.966 33.42h11.489M422.05 33.42h11.49M78.46 280.802h11.49M127.545 280.802h11.489M176.629 280.802h11.489M372.966 280.802h11.489M422.05 280.802h11.49M323.882 280.802h11.489M125.62 191.185l42.435-24.855c7.046-4.127 7.046-14.311 0-18.438l-42.435-24.855c-7.122-4.172-16.084.965-16.084 9.219v49.71c.001 8.254 8.962 13.391 16.084 9.219zM350.777 191.185l42.435-24.855c7.046-4.127 7.046-14.311 0-18.438l-42.435-24.855c-7.122-4.172-16.083.965-16.083 9.219v49.71c-.001 8.254 8.96 13.391 16.083 9.219z" style="stroke-width:15;stroke-linecap:round;stroke-linejoin:round;stroke-miterlimit:10;" fill="none" stroke="#000000" stroke-width="15" stroke-linecap="round" stroke-linejoin="round" stroke-miterlimit="10" data-original="#000000"></path></g></svg>